<svg width="190" height="160" viewBox="0 0 190 160" fill="none" xmlns="http://www.w3.org/2000/svg">
<g clip-path="url(#clip0)">
<path d="M183.211 7.06233C184.098 9.79172 184.098 9.79172 181.471 10.3035C181.368 10.3376 181.232 10.3035 181.13 10.3376C173.01 14.1929 163.764 12.8282 155.473 16.0693C153.529 16.854 151.277 16.8881 149.161 17.2293C146.125 17.7411 143.054 18.014 141.451 21.3234C141.007 22.2787 139.916 22.1763 139.029 22.2105C137.084 22.3128 135.822 23.0975 135.685 25.2469C135.651 26.0316 135.446 26.8163 134.866 27.4304C131.83 30.7057 130.738 34.9021 129.237 38.928C128.009 42.2033 126.951 45.5809 124.29 48.1056C124.119 48.2421 123.915 48.4468 123.88 48.6515C123.232 52.5067 120.503 55.475 119.684 59.2279C119.411 60.3879 118.831 61.309 118.183 62.1961C118.046 64.0726 119.855 62.8784 120.435 63.629C121.595 65.4714 121.117 67.3478 120.469 69.0537C120.673 70.009 121.356 69.736 121.833 69.9066C123.846 70.589 124.699 72.1243 123.983 74.069C123.71 74.8195 123.3 75.5019 122.857 76.1501C122.243 77.1054 122.277 77.7878 123.471 78.2313C124.119 78.4701 124.699 78.8795 125.04 79.4936C125.62 80.5854 125.927 81.6089 124.597 82.4277C124.017 82.7689 123.471 83.2124 122.925 83.6218C121.902 84.3383 121.185 85.0889 122.106 86.4195C123.028 87.7501 121.936 89.3194 122.652 90.8888C124.938 89.3194 127.463 88.4324 130.022 87.5453C131.864 86.8971 133.536 85.9077 134.457 84.0654C135.071 82.803 136.06 82.223 137.425 82.0866C139.233 81.8819 141.007 81.5748 142.816 81.4042C146.398 81.063 148.957 82.7007 150.526 85.8395C151.345 87.443 152.027 89.1489 152.778 90.8206C155.917 89.5924 158.714 87.8183 162.058 87.3065C163.593 87.0677 164.617 87.3406 165.674 88.4324C167.551 90.4112 169.734 92.0488 172.054 93.55C173.692 94.6077 174.988 94.2324 176.251 93.0041C177.445 91.8783 178.195 90.4794 178.98 89.1147C179.833 87.6477 180.652 86.1124 182.051 85.0889C183.449 84.0654 185.121 83.0077 186.759 83.8948C188.635 84.9524 190 86.7265 189.966 89.1489C189.966 89.49 189.932 89.8312 189.864 90.1724C187.953 96.8253 187.509 103.819 185.189 110.37C184.098 113.475 183.518 116.716 183.142 120.025C182.938 121.731 182.324 123.335 181.812 124.938C180.311 129.646 178.912 134.32 181.607 139.097C181.778 139.37 181.914 139.916 181.778 140.052C179.697 141.997 181.3 144.59 180.618 146.807C179.833 149.332 176.797 152.164 174.17 152.3C160.113 153.119 146.023 153.938 131.966 154.791C130.84 154.859 129.68 154.927 128.555 154.961C117.125 155.541 105.696 156.053 94.2665 156.667C91.9124 156.804 89.9336 156.36 87.9207 154.211C90.8548 153.904 93.2771 153.256 95.6653 153.426C99.5547 153.767 103.342 153.733 107.163 152.983C110.302 152.368 113.509 152.334 116.682 152.437C123.846 152.641 130.977 151.891 138.073 151.106C138.517 151.072 138.994 150.97 139.438 150.97C150.799 150.97 162.058 148.957 173.453 149.23C176.762 149.298 177.854 147.865 177.547 144.521C177.411 142.816 177.308 141.11 176.967 139.438C175.841 133.57 176.728 127.94 178.468 122.311C180.311 116.34 182.187 110.404 183.074 104.195C183.518 100.953 184.78 97.8488 185.565 94.6418C186.111 92.4582 186.52 90.2406 186.042 87.9206C183.893 87.7842 182.597 88.5689 181.573 90.3771C180.447 92.4582 178.844 94.3006 177.24 96.0747C175.875 97.5759 174.306 98.19 172.361 97.7123C167.687 96.5182 162.911 96.5523 158.134 96.3818C154.518 96.2453 150.867 96.2794 147.217 96.2112C144.249 96.1429 141.349 96.6206 138.414 97.0641C131.42 98.1559 124.358 97.8147 117.33 97.7123C113.406 97.6441 109.449 98.1217 105.525 97.8488C104.775 97.7806 104.263 98.2923 103.922 98.9064C102.932 100.612 101.465 100.681 100.237 99.4523C98.5653 97.7806 96.6547 97.8147 94.5736 97.8488C92.4242 97.8829 90.2407 97.8829 88.0913 97.6782C83.9972 97.3029 79.9713 97.2347 75.8431 97.7123C71.1008 98.2582 66.2902 97.8488 61.5479 97.7123C56.6691 97.5759 51.7903 97.5759 46.9456 98.5311C44.148 99.077 41.2821 99.1112 38.4845 99.1453C29.9893 99.2476 21.494 100.612 12.9647 99.8617C9.5188 99.5547 6.10705 99.35 4.40118 95.6312C3.17295 96.5865 3.00237 97.4394 3.95765 98.3606C5.86823 100.203 6.14117 102.557 6.0047 104.979C5.76588 108.869 5.90235 112.69 6.99411 116.477C7.43763 118.012 7.53998 119.684 7.09646 121.219C6.41411 123.539 6.85764 125.723 7.50587 127.906C8.56351 131.557 9.00703 135.242 8.56351 139.029C8.22233 142.031 8.63174 144.897 9.75762 147.694C10.4741 149.468 11.1906 151.311 10.2011 153.29C9.65527 154.347 10.4741 154.723 11.2588 154.995C13.7835 155.883 16.3423 155.883 18.9693 155.712C26.8846 155.166 34.8339 154.757 42.7492 154.313C42.8174 154.313 42.9198 154.45 43.2609 154.688C41.4527 156.735 39.5763 158.714 36.6763 158.646C29.2728 158.475 21.9375 158.885 14.6023 159.67C12.6917 159.874 10.747 159.328 9.00703 158.407C6.10705 156.872 5.22 154.62 6.37999 151.413C6.68705 150.594 6.85764 149.776 6.14117 149.23C4.91294 148.308 5.11765 147.046 5.04941 145.852C4.60589 139.643 4.4353 133.399 3.44589 127.19C2.93413 123.949 3.13884 120.605 3.0706 117.33C3.00237 114.839 3.00237 112.315 3.00237 109.824C3.03648 106.583 2.62707 103.478 0.921202 100.646C-0.272908 98.6335 -0.307026 96.5865 0.955319 94.5394C2.2859 92.39 4.98118 91.7077 7.23293 92.7994C8.90468 93.6182 7.81292 95.0171 8.08586 96.1088C12.2141 96.5523 17.5023 93.4135 18.7646 89.49C19.2423 87.9889 19.9928 87.1359 21.3575 86.6583C23.1658 86.0101 24.974 85.3277 26.7822 84.6795C28.5222 84.0654 30.2281 83.5877 31.7975 85.2254C32.5139 85.9759 33.7081 85.7712 34.7316 85.8054C37.768 85.9077 39.8492 87.5453 40.8045 90.5477C41.0433 91.2983 40.7021 92.1512 41.5551 92.9359C43.1927 91.0936 44.8303 89.2171 46.9115 87.8524C49.1974 86.3853 51.5856 85.3618 54.2126 86.9995C55.2362 87.6477 55.8844 87.1018 56.635 86.5559C58.8526 84.9183 61.3432 83.7924 63.902 82.9054C67.4161 81.7113 69.702 82.5983 71.6808 85.7712C72.7725 87.5112 73.3525 89.49 74.0007 91.4347C74.2055 92.083 74.376 92.7312 75.0925 93.4477C76.969 91.4347 79.3231 90.1724 82.0866 89.9677C84.236 89.8312 85.3277 88.7395 85.703 86.7265C85.8054 86.1806 86.0783 85.703 86.2489 85.1912C85.3619 84.5089 84.3725 84.8501 83.5195 84.543C81.5407 83.8607 81.2678 82.8371 82.7348 81.3701C83.2125 80.8924 83.7925 80.483 84.236 79.9713C85.3277 78.6066 86.3171 77.2078 84.7477 75.4678C84.3383 75.0242 84.236 74.2395 84.0995 73.5572C83.8948 72.329 84.0654 71.3054 85.6689 71.1349C86.4536 71.0325 87.2383 70.7596 87.9207 70.3843C89.6265 69.4972 90.1383 68.4396 89.6265 66.4608C89.3195 65.2325 89.1148 64.0043 89.1489 62.7761C89.2171 60.3879 90.5818 59.569 92.6971 60.6949C93.8912 61.309 95.0171 62.1279 96.2794 62.6396C98.5994 63.5949 99.35 63.2537 100.374 60.8655C100.919 59.6032 101.568 58.4091 102.625 57.522C103.888 56.4644 104.365 56.6008 105.048 58.1361C105.491 59.1255 105.491 60.3538 106.753 61.1726C108.425 59.7738 109.415 57.7949 110.063 55.8161C111.905 50.2891 114.805 45.2738 117.535 40.1904C121.356 33.0939 124.87 25.861 128.555 18.6623C129.032 17.7411 129.237 16.854 128.998 15.7282C128.418 12.9646 131.182 9.7576 134.013 10.167C136.845 10.5764 139.438 9.99642 142.031 9.17761C148.854 7.02821 155.78 5.11763 162.808 3.92352C168.301 3.00235 173.624 1.46707 179.048 0.272957C181.471 -0.272922 181.505 -0.170569 182.392 2.18353C180.891 5.28822 177.786 5.15175 175.091 5.69763C165.299 7.64232 155.507 9.5529 145.818 11.9411C144.556 12.2482 143.123 12.3164 142.304 13.5446C143.123 14.8752 144.146 14.4317 145.101 14.1588C156.633 11.2247 168.438 9.51878 179.97 6.6188C181.13 6.31174 182.255 6.17527 183.211 7.06233Z" fill="black"/>
<path d="M183.211 7.06227C182.051 6.99403 180.959 7.19873 179.867 7.50579C170.485 10.0987 160.83 11.4293 151.379 13.6469C148.957 14.1928 146.5 14.4316 144.18 15.4893C142.474 16.274 141.997 15.8646 140.427 12.9987C141.758 11.9411 143.43 11.634 144.999 11.1564C152.061 9.04108 159.397 8.22226 166.527 6.41403C170.041 5.52698 173.624 5.01522 177.206 4.4011C179.117 4.05993 180.925 3.47993 182.426 2.18347C182.699 3.78699 182.972 5.42463 183.211 7.06227Z" fill="#F5C388"/>
<path d="M20.2998 109.38C20.2998 109.142 20.2657 108.698 20.2998 108.22C20.3681 107.333 20.8798 106.685 21.6986 106.515C22.6198 106.31 23.1316 107.026 23.5069 107.743C23.9504 108.528 24.2233 109.38 24.2575 110.336C24.3939 117.807 25.281 125.211 27.1574 132.478C27.3621 133.194 27.7715 133.979 27.0892 134.73C26.5774 135.241 25.9633 135.549 25.281 135.514C24.428 135.48 24.3257 134.696 24.0869 134.081C23.3704 132.273 23.6092 130.294 23.1657 128.418C21.6986 122.209 20.8116 115.931 20.2998 109.38Z" fill="black"/>
<path d="M54.4856 120.708C54.4856 123.983 54.4515 127.292 54.4856 130.568C54.5197 131.898 54.1103 132.819 52.6433 132.819C51.2104 132.853 51.0398 131.625 50.9715 130.704C50.7668 127.531 50.6304 124.358 50.6986 121.219C50.8009 117.364 50.9033 113.509 50.4598 109.688C50.3915 109.142 50.3574 108.562 50.3574 107.982C50.3574 106.924 50.8351 106.139 51.8586 106.071C52.7456 106.003 53.2233 106.788 53.4962 107.572C53.9398 108.869 54.2468 110.199 54.2468 111.564C54.2468 114.635 54.2468 117.671 54.2468 120.742C54.3492 120.708 54.4174 120.708 54.4856 120.708Z" fill="black"/>
<path d="M125.313 108.221C125.279 108.528 125.245 109.108 125.075 109.619C123.437 114.703 122.55 119.923 121.595 125.177C121.526 125.62 121.322 126.064 121.253 126.507C121.049 128.282 119.582 128.35 118.456 128.213C117.091 128.043 117.227 126.542 117.5 125.757C118.695 122.311 118.353 118.592 119.616 115.146C120.571 112.519 121.151 109.722 121.731 106.958C121.97 105.764 122.311 105.116 123.642 105.184C125.04 105.286 125.177 106.276 125.313 107.299C125.347 107.504 125.313 107.743 125.313 108.221Z" fill="black"/>
<path d="M146.5 124.119C147.694 118.114 148.991 112.076 151.823 106.446C152.13 105.832 152.437 105.15 153.255 105.218C154.347 105.32 154.791 106.31 154.859 107.163C154.927 108.152 154.62 109.176 154.313 110.131C152.846 115.215 151.038 120.23 150.492 125.552C150.424 126.269 150.151 126.814 149.537 127.224C148.138 128.145 147.285 127.872 146.876 126.234C146.671 125.62 146.637 124.938 146.5 124.119Z" fill="black"/>
<path d="M91.0253 107.163C90.07 112.997 90.65 118.729 89.6265 124.358C89.4559 125.245 89.2512 126.132 89.0806 127.019C88.8759 128.077 87.9889 128.009 87.2383 128.145C86.3171 128.282 86.1124 127.497 85.9077 126.883C85.6006 125.893 85.4642 124.836 85.7712 123.846C86.9653 119.752 86.8971 115.556 87.0677 111.359C87.1359 109.449 87.3406 107.504 87.5112 105.593C87.5794 104.741 87.8524 104.024 88.91 104.058C89.8312 104.092 90.4112 104.502 90.5818 105.423C90.7524 106.037 90.9229 106.685 91.0253 107.163Z" fill="black"/>
<path d="M88.5347 55.9525C89.0123 55.9184 89.4558 55.9525 89.5923 56.5325C89.7288 57.0102 89.5582 57.4537 89.1488 57.7266C87.7158 58.6137 86.2147 59.4325 84.7476 60.2855C81.7453 62.0254 78.9135 63.8678 78.7088 67.8254C78.6747 68.5078 78.3677 69.1901 77.7877 69.5654C77.2418 69.9066 76.6618 70.3842 75.9112 70.0772C75.2971 69.8042 75.2289 69.1901 75.2289 68.6442C75.1606 66.1878 75.7065 63.8337 77.4124 62.0596C80.21 59.1596 83.6559 57.249 87.5453 56.1572C87.8523 56.0549 88.1935 56.0208 88.5347 55.9525Z" fill="black"/>
<path d="M147.865 65.9149C147.831 67.2796 145.852 68.849 144.556 68.5419C143.873 68.3714 143.771 67.8255 143.669 67.2796C143.191 64.0384 142.167 61.1726 139.233 59.2279C138.449 58.7161 138.244 57.7608 138.892 56.8055C139.54 55.8503 140.325 55.8844 141.246 56.2256C144.351 57.3855 147.933 62.6055 147.865 65.9149Z" fill="black"/>
<path d="M70.5208 63.4925C70.4525 62.2301 70.8278 60.9337 71.4761 59.7396C72.5678 57.7266 74.3419 56.2596 75.9796 54.7243C76.7984 53.9396 77.9925 53.8372 78.6748 54.7243C79.3572 55.6113 79.1184 56.5666 77.9584 57.2149C75.2631 58.716 74.3078 61.3772 73.5572 64.1407C73.3184 65.0619 73.5572 66.4948 72.0219 66.2901C70.7255 66.0854 70.4867 64.8572 70.5208 63.4925Z" fill="black"/>
<path d="M134.73 71.0325C134.73 71.476 134.798 71.9537 134.73 72.3972C134.559 73.5231 133.638 73.796 132.751 73.8301C131.693 73.8983 131.455 73.1136 131.455 72.2607C131.489 69.5654 130.806 67.1431 129.203 64.9596C128.418 63.9019 129.1 62.8784 129.919 62.3667C130.704 61.889 131.625 62.0937 132.205 63.0831C133.672 65.5396 134.559 68.1666 134.73 71.0325Z" fill="black"/>
<path d="M120.469 63.629C119.82 63.629 119.172 63.6973 118.558 63.5949C117.364 63.4243 117.432 62.8785 118.217 62.162C118.626 63.2538 120.162 62.469 120.469 63.629Z" fill="#F5C388"/>
<path d="M114.703 69.7019C116.682 72.3631 117.466 74.956 116.75 77.9242C116.477 79.1525 116.033 80.3125 115.795 81.5407C115.18 84.5089 113.475 86.6583 110.882 88.1595C109.79 88.7736 108.698 89.3877 107.743 90.2065C104.706 92.7312 101.499 92.4242 98.19 90.9912C90.4112 87.5795 87.9206 78.9478 92.663 71.9537C94.2665 69.5655 96.3817 67.6549 98.5311 65.7784C99.4523 64.9937 103.273 65.2326 103.922 66.0855C104.399 66.6996 104.092 67.4161 103.922 68.0302C103.137 70.7596 101.806 73.2843 100.646 75.8772C99.1794 79.1183 99.2135 79.2548 101.499 81.0289C103.683 82.7007 106.139 82.803 108.05 81.2336C109.688 79.9031 110.609 78.0607 111.428 76.1843C112.383 74.1031 112.997 71.8855 114.703 69.7019Z" fill="#F5C388"/>
<path d="M130.397 22.1422C132.307 22.7904 132.956 23.7116 132.239 25.3493C131.727 26.4751 131.386 27.7375 130.67 28.7269C127.804 32.8892 125.927 37.4951 123.88 42.0668C120.912 48.6856 117.773 55.2361 114.328 61.6502C113.031 64.0725 112.997 64.0384 110.131 63.3561C109.824 62.2643 110.404 61.3773 110.813 60.4561C112.417 56.7032 114.055 52.9502 115.692 49.1973C116.102 48.242 116.545 47.3209 117.432 46.7068C118.66 45.8879 118.899 44.455 119.684 43.3974C122.311 39.9515 122.993 35.5504 125.552 32.0704C127.667 29.1704 129.51 25.9975 130.397 22.1422Z" fill="#F5C388"/>
<path d="M124.699 94.1299C125.518 92.7652 126.644 92.7994 127.497 92.4582C130.874 91.0594 133.979 89.3194 136.64 86.7606C138.858 84.6453 144.351 84.7476 146.534 86.9311C146.773 87.17 146.978 87.4429 147.183 87.7158C148.206 89.1488 149.912 90.5476 148.82 92.4923C147.967 94.0276 146.125 93.2088 144.726 93.2088C139.063 93.1746 133.536 94.744 127.838 94.2664C126.883 94.1982 125.927 94.1641 124.699 94.1299Z" fill="black"/>
<path d="M17.3657 96.6547C17.6387 94.8806 18.6963 94.1641 19.6175 93.3794C20.641 92.4924 21.9033 91.8782 22.8586 90.9571C26.2363 87.5453 30.0915 88.1594 34.0833 89.4218C37.1538 90.3771 37.6997 92.0488 36.0962 94.7441C35.3456 96.0406 34.2538 95.8359 33.1621 95.8359C27.9762 95.87 22.7904 96.1429 17.3657 96.6547Z" fill="black"/>
<path d="M60.6608 94.8464C60.2514 93.0723 62.0596 91.4347 60.0808 90.2064C59.6032 89.8994 60.0126 89.3535 60.3538 89.1147C61.6161 88.1935 62.8784 87.2382 64.2773 86.4877C65.6761 85.703 67.5867 86.4535 68.5419 88.1594C69.2925 89.5241 69.9066 90.9912 70.4866 92.4582C71.0325 93.9253 70.6231 94.4711 68.9172 94.4711C66.222 94.437 63.5267 94.1641 60.6608 94.8464Z" fill="black"/>
<path d="M44.1479 94.5394C45.9562 93.0724 47.6962 91.4689 49.6409 90.2406C51.415 89.1148 55.7479 91.0595 56.2255 93.0383C56.4643 93.9936 56.2255 95.1194 54.9973 94.9488C51.4491 94.4712 47.935 94.8124 44.3868 95.2559C44.2844 95.0171 44.2162 94.7783 44.1479 94.5394Z" fill="black"/>
<path d="M105.423 72.7043C105.969 70.3161 106.788 68.5079 108.016 66.8361C108.835 65.7102 109.961 65.7443 111.018 66.2902C112.11 66.8361 111.735 67.8596 111.462 68.6784C110.916 70.5208 110.131 72.2608 108.971 73.8302C108.425 74.5808 107.982 75.3313 106.822 74.7172C105.832 74.1714 105.184 73.5231 105.423 72.7043Z" fill="#F5C388"/>
<path d="M78.5724 94.0618C81.1312 93.2771 83.6218 91.3665 86.9653 94.0277C83.7924 94.7441 81.1994 94.6077 78.5724 94.0618Z" fill="black"/>
<path d="M164.821 92.9701C162.126 93.5842 159.806 92.9018 157.316 93.0383C160.693 90.1725 162.024 90.1042 164.821 92.9701Z" fill="black"/>
<path d="M117.057 94.5735C116.955 94.5735 116.818 94.5735 116.716 94.5735C115.897 94.437 114.669 94.6758 114.6 93.4817C114.532 92.5264 115.59 92.4582 116.34 92.3217C116.784 92.2535 117.227 92.1512 117.637 92.0147C118.422 91.7759 119.24 91.5029 119.343 92.7311C119.411 93.6523 119.275 94.5735 118.012 94.5735C117.705 94.5735 117.364 94.5735 117.057 94.5735Z" fill="black"/>
<path d="M119.172 87.7159C119.309 89.2512 118.149 89.2171 117.227 89.4218C116.647 89.5582 116.102 89.4559 116.033 88.7053C115.931 87.6818 117.091 85.6689 117.739 85.7712C118.797 85.9418 118.933 86.8971 119.172 87.7159Z" fill="#F5C388"/>
<path d="M135.446 13.954C137.186 14.9434 138.483 16.274 138.994 18.8669C137.05 17.434 135.992 15.9328 134.798 14.534C134.9 14.261 135.139 14.0563 135.446 13.954Z" fill="#F5C388"/>
<path d="M119.002 65.642C118.763 67.109 118.763 68.3031 117.364 68.542C116.716 68.6443 115.931 68.0302 116.068 67.3137C116.375 65.949 117.603 66.0173 119.002 65.642Z" fill="#F5C388"/>
<path d="M104.877 79.596C104.024 79.5277 103.41 79.323 103.478 78.436C103.512 77.856 103.785 77.276 104.433 77.3442C105.218 77.4125 105.935 77.856 105.935 78.7772C105.969 79.5277 105.252 79.4254 104.877 79.596Z" fill="#F5C388"/>
<path d="M93.1406 66.3243C92.4924 66.3243 92.4583 65.8125 92.4583 65.4031C92.4583 64.7549 92.4583 63.936 93.3794 63.936C93.8912 63.936 94.5394 64.2431 94.4371 64.9937C94.3006 65.676 93.8912 66.1878 93.1406 66.3243Z" fill="#F5C388"/>
<path d="M111.803 93.1748C111.735 93.8571 111.632 94.5395 110.609 94.3348C110.131 94.2324 109.688 93.9254 109.653 93.4818C109.619 92.6971 110.199 92.2195 110.882 92.0489C111.632 91.9124 111.769 92.5607 111.803 93.1748Z" fill="#F5C388"/>
<path d="M132.069 17.161C132.478 17.5363 132.956 17.8434 133.331 18.2528C133.672 18.6622 134.218 19.2081 133.604 19.6857C133.092 20.061 132.58 19.5151 132.103 19.2422C131.591 18.5598 131.591 17.8434 132.069 17.161Z" fill="#F5C388"/>
<path d="M121.765 73.3184C121.663 73.7619 121.424 74.2054 120.98 74.2736C120.298 74.376 120.025 73.796 119.923 73.2842C119.82 72.8066 120.127 72.4654 120.673 72.4313C121.322 72.3631 121.731 72.6019 121.765 73.3184Z" fill="#F5C388"/>
<path d="M121.185 80.5854C121.253 81.2336 120.844 81.5066 120.298 81.7113C119.855 81.8819 119.411 81.8819 119.309 81.336C119.206 80.7219 119.616 80.3466 120.162 80.1419C120.605 79.9713 120.98 80.0737 121.185 80.5854Z" fill="#F5C388"/>
<path d="M88.5348 73.4549C88.4324 73.5572 88.296 73.9325 88.0571 74.0007C87.6477 74.1031 87.5454 73.6937 87.6136 73.4207C87.6818 73.1478 87.8865 72.8066 88.1254 72.7384C88.4665 72.636 88.7395 72.8407 88.5348 73.4549Z" fill="#F5C388"/>
<path d="M132.069 17.1611C132.069 17.8434 132.069 18.5258 132.103 19.2422C131.079 18.6964 131.284 17.8775 131.591 17.0587C131.762 16.6493 132.137 16.6152 131.864 16.9564C131.83 16.9564 132 17.0928 132.069 17.1611Z" fill="#F5C388"/>
<path d="M135.446 13.954C135.241 14.1587 135.003 14.3293 134.798 14.534C134.491 14.3975 134.184 14.1246 134.423 13.8517C134.73 13.374 135.105 13.7834 135.446 13.954Z" fill="#F5C388"/>
<path d="M90.1382 92.1171C90.0359 91.9465 89.8994 91.8101 89.8994 91.6395C89.9335 91.2983 90.1723 91.0936 90.5135 91.2642C90.6159 91.2983 90.6841 91.6395 90.6159 91.776C90.5135 91.9465 90.3088 92.0148 90.1382 92.1171Z" fill="#F5C388"/>
<path d="M88.6371 88.0912C88.7053 88.0912 88.8418 88.057 88.8759 88.1253C88.9442 88.1935 88.9783 88.33 88.9442 88.3982C88.8077 88.7053 88.6712 88.7053 88.5689 88.3641C88.5348 88.2959 88.603 88.1594 88.6371 88.0912Z" fill="#F5C388"/>
<path d="M103.273 61.8548C103.205 61.9231 103.137 61.9572 103.035 62.0254C102.966 61.8548 102.898 61.7184 102.864 61.5478C102.864 61.5137 103 61.4113 103.069 61.3772C103.137 61.5137 103.205 61.6843 103.273 61.8548Z" fill="#F5C388"/>
</g>
<defs>
<clipPath id="clip0">
<rect width="190" height="159.635" fill="white"/>
</clipPath>
</defs>
</svg>
