<svg width="36" height="36" viewBox="0 0 36 36" fill="none" xmlns="http://www.w3.org/2000/svg">
<path d="M34.6101 24.3682C34.6875 24.252 34.5714 24.1359 34.4552 24.2133C33.6422 24.6392 31.9388 25.2586 28.8416 25.2586C28.6867 25.2586 23.4215 25.2586 23.344 25.2586C23.1892 25.2586 23.1117 25.2586 23.073 25.1812C23.0343 25.1425 23.0343 25.0264 23.0343 24.9102V22.626C23.0343 22.5099 22.8794 22.4712 22.8407 22.5486C22.8407 22.5486 18.0401 28.3171 17.3432 29.1301C17.3045 29.2076 17.3045 29.285 17.3432 29.3237C18.0401 30.1755 22.802 35.944 22.802 35.944C22.8794 36.0214 23.0343 35.9827 23.0343 35.8666V33.505C23.0343 33.3501 23.073 33.2339 23.2666 33.2339C23.2666 33.2339 23.9635 33.2339 26.5187 33.2339C28.9964 33.2339 29.8482 32.5758 31.7065 29.4399L34.6101 24.3682Z" fill="black"/>
<path d="M35.3457 22.0066C35.7716 21.271 35.6942 20.3805 35.1134 19.4127L31.9388 13.8764C31.9001 13.8377 31.8227 13.799 31.7839 13.8377L24.9701 17.7479C24.9314 17.7866 24.8927 17.8641 24.9314 17.9028L28.4932 24.0972C28.5319 24.1359 28.5706 24.1746 28.6093 24.1746C31.2807 24.1746 34.4166 23.5552 35.3457 22.0066Z" fill="black"/>
<path d="M4.48982 30.3303C4.56725 30.4464 4.72211 30.4077 4.72211 30.2916C4.76082 29.3624 5.07054 27.5815 6.61915 24.9102C6.61915 24.8715 9.36792 20.187 9.36792 20.1482C9.44535 20.0321 9.48406 19.9547 9.56149 19.9547C9.63892 19.9547 9.71635 19.9934 9.8325 20.0321L11.807 21.1548C11.9231 21.1935 12.0005 21.1161 11.9618 21C11.9618 21 9.36792 13.9925 8.98077 12.9472C8.94205 12.8698 8.86462 12.8311 8.78719 12.8311C7.74188 13.0247 0.347302 14.2635 0.347302 14.2635C0.231157 14.2635 0.192442 14.4571 0.308587 14.4958L2.36049 15.6573C2.47663 15.7347 2.59278 15.8121 2.47663 16.0057C2.47663 16.0057 2.1282 16.5864 0.850598 18.8319C-0.426999 20.9613 -0.310854 22.0453 1.50875 25.1812L4.48982 30.3303Z" fill="black"/>
<path d="M6.15456 32.1499C6.58043 32.8855 7.35473 33.2727 8.51618 33.2727H14.9042C14.9816 33.2727 15.0203 33.2339 15.0203 33.1565V25.2974C15.0203 25.2199 14.9816 25.1812 14.9042 25.1812H7.78059C7.74188 25.1812 7.70316 25.2199 7.66445 25.2586C6.27071 27.5428 5.26411 30.5626 6.15456 32.1499Z" fill="black"/>
<path d="M14.4396 0.984283C14.3235 0.984283 14.2848 1.13914 14.3622 1.21657C15.1752 1.71987 16.5302 2.88132 18.0788 5.55266C18.0788 5.59138 20.8276 10.2759 20.8276 10.3146C20.905 10.4308 20.9437 10.5082 20.905 10.5856C20.8663 10.6631 20.8276 10.7018 20.6727 10.7792L18.6983 11.9019C18.5821 11.9406 18.6208 12.0955 18.737 12.1342C18.737 12.1342 26.1316 13.4118 27.1769 13.5667C27.2543 13.5667 27.3317 13.528 27.3705 13.4505C27.7576 12.4439 30.3902 5.3978 30.3902 5.3978C30.4289 5.28166 30.3128 5.16551 30.1967 5.24294L28.1448 6.40439C28.0286 6.48182 27.9125 6.52054 27.7963 6.32696C27.7963 6.32696 27.4479 5.70752 26.1703 3.50076C25.0088 1.41015 24.0022 0.984283 20.363 0.984283H14.4396Z" fill="black"/>
<path d="M12.0393 1.52631C11.1875 1.52631 10.4519 2.0296 9.87121 3.03619L6.69658 8.57245C6.65786 8.61117 6.69658 8.6886 6.73529 8.72731L13.5491 12.6375C13.5879 12.6762 13.6653 12.6375 13.704 12.5988L17.2658 6.40441C17.3045 6.36569 17.3045 6.32698 17.2658 6.28826C15.9495 3.92664 13.8589 1.56502 12.0393 1.52631Z" fill="black"/>
</svg>
