<svg width="74" height="59" viewBox="0 0 74 59" fill="none" xmlns="http://www.w3.org/2000/svg">
<path d="M4.10579 32.8888C4.10579 26.0157 8.79079 19.5803 14.8401 17.6496C16.0757 17.2635 16.7193 16.7229 17.2856 15.4616C18.7271 12.1409 21.0181 9.54096 24.8279 8.71722C26.0121 8.4598 27.0417 7.81626 27.9684 7.044C28.8951 6.29749 29.8218 5.49949 30.7228 4.75298C31.5208 4.10944 32.3703 3.51738 33.3227 3.10551C37.6473 1.20062 45.4728 3.15699 48.3559 6.88955C48.5619 7.14697 48.8965 7.45587 48.8965 7.73903C48.8708 10.0301 50.5182 10.931 52.2172 11.832C53.4271 12.4755 54.1478 13.4795 54.3795 14.8438C54.7656 17.0576 56.2329 18.2159 58.2923 18.7823C58.5497 18.8595 58.7814 18.9882 59.013 19.0397C61.9733 19.5803 64.2386 21.0733 65.7316 23.7247C67.4306 26.8137 68.383 30.0057 67.688 33.5838C67.3019 35.6174 66.3494 37.2649 64.6505 38.4747C63.3377 39.4272 61.8961 40.2767 61.0724 41.7439C60.7635 42.2588 60.3516 42.4132 59.811 42.4132C56.6705 42.439 54.0449 43.8805 51.5222 45.528C49.6688 46.7636 47.8668 48.0764 46.0649 49.3893C43.8254 51.011 41.3799 52.2466 38.8057 53.1733C36.2058 54.1257 33.6059 54.1772 31.006 53.1733C28.1229 52.0407 25.2398 50.908 23.4121 48.1794C22.7943 47.2527 21.7389 47.0982 20.7092 46.9438C18.444 46.6091 16.1272 46.5577 13.9649 45.5537C10.6957 43.9577 7.96706 41.8469 6.01068 38.8094C4.72359 36.8015 4.00282 34.6392 4.10579 32.8888Z" fill="#000081"/>
<path d="M67.3276 6.22024C67.3019 6.29746 67.3019 6.73507 67.096 6.91527C65.6802 8.27958 64.2644 9.6439 62.7713 10.9052C62.205 11.3943 61.3298 11.7805 60.712 10.9825C60.1199 10.236 60.2229 9.41222 61.0466 8.74293C62.6169 7.45584 63.7753 5.62818 65.8603 5.01037C66.9672 4.67573 67.3791 4.93315 67.3276 6.22024Z" fill="#0D0C87"/>
<path d="M73.6344 47.819C73.7631 48.4368 73.5057 48.6942 73.1968 48.8487C72.6562 49.1318 72.0126 49.312 71.4978 48.9516C70.2622 48.0764 68.7949 47.5101 67.7138 46.4032C67.2247 45.8884 66.8643 45.322 67.3019 44.5755C67.7138 43.9062 68.2801 44.1122 68.8722 44.2666C70.5711 44.6785 72.0126 45.528 73.0938 46.918C73.377 47.2269 73.5314 47.6388 73.6344 47.819Z" fill="#0B0986"/>
<path d="M68.5889 17.0833C67.9711 17.0575 67.5077 17.109 67.3018 16.6199C67.1216 16.1823 67.2503 15.7447 67.6107 15.4615C68.9493 14.3804 70.4423 13.5309 71.9868 12.8359C72.6561 12.527 73.5313 12.6042 73.8917 13.5824C74.2521 14.5863 73.66 14.9467 72.8878 15.2814C71.3948 15.8992 70.0562 16.9031 68.5889 17.0833Z" fill="#0D0D87"/>
<path d="M11.8283 6.8638C11.4422 6.8638 11.1076 6.83805 10.8244 6.58064C9.56306 5.31929 8.30172 4.05794 7.04037 2.79659C6.6285 2.38472 6.60276 1.8184 6.80869 1.38079C7.09185 0.814475 7.70966 0.968926 8.17301 1.14912C10.3611 1.94711 11.8541 3.51736 12.755 5.65393C13.1927 6.60638 12.5491 6.78657 11.8283 6.8638Z" fill="#0A0785"/>
<path d="M6.26808 58.2444C5.57306 58.2701 5.21267 57.9098 4.92951 57.4721C4.59487 56.9573 4.69783 56.4425 5.16119 56.1078C6.5255 55.0782 7.91556 54.0742 9.33136 53.096C9.79471 52.7871 10.3868 52.8129 10.7214 53.2762C11.1333 53.8425 11.3907 54.6405 10.8244 55.1296C9.58878 56.185 8.22446 57.086 6.91163 58.0127C6.67995 58.1672 6.42254 58.1929 6.26808 58.2444Z" fill="#0D0B86"/>
<path d="M64.8822 53.6881C64.8822 54.1 64.599 54.3059 64.2901 54.4089C63.698 54.5891 63.003 54.6921 62.5654 54.2802C61.3298 53.1218 60.1971 51.8605 59.0903 50.5991C58.7813 50.2645 58.9873 49.8011 59.2447 49.415C59.5279 48.9774 60.0942 48.9002 60.3773 49.1061C62.102 50.316 63.9297 51.4229 64.8564 53.4307C64.8822 53.5079 64.8564 53.6109 64.8822 53.6881Z" fill="#131189"/>
<path d="M6.73138 12.0637C6.65415 12.6042 6.1908 12.7072 5.80467 12.7844C4.67203 13.0418 1.14541 10.9825 0.785021 9.82412C0.527603 9.02612 0.939472 8.51128 1.73747 8.40832C3.30772 8.20238 6.06209 10.03 6.60267 11.6003C6.65415 11.729 6.67989 11.9092 6.73138 12.0637Z" fill="#110F88"/>
<path d="M4.3117 45.9141C4.49189 45.9398 5.10969 45.6824 5.2384 46.4289C5.31563 46.8923 5.08395 47.2269 4.67208 47.4586C3.79686 47.9477 2.92164 48.514 2.02068 48.9259C1.19694 49.312 0.476169 49.0031 0.141525 48.1794C-0.21886 47.3299 0.115784 46.6864 1.06823 46.4804C2.04642 46.223 2.99886 45.8626 4.3117 45.9141Z" fill="#120F89"/>
<path d="M45.164 28.6414C46.6312 28.075 48.1243 28.1008 49.4371 27.38C51.8568 26.0414 53.6588 24.1108 54.5082 21.4851C54.8944 20.2495 55.5379 20.1208 56.5933 20.3782C60.017 21.1248 62.4882 23.0554 63.7753 26.3503C64.1099 27.2256 64.2386 28.178 64.5475 29.0532C65.9376 33.1719 64.007 36.1322 61.2268 38.8351C60.8665 39.1955 60.4288 39.6331 59.9655 39.6846C57.6745 39.9677 55.7953 41.641 53.3241 41.4608C51.9083 41.3578 50.7757 42.439 50.0034 43.5973C48.8965 45.2191 47.5322 46.4032 45.5501 46.7636C44.3145 46.9953 43.4393 47.8705 42.4868 48.5912C38.3939 51.7317 34.198 52.6842 28.5862 48.5398C25.5487 46.3002 22.331 44.9874 18.6242 44.1894C12.6521 42.8766 8.43042 39.1183 6.65424 33.0432C6.24237 31.6017 6.24237 30.1344 6.73147 28.7443C8.25023 24.4712 10.567 20.9188 15.1233 19.3486C15.947 19.0654 16.4619 19.1426 16.5133 20.1466C16.6678 25.5009 20.7093 28.1265 26.2695 28.7701C26.6814 28.8215 27.119 28.8215 27.2992 28.8215C27.7625 28.976 27.814 29.1047 27.7625 29.2849C27.5566 30.0057 27.0675 30.8552 27.917 31.37C28.715 31.8591 29.3328 31.0611 29.9248 30.6235C30.2595 30.3661 30.4911 29.9799 30.8 29.671C33.1683 27.0711 36.3088 26.5563 39.3978 28.2552C40.9166 29.079 42.1264 30.3146 43.3106 31.5759C43.8254 32.1422 44.2373 32.8373 45.2154 32.2709C46.2194 31.7046 46.0649 30.8809 45.7818 30.0314C45.6273 29.5681 45.3699 29.1305 45.164 28.6414Z" fill="#83FF00"/>
<path d="M26.5784 27.0196C23.7983 26.9424 21.3271 24.7286 18.9846 22.2831C18.7787 22.0515 18.7015 21.6911 18.65 21.3564C17.646 14.818 24.4161 8.76869 30.7744 10.5449C32.5505 11.034 34.0693 11.9607 35.0732 13.5824C35.7168 14.6378 36.1029 15.719 35.8712 16.9803C35.7168 17.8298 35.691 18.6793 35.6138 19.5288C35.2534 23.9049 31.804 27.0711 26.5784 27.0196Z" fill="white"/>
<path d="M38.2136 20.1208C38.2908 19.1426 38.4196 18.1387 38.4196 17.109C38.471 14.7665 41.4828 12.1409 43.954 11.7805C46.6312 11.3944 49.9004 12.4755 51.2647 14.5349C53.4785 17.8556 53.3755 19.7862 50.8014 22.8752C49.2054 24.8058 47.5322 26.5048 44.8293 26.9424C42.4095 27.3543 40.7363 26.0929 38.9344 24.9345C38.471 24.6256 38.4453 24.0336 38.4196 23.5187C38.3423 22.4118 38.2908 21.305 38.2136 20.1208Z" fill="#FEFEFF"/>
<path d="M29.9506 7.66181C32.8851 6.16878 34.9445 4.34111 38.0077 4.85595C40.9423 5.34504 43.5165 6.37472 45.9877 8.61425C44.5719 8.9489 43.4907 9.18057 42.4611 9.46373C40.8651 9.8756 39.2948 10.339 38.3939 11.9092C37.982 12.6557 37.4672 12.5785 36.9523 12.1151C36.3088 11.5488 35.7167 10.931 35.1247 10.3132C33.8633 8.92315 32.3703 7.99645 29.9506 7.66181Z" fill="#81FD01"/>
<path d="M57.4428 34.8451C56.825 33.764 57.417 32.6828 56.9794 31.7304C56.1557 31.4987 55.8983 32.1937 55.5121 32.5541C52.6033 35.36 49.7717 38.2173 46.4253 40.5083C43.2848 42.6706 39.9641 44.4211 36.0256 44.5755C33.2197 44.6785 30.5683 44.1637 28.2773 42.3875C26.5784 41.0746 24.5705 40.2252 22.6399 39.3499C19.6538 37.9856 16.7707 36.5441 14.8658 33.6868C14.4025 32.966 13.7075 32.4254 12.8322 32.2195C12.7035 32.3224 12.4976 32.4254 12.4976 32.5284C12.3174 33.764 11.5709 34.562 10.4125 34.0471C9.4858 33.6353 9.40858 32.271 9.82045 31.5244C11.0046 29.3621 12.3689 27.2256 15.0203 26.5048C15.3549 26.4276 15.6896 26.4018 16.05 26.4018C16.5133 26.4018 16.8994 26.5048 17.0281 27.0196C17.1569 27.5087 16.9509 27.7919 16.5133 28.0493C15.844 28.4097 14.9945 28.4097 14.4797 29.2077C15.844 31.5244 17.8004 33.2749 19.9885 34.8451C22.5112 36.6471 25.2913 37.9856 28.0971 39.2727C29.7446 40.0192 31.3921 40.7143 32.9881 41.5637C34.79 42.5162 36.5662 42.5934 38.4196 41.8212C40.0928 41.1261 41.7145 40.3281 43.1818 39.2985C45.9877 37.3163 48.7678 35.3085 51.5479 33.3006C52.3202 32.7343 53.0152 32.1165 53.5558 31.3185C54.0191 30.5977 54.5082 29.9799 53.2211 29.3364C52.3459 28.8988 52.6805 27.8948 53.7617 27.4572C55.8983 26.582 58.4467 27.7919 59.6823 30.2116C60.8407 32.6056 60.3516 33.764 57.4428 34.8451Z" fill="#010181"/>
<path d="M28.5348 18.7823C28.509 17.2635 29.307 15.6932 30.1308 15.6418C31.0317 15.5903 32.1386 16.9288 32.3961 18.3704C32.6277 19.7604 31.7268 21.1505 30.5684 21.1762C29.41 21.2277 28.5605 20.2238 28.5348 18.7823Z" fill="#111089"/>
<path d="M41.277 19.3486C41.3799 18.3446 42.2037 17.2377 42.8987 16.1051C43.4393 15.2299 44.263 15.8477 44.958 16.0794C45.7303 16.311 46.0649 16.7744 45.8075 17.6239C45.5244 18.5248 45.3442 19.4258 45.0868 20.3268C44.7264 21.5881 43.568 22.4633 42.5641 22.2831C41.8175 22.1029 41.2512 20.996 41.277 19.3486Z" fill="#090885"/>
</svg>
