<?xml version="1.0" encoding="utf-8"?>
<!-- Generator: Adobe Illustrator 17.1.0, SVG Export Plug-In . SVG Version: 6.00 Build 0)  -->
<!DOCTYPE svg PUBLIC "-//W3C//DTD SVG 1.1//EN" "http://www.w3.org/Graphics/SVG/1.1/DTD/svg11.dtd">
<svg version="1.1" xmlns="http://www.w3.org/2000/svg" xmlns:xlink="http://www.w3.org/1999/xlink" x="0px" y="0px"
	 viewBox="0 0 1920 1080" enable-background="new 0 0 1920 1080" xml:space="preserve">
<g id="Calque_2">
</g>
<g id="Calque_1">
	<g>
		<g>
			<g>
				<path fill="#8FBE21" d="M1895,745.4c-6.5-33.4-5.7-68.6-14.5-99.1c-7.1-23.6-14.3-47.1-21.4-70.7c-6.8-24.1-9.6-46.4-16.1-71.2
					c-3.2-9.3-6.4-18.6-9.6-27.8c-0.5-5.2-1.1-10.4-1.6-15.5c-8.6-26.3-16.2-57.3-23-84.6c-3.5-13.9-3.1-25.7-6.4-38
					c-3.4-8.6-6.8-17.1-10.2-25.7c-5-16.4-7.9-30.7-14.5-46.1c-5.4-10.7-10.7-21.4-16.1-32.1c-3.8-10.5-12.4-39.5-19.8-45
					c-10.9-8.1-41.3-4.9-55.7-6.4c-7.4-0.8-16.3-6.1-24.6-8c-6.4-1.5-14.2,0.1-19.3,1.1c-14.6-0.2-29.3-0.4-43.9-0.5
					c-13.4,2.1-33.1,5.1-43.4,11.2c-32.8,19.6-68.4,79.6-80.9,120.5c-6.5,21.4-15.1,40.2-19.8,61.6c-2.3,10.7-2.1,30.5-10.2,35.3
					c-1.4,0-2.9,0-4.3,0c-4.1-10.7-8.2-21.4-12.3-32.1c-10.8-20.9-25-42.3-39.1-60.5c-13.2-17.1-34.1-28.7-51.9-41.2
					c-18.4-13-36.4-29.2-55.7-41.2c-9.6-4.1-19.3-8.2-28.9-12.3c-34.1-15-81-33.2-128.5-23.6c-1.1-0.5-2.1-1.1-3.2-1.6
					c-3.7-6.8-3.1-15.8-5.4-24.1c-3.4-9.6-6.8-19.3-10.2-28.9C1089,105.4,1045,74.1,996.9,92c-18.9,7-36.3,28.5-58.9,28.4
					c-24.9-22.4-50.9-43.2-99.1-42.3c-8.1,3.3-16.9-1-25.7,0.5c-10.1,1.8-32.1,6.4-40.2,11.2c-29.7,18.1-43.6,80-35.9,129.6
					c1.9,12.3,1.3,23.5,5.4,33.7c4.5,11.3,14.2,25.9,23.6,32.7c6.4,4.7,20.5,6.1,23,14.5c0.8,4.9-13.3,22-16.1,27.8
					c-0.9,3.7-1.8,7.5-2.7,11.2c-5.3,13.4-39.1,71.5-49.3,76.6c-1.9,0.7-2.9,0-4.8-0.5c-4.8-8.1-2.9-20.4-7-30.5
					c-10.5-17.5-21.1-35-31.6-52.5c-12-16.8-29.1-26.7-44.5-40.2c-13.2-11.6-21.5-29.1-35.9-39.6c-5.9-4.3-12-6-19.3-9.1
					c-8.2-4.5-16.4-8.9-24.6-13.4c-8.4-3.5-16.7-2.1-26.2-5.9c-18.5-7.4-30.2-14.4-34.3-13.4c-7.7-1.6-15.4-3.2-23-4.8
					c-4.1,0-8.2,0-12.3,0c-3.7-1.6-7.5-3.2-11.2-4.8c-27.7-6.4-71.2-2.3-95.9,5.4c-31.1,9.6-45.7,32.4-63.7,55.2
					c-7.9,7.3-15.7,14.6-23.6,22c-9.6,13.6-19.3,27.1-28.9,40.7c-43.5,56-82.3,116.6-119.4,179.4c-7.9,17-15.7,33.9-23.6,50.9
					c-5.6,10.9-14.7,20.7-19.8,32.7c-10.5,24.5-16.7,46.6-24.1,76c-3.2,13-7.1,30.3-9.6,43.9c-0.7,18.4-1.4,36.8-2.1,55.2
					c-2.5,15.3-1.7,32.1-1.6,47.7c0,7.1,0,14.3,0,21.4c2.5,7.1,5,14.3,7.5,21.4c9.8,31.1,18.5,74.5,40.7,92.1
					c8.3,6.5,15.1,14.9,23.6,20.9c13.9,6.6,27.9,13.2,41.8,19.8c38.5,14,93.7,22.2,139.8,10.7c20-5,43.6-13.1,62.7-18.7
					c23.4-6.9,44.2-12,65.3-21.4c4.8-3.2,9.6-6.4,14.5-9.6c18.1-8.1,35.9-14.2,52.5-24.1c15-8.9,30.3-19.9,45.5-28.9
					c4.8-2,9.6-3.9,14.5-5.9c3.7-3.4,7.5-6.8,11.2-10.2c1.7-1.3,2.6-1,4.3,0.5c5.2,3.3,2.3,15.6,4.3,22c3.3,10.6,13.2,27.5,23,31.6
					c13.6,5.7,46.8,2.4,59.4-1.1c40.6-11.3,93.6-16.4,137.6-24.1c7.7,0.4,15.4,0.7,23,1.1c20.4-3.7,39.9-2.7,55.2-11.8
					c17-10,20.6-31.7,33.7-42.8c10,1.6,32.8,31.6,41.8,38.6c12.9,10,28.9,13.7,48.7,17.1c9.6,1.7,20.7-1.7,27.8-3.2
					c10.5-2.2,22.7-1.7,31.6-3.2c12.7-2.2,22.9,0.1,33.7-3.2c16.1-4.9,30.9-14.8,45.5-20.9c20.1-8.4,38.4-14.8,56.2-25.2
					c12.7-8.6,25.4-17.1,38-25.7c6.1-2.9,12.1-5.7,18.2-8.6c13-8.4,27.4-15.7,40.7-24.1c5.7-3.6,11.2-10.8,18.2-12.3
					c1.8,1,2.3,1.3,3.2,3.2c0.9,2.8-0.6,5.4-1.1,8c-2.3,12.1-2.4,43.9,2.7,51.4c7.6,11.3,23.4,13.4,40.2,16.1
					c4.8-0.2,9.6-0.4,14.5-0.5c9.6,1.8,22.2,4.9,34.3,2.1c11.9-2.7,23-9.3,37-11.8c24.1-4.3,54.8-2.3,66.9-18.7
					c14.8-20,4.8-51.5,29.5-66.4c21-12.7,51.4-14.6,80.3-19.3c18.8-3.1,58.3,4.6,69.1,11.2c5.6,3.5,11.7,11.4,15,17.1
					c13.8,24.3,4.2,49,35.9,57.8c15.4,4.3,31.6-1.2,48.7,1.6c10.8,1.8,24.3,1.8,35.9,0c6.8,0.2,13.6,0.4,20.4,0.5
					c32.3-5.6,55.4-15.8,67.5-41.2C1900.9,780,1898,760.5,1895,745.4z M457.6,531.7c-11.4,43-21.4,75.1-54.6,95.9
					c-10.1,6.3-35,16-49.8,6.4c-25.4-16.4-19.1-41.1-4.8-63.7c5.7-8,11.4-16.1,17.1-24.1c4.5-4.3,8.9-8.6,13.4-12.9
					c12.3-17.1,20.5-38.2,37.5-50.3c8.5-6.1,18.4-8.3,28.4-13.4c2.1,0.2,4.3,0.4,6.4,0.5C462.5,474.3,461.6,516.8,457.6,531.7z
					 M1198.3,555.8c-1.1,9.1-2.1,18.2-3.2,27.3c-8.9,30-27.4,49.1-50.9,64.8c-9.8,6.5-24.1,20.8-44.5,15.5
					c-16.7-4.3-6.7-51-3.7-66.4c2.7-13.8,1.2-30.3,4.3-44.5c5.6-25.3,15.1-49.1,22-71.8c7.8-25.5,4.6-41.4,27.3-53
					C1206.9,429.9,1208.1,503.4,1198.3,555.8z M1649.8,528.5c-4.4,5.9-9.9,5-18.7,7c-5.5,1.2-14,5.9-21.4,3.7
					c-3.2-1.6-6.4-3.2-9.6-4.8c-10.1-2.4-16.3,0.3-20.9-7c-4.3-6.8,1.7-20.3,3.7-25.7c7.9-20.7,16.1-50,31.6-63.7
					c23.8-0.2,30.3,37.6,35.9,57.8C1653.2,506.2,1656.3,519.7,1649.8,528.5z"/>
			</g>
			<g>
				<g>
					<path fill="#040505" d="M1895,745.4c-6.5-33.4-5.7-68.6-14.5-99.1c-7.1-23.6-14.3-47.1-21.4-70.7c-6.8-24.1-9.6-46.4-16.1-71.2
						c-3.2-9.3-6.4-18.6-9.6-27.8c-0.5-5.2-1.1-10.4-1.6-15.5c-8.6-26.3-16.2-57.3-23-84.6c-3.5-13.9-3.1-25.7-6.4-38
						c-3.4-8.6-6.8-17.1-10.2-25.7c-5-16.4-7.9-30.7-14.5-46.1c-5.4-10.7-10.7-21.4-16.1-32.1c-3.8-10.5-12.4-39.5-19.8-45
						c-10.9-8.1-41.3-4.9-55.7-6.4c-7.4-0.8-16.3-6.1-24.6-8c-6.4-1.5-14.2,0.1-19.3,1.1c-14.6-0.2-29.3-0.4-43.9-0.5
						c-13.4,2.1-33.1,5.1-43.4,11.2c-32.8,19.6-68.4,79.6-80.9,120.5c-6.5,21.4-15.1,40.2-19.8,61.6c-2.3,10.7-2.1,30.5-10.2,35.3
						h-4.3c-4.1-10.7-8.2-21.4-12.3-32.1c-10.8-20.9-25-42.3-39.1-60.5c-13.2-17.1-34.1-28.7-51.9-41.2
						c-18.4-13-36.4-29.2-55.7-41.2c-9.6-4.1-19.3-8.2-28.9-12.3c-34.1-15-81-33.2-128.5-23.6l-3.2-1.6c-3.7-6.8-3.1-15.8-5.4-24.1
						c-3.4-9.6-6.8-19.3-10.2-28.9C1089,105.4,1045,74.1,996.9,92c-18.9,7-36.3,28.5-58.9,28.4c-24.9-22.4-50.9-43.2-99.1-42.3
						c-8.1,3.3-16.9-1-25.7,0.5c-10.1,1.8-32.1,6.4-40.2,11.2c-29.7,18.1-43.6,80-35.9,129.6c1.9,12.3,1.3,23.5,5.4,33.7
						c4.5,11.3,14.2,25.9,23.6,32.7c6.4,4.7,20.5,6.1,23,14.5c0.8,4.9-13.3,22-16.1,27.8c-0.9,3.7-1.8,7.5-2.7,11.2
						c-5.3,13.4-39.1,71.5-49.3,76.6c-1.9,0.7-2.9,0-4.8-0.5c-4.8-8.1-2.9-20.4-7-30.5c-10.5-17.5-21.1-35-31.6-52.5
						c-12-16.8-29.1-26.7-44.5-40.2c-13.2-11.6-21.5-29.1-35.9-39.6c-5.9-4.3-12-6-19.3-9.1c-8.2-4.5-16.4-8.9-24.6-13.4
						c-8.4-3.5-16.7-2.1-26.2-5.9c-18.5-7.4-30.2-14.4-34.3-13.4c-7.7-1.6-15.4-3.2-23-4.8h-12.3c-3.7-1.6-7.5-3.2-11.2-4.8
						c-27.7-6.4-71.2-2.3-95.9,5.4c-31.1,9.6-45.7,32.4-63.7,55.2c-7.9,7.3-15.7,14.6-23.6,22c-9.6,13.6-19.3,27.1-28.9,40.7
						c-43.5,56-82.3,116.6-119.4,179.4c-7.9,17-15.7,33.9-23.6,50.9c-5.6,10.9-14.7,20.7-19.8,32.7c-10.5,24.5-16.7,46.6-24.1,76
						c-3.2,13-7.1,30.3-9.6,43.9c-0.7,18.4-1.4,36.8-2.1,55.2c-2.5,15.3-1.7,32.1-1.6,47.7v21.4c2.5,7.1,5,14.3,7.5,21.4
						c9.8,31.1,18.5,74.5,40.7,92.1c8.3,6.5,15.1,14.9,23.6,20.9c13.9,6.6,27.9,13.2,41.8,19.8c38.5,14,93.7,22.2,139.8,10.7
						c20-5,43.6-13.1,62.7-18.7c23.4-6.9,44.2-12,65.3-21.4c4.8-3.2,9.6-6.4,14.5-9.6c18.1-8.1,35.9-14.2,52.5-24.1
						c15-8.9,30.3-19.9,45.5-28.9c4.8-2,9.6-3.9,14.5-5.9c3.7-3.4,7.5-6.8,11.2-10.2c1.7-1.3,2.6-1,4.3,0.5c5.2,3.3,2.3,15.6,4.3,22
						c3.3,10.6,13.2,27.5,23,31.6c13.6,5.7,46.8,2.4,59.4-1.1c40.6-11.3,93.6-16.4,137.6-24.1c7.7,0.4,15.4,0.7,23,1.1
						c20.4-3.7,39.9-2.7,55.2-11.8c17-10,20.6-31.7,33.7-42.8c10,1.6,32.8,31.6,41.8,38.6c12.9,10,28.9,13.7,48.7,17.1
						c9.6,1.7,20.7-1.7,27.8-3.2c10.5-2.2,22.7-1.7,31.6-3.2c12.7-2.2,22.9,0.1,33.7-3.2c16.1-4.9,30.9-14.8,45.5-20.9
						c20.1-8.4,38.4-14.8,56.2-25.2c12.7-8.6,25.4-17.1,38-25.7c6.1-2.9,12.1-5.7,18.2-8.6c13-8.4,27.4-15.7,40.7-24.1
						c5.7-3.6,11.2-10.8,18.2-12.3c1.8,1,2.3,1.3,3.2,3.2c0.9,2.8-0.6,5.4-1.1,8c-2.3,12.1-2.4,43.9,2.7,51.4
						c7.6,11.3,23.4,13.4,40.2,16.1c4.8-0.2,9.6-0.4,14.5-0.5c9.6,1.8,22.2,4.9,34.3,2.1c11.9-2.7,23-9.3,37-11.8
						c24.1-4.3,54.8-2.3,66.9-18.7c14.8-20,4.8-51.5,29.5-66.4c21-12.7,51.4-14.6,80.3-19.3c18.8-3.1,58.3,4.6,69.1,11.2
						c5.6,3.5,11.7,11.4,15,17.1c13.8,24.3,4.2,49,35.9,57.8c15.4,4.3,31.6-1.2,48.7,1.6c10.8,1.8,24.3,1.8,35.9,0
						c6.8,0.2,13.6,0.4,20.4,0.5c32.3-5.6,55.4-15.8,67.5-41.2C1900.9,780,1898,760.5,1895,745.4z M947.6,198
						c2.9-15.5,6-29.9,5.9-48.7c8.8-10.1,33.4-24,46.6-29.5c7.1-2,14.3-3.9,21.4-5.9c41.2-0.4,80.1,49.8,68.6,94.8
						c-5.1,19.8-22.9,42.8-36.4,55.2c-1.2-0.4-2.5-0.7-3.7-1.1c-6.1-3.1-4.1-11.3-7.5-17.1c-3.9-4.3-7.9-8.6-11.8-12.9
						c-11.7-8.9-60.6-9.9-80.9-9.6c-1.4-1.6-2.9-3.2-4.3-4.8C943.2,214.7,946.6,203.9,947.6,198z M778.4,124.6
						c7.7-10.8,24.8-13.7,40.2-16.6c6.4-0.5,12.9-1.1,19.3-1.6c41.9-0.3,83,21.7,89.4,56.2c2.7,14.3-4.9,30.1-8,39.6
						c-1.4,7.3-2.9,14.6-4.3,22c-5.2,7-20.1,6-30.5,8c-5.5,2.1-11.1,4.3-16.6,6.4c-9.3,2.3-18.6,4.6-27.8,7
						c-17.1,6.5-21.9,20.6-35.3,30C752,269.6,752.6,160.9,778.4,124.6z M569.5,824.6c-12.9,16.1-28.7,33-45.5,45
						c-8.4,3.7-16.8,7.5-25.2,11.2c-45.5,27-89,50.9-145.7,68c-29.4,8.9-59.3,19-92.7,25.2c-6.4-0.5-12.9-1.1-19.3-1.6
						c-14.3-0.5-28.6-1.1-42.8-1.6c-7.1-2.3-14.3-4.6-21.4-7c-5.5-0.9-11.1-1.8-16.6-2.7c-21.3-8-49.7-22.4-62.1-39.1
						C79.6,897,65.5,858.5,58.6,823c-3.6-18.9,1.2-52.8,3.7-68.6c1.2-24.3,2.5-48.6,3.7-72.8c2.7-12.5,7.1-22.8,10.2-37
						c6.6-30,22.3-51.6,33.2-76.6c15-34.2,32.1-65.1,50.3-96.4c5.2-6.8,10.4-13.6,15.5-20.4c6.1-10.2,9.3-19.6,15.5-29.5
						c2.9-3.2,5.7-6.4,8.6-9.6c11.5-16.4,21-33.6,33.2-49.3c4.1-4.5,8.2-8.9,12.3-13.4c28.9-43.4,65.1-90.7,110.9-116.8
						c13.6-7.8,37.9-5.7,55.7-8.6c4.8-0.2,9.6-0.4,14.5-0.5c13.4,0.9,24.7,6,37,9.1c41.4,10.4,85,17.1,115.1,39.1
						c15.7,11.5,25.7,28.8,40.7,40.7c10,7.9,22.6,14.6,30.5,24.6c9.1,11.5,15.1,24,23,37c3.9,6.3,9.5,11.8,12.3,19.3
						c20,52.7,6.2,136.6-4.8,189.6c-3.9,18.7-3.3,38.4-8.6,55.7c-9.6,31.9-20.8,57-32.7,84.6c-6,14.1-9.9,28.4-17.7,40.7
						c-9.5,15-21.3,28.6-32.1,42.3C582.4,812.5,576,818.5,569.5,824.6z M902.7,629.1c-7.8,30.8-12.5,65.3-18.2,98
						c-2.4,13.8,0.4,28.8-2.1,44.5c-5.7,34.6-4.6,56-19.8,80.9c-3.6,5.9-5.4,12.1-10.7,16.1c-23.3,17.6-92.6,8.9-128,17.7
						c-28.5,7.1-62.4,11.6-90,18.2c-7.9,1.9-26.6,6.7-35.9,2.7c-18.9-8.2-7.1-35.3-3.2-49.8c0.2-5,0.4-10,0.5-15
						c2.5-10.1,24.5-28,31.1-36.4c5.8-7.4,7.9-16.7,12.9-25.2c10.8-18.5,21.4-33.4,28.9-56.8c2.7-8.3,6.7-13.4,9.6-20.4
						c5.2-12.5,7-23.6,11.2-38c3-7.3,6.1-14.6,9.1-22c0.2-6.4,0.4-12.9,0.5-19.3c5.9-30.3,11.8-60.7,17.7-91
						c2.8-15.9-0.9-33.8,3.2-48.2c2.9-4.5,5.7-8.9,8.6-13.4c5.1-12.3,4.9-24.8,11.2-35.3c5.5-5.9,11.1-11.8,16.6-17.7
						c3-5.7,6.1-11.4,9.1-17.1c4.8-7,9.6-13.9,14.5-20.9c14.7-28.6,27.9-55.9,45.5-80.9c4.5-6.4,7.2-16.8,13.4-21.4
						c7.2-5.4,17.8-6.7,27.3-9.6c6.6-2.9,13.2-5.7,19.8-8.6c12-2.3,23.9-4.6,35.9-7c12.1-0.9,24.3-1.8,36.4-2.7
						c20.1,0.2,49.3,1,61.6,10.2c3.9,18.3-19.5,50.4-27.3,63.7c-10.3,17.6-13.6,39-19.8,60.5c-5.9,20.6-13.3,43.4-18.7,65.3
						c-9.7,38.8-19.9,74.1-31.6,111.4c-5,13-10,26.1-15,39.1C905.5,610.2,904.1,619.7,902.7,629.1z M1273.3,767.8
						c-7.1,5-16.3,6.5-24.1,11.2l-15,11.2c-14.6,8-29.3,16.1-43.9,24.1c-37.9,22.6-84.6,48.9-132.3,60.5
						c-10.1,2.5-18.4-2.5-29.5-0.5c-15.4,2.7-35.8,9.2-53.6,4.3c-25.5-7.1-51.6-28.9-58.9-54.1c-2.8-9.6,0.8-21.6-1.6-32.7
						c-1.8-4.1-3.6-8.2-5.4-12.3c-2.1-10.6,1.5-34.8,3.2-43.9c0.2-5.5,0.4-11.1,0.5-16.6c4-21.3,7.2-40.5,11.8-63.2
						c14-69.7,36.7-128.8,54.6-194.9c15.9-58.9,26-116.5,56.2-160.7c5.2-7.7,17.6-6.4,26.8-10.2c5.8-2.4,12.8-8.2,16.6-12.9
						c5.9-7.9,11.8-15.7,17.7-23.6c7.1-11.9,11.4-27,22.5-34.8c2.9-1.1,5.7-2.1,8.6-3.2c79.9-0.1,132.7,32.4,178.9,66.4
						c17.5,12.5,35,25,52.5,37.5c20.9,16.8,43.3,58.5,54.6,85.7c3.9,9.4,17.7,51.2,15.5,63.2c-3.6,20.3-7.3,43.9-11.2,63.7v14.5
						c-2,8-3.9,16.1-5.9,24.1c-0.9,6.6-1.8,13.2-2.7,19.8c-23.5,62.1-52.3,103.8-98.5,143C1297.9,744.5,1287.3,757.9,1273.3,767.8z
						 M1876.8,786.6c-10.1,24.7-67.5,21.4-101.2,21.4c-14.3,0-29,3-42.3,0c-19.6-4.4-19.2-26.6-26.2-43.4
						c-5.4-8.7-10.7-17.5-16.1-26.2c-12.6-16.7-85.7-20.7-115.1-15.5c-34.9,6.2-72.9,16.5-88.4,41.8c-6.3,10.3-9,42.8-16.6,49.3
						c-10.8,9.2-29.5,7-46.6,10.2c-18.1,3.3-29.9,9.5-48.2,12.9c-6.2-1.1-12.5-2.1-18.7-3.2c-10.9-0.6-21.4,0.8-29.5-2.7
						c-13.4-5.8-7.4-41.9-3.7-54.1c3.4-10.2,6.8-20.4,10.2-30.5c8.7-8.7,17.5-17.5,26.2-26.2c12.8-12.8,23.8-27.1,33.7-42.8
						c7.9-12.7,15.7-25.4,23.6-38c3.2-10.2,6.4-20.4,9.6-30.5c2.9-6.4,5.7-12.9,8.6-19.3c0.2-4.8,0.4-9.6,0.5-14.5
						c3.7-16.4,6.6-34.4,9.6-52.5V507c13.7-63.2,24.8-130.4,47.1-185.3c7.8-19.2,11.3-39.7,21.4-56.8c6.5-10.9,16-20.2,23.6-30
						c3.4-4.5,6.8-8.9,10.2-13.4c7.2-5.9,19-15.7,28.4-18.2c18.2-1.8,36.4-3.6,54.6-5.4c26.9-0.1,49.2,2.5,71.8,7.5
						c9.3,2,18.3-4.5,25.7,0.5c7.4,4.9,9.6,21,13.4,29.5c6.6,14.9,15.2,30.6,21.4,46.1c2.9,9.6,5.7,19.3,8.6,28.9
						c15,38.1,22.4,83.4,32.7,126.9c5.4,23,15,48.3,20.4,71.2c3.4,14.5,3.3,25.9,7,39.6c10.2,37.5,19.5,74.9,31.1,111.9
						c8.7,27.6,6.9,60.3,12.3,90.5C1877.6,760.8,1880.7,777.2,1876.8,786.6z M1143.1,401c-11.3,5.4-29.3,16.6-34.3,27.3
						c-0.4,4.5-0.7,8.9-1.1,13.4c-2,9.2-4.5,19.2-7.5,30c-3.1,11.3-8.6,22-12.3,31.6c-4.3,16.2-8.6,32.5-12.9,48.7
						c-0.4,7.5-0.7,15-1.1,22.5c-1.6,10-3.2,20-4.8,30c-7.9,36-10.7,78,23.6,86.2c29.8,7.1,55.8-13.2,69.6-23.6
						c27.3-20.6,49.6-44,60-81.4c1.6-12.9,3.2-25.7,4.8-38.6C1239.9,475.2,1212.5,402.2,1143.1,401z M1198.3,555.8
						c-1.1,9.1-2.1,18.2-3.2,27.3c-8.9,30-27.4,49.1-50.9,64.8c-9.8,6.5-24.1,20.8-44.5,15.5c-16.7-4.3-6.7-51-3.7-66.4
						c2.7-13.8,1.2-30.3,4.3-44.5c5.6-25.3,15.1-49.1,22-71.8c7.8-25.5,4.6-41.4,27.3-53C1206.9,429.9,1208.1,503.4,1198.3,555.8z
						 M1669.6,473.3c-7.8-25.8-27.1-62.7-60-62.7c-22.1,14.1-23.6,26.9-34.3,51.9c-6.3,14.8-15.9,30-19.8,47.7
						c-0.2,5.7-0.4,11.4-0.5,17.1c-3.8,23,14.3,24.8,29.5,31.1c6.6,2.7,18.1,8.1,28.9,5.9c25.6-5.2,49.1-3.6,58.4-25.2
						c7.1-16.4,2.8-34.8-1.1-50.3C1670.3,483.6,1669.9,478.5,1669.6,473.3z M1649.8,528.5c-4.4,5.9-9.9,5-18.7,7
						c-5.5,1.2-14,5.9-21.4,3.7l-9.6-4.8c-10.1-2.4-16.3,0.3-20.9-7c-4.3-6.8,1.7-20.3,3.7-25.7c7.9-20.7,16.1-50,31.6-63.7
						c23.8-0.2,30.3,37.6,35.9,57.8C1653.2,506.2,1656.3,519.7,1649.8,528.5z M447.4,442.2c-6.1,1.4-12.1,2.9-18.2,4.3
						c-4.1,2.9-8.2,5.7-12.3,8.6c-6.4,3-12.9,6.1-19.3,9.1c-13.1,9.7-25.5,33.7-35.3,47.7c-15.2,21.6-32.3,41.4-46.6,64.3
						c-7.8,12.5-10.1,39.9-2.1,53c4.5,5.2,8.9,10.4,13.4,15.5c3.1,4.2,5.4,9.3,10.2,11.8c21.8,11.6,53.9,8.3,74.4-3.2
						c42.5-23.8,60.7-64.8,72.3-119.4c0.2-8.7,0.4-17.5,0.5-26.2C490.2,475.1,481.6,441.7,447.4,442.2z M457.6,531.7
						c-11.4,43-21.4,75.1-54.6,95.9c-10.1,6.3-35,16-49.8,6.4c-25.4-16.4-19.1-41.1-4.8-63.7c5.7-8,11.4-16.1,17.1-24.1
						c4.5-4.3,8.9-8.6,13.4-12.9c12.3-17.1,20.5-38.2,37.5-50.3c8.5-6.1,18.4-8.3,28.4-13.4c2.1,0.2,4.3,0.4,6.4,0.5
						C462.5,474.3,461.6,516.8,457.6,531.7z"/>
				</g>
			</g>
		</g>
	</g>
</g>
</svg>
