<svg width="197" height="145" viewBox="0 0 197 145" fill="none" xmlns="http://www.w3.org/2000/svg">
<path d="M163.605 24.9637C163.138 25.8576 162.975 26.7717 163.524 27.7061C164.011 28.4984 163.463 29.1485 163.158 29.7579C159.522 36.9897 156.861 44.6685 153.184 51.88C152.29 53.627 151.802 55.5365 151.437 57.4664C150.746 61.1635 152.31 64.0075 155.825 65.267C157.612 65.8967 159.339 66.6484 161.066 67.4203C161.655 67.6844 162.386 67.8266 162.467 68.6798C161.899 69.1267 162.021 69.7767 162.021 70.3658C162 71.7878 161.96 73.1895 162.021 74.6115C162.163 78.2477 161.492 81.8433 161.574 85.4796C160.477 85.1342 160.599 84.1185 160.456 83.306C159.928 80.4213 160.273 77.4961 160.172 74.6115C160.131 73.2708 160.253 71.9097 159.481 70.6909C158.851 70.9753 159.014 71.5034 159.055 71.93C160.009 81.3558 160.05 90.8425 159.705 100.289C159.441 107.033 159.766 113.797 159.055 120.542C158.872 122.289 158.973 124.056 159.278 125.803C159.867 129.074 159.948 132.385 159.664 135.696C159.583 136.61 159.502 137.606 158.709 138.296C157.145 139.231 155.479 139.536 153.671 139.536C108.452 139.515 63.2125 139.495 17.9932 139.515C16.0024 139.515 14.1538 138.784 12.224 138.499C11.6146 138.418 11.0255 138.235 10.416 138.296C8.10022 138.479 5.86567 137.728 3.54986 137.89C2.71698 137.951 2.27006 137.565 2.33101 136.692C2.45289 134.802 2.24975 132.933 2.57478 131.024C2.81855 129.561 3.10294 127.956 2.35132 126.474C1.94504 126.027 1.98567 125.458 2.06692 124.93C3.3264 116.784 3.52954 108.516 4.64682 100.329C5.29687 95.657 5.43907 90.9034 5.3375 86.1702C5.1953 79.5275 5.54064 72.9457 6.35321 66.3436C6.88138 62.0167 6.84075 57.5679 6.90169 53.1801C7.02357 43.9168 6.94232 34.6536 6.94232 25.37C6.94232 24.2934 6.80012 23.1964 7.40954 22.201C7.75488 22.0182 8.16117 21.7338 7.99865 22.526C8.34399 22.5057 8.18148 22.2416 8.18148 22.0791C8.20179 19.9665 9.0753 18.0976 9.82693 16.188C10.6192 15.0504 11.7974 14.5629 13.0772 14.2785C21.4669 12.369 29.9176 10.7438 38.5918 11.2517C46.9409 11.7595 55.2087 10.3782 63.5172 10.3985C66.9706 10.3985 70.3834 10.947 73.8571 10.8657C77.5137 10.7845 81.1702 10.886 84.7861 10.1547C84.9893 10.1141 85.1924 10.0735 85.3955 10.0938C91.0632 10.3985 96.7511 10.2157 102.398 10.7235C108.757 11.2923 115.054 11.6986 121.392 10.5813C121.534 10.561 121.656 10.5204 121.798 10.5204C132.687 10.8454 143.575 9.62656 154.443 10.5407C156.19 10.6829 157.917 11.0485 159.603 11.5767C162.447 12.4705 162.935 13.1206 162.996 16.0661C163.097 19.0523 162.711 22.0385 163.605 24.9637Z" fill="black"/>
<path d="M163.605 24.9637C162.386 24.6184 162.488 23.5417 162.427 22.6682C162.325 20.7181 162.386 18.7476 162.345 16.7771C162.264 12.8768 163.056 13.2425 158.526 11.9424C154.524 10.8048 150.38 10.6016 146.236 10.8048C138.517 11.1704 130.818 11.1907 123.098 11.1704C121.941 11.1704 120.823 11.1907 119.726 11.6783C119.198 11.922 118.548 12.0033 117.939 12.0033C113.205 12.0033 108.452 12.2674 103.759 11.4751C100.794 10.9673 97.848 10.9266 94.8821 11.272C94.1305 11.3532 93.3992 11.272 92.6679 11.1704C89.5192 10.7235 86.3502 10.5204 83.1609 10.9876C78.3261 11.6986 73.4507 11.4345 68.5956 11.2923C63.7202 11.1501 58.8448 10.7032 54.0101 11.4751C51.3083 11.9017 48.6268 11.8205 45.925 11.7595C41.2528 11.658 36.6009 12.1455 31.9286 11.8611C28.9831 11.6986 26.1797 12.6534 23.2748 12.8768C19.7807 13.1409 16.4289 14.4004 12.9552 14.9488C11.8379 15.1317 10.7003 15.477 10.0096 16.513C9.05487 18.1991 8.70953 20.129 7.91728 21.8963C7.30786 23.5214 7.47037 25.2278 7.49068 26.9139C7.61257 36.2584 7.63288 45.6029 7.47037 54.9271C7.40943 58.2383 7.42974 61.5698 7.2266 64.8607C7.0844 67.2171 6.61718 69.5533 6.35309 71.8894C5.76398 77.2117 5.94681 82.5746 5.88587 87.9173C5.84524 92.5286 5.80461 97.1399 5.13424 101.69C4.13885 108.516 3.79351 115.402 3.08252 122.248C2.94032 123.65 2.57466 125.031 2.31058 126.413C2.00587 126.738 2.08712 127.449 1.4777 127.408C0.766703 127.347 0.461991 126.738 0.340106 126.128C-0.0661766 123.975 -0.127119 121.801 0.25885 119.668C0.84796 116.316 1.03079 112.944 1.01047 109.572C1.01047 106.525 1.23393 103.498 1.84335 100.492C2.67623 96.2867 2.16838 91.9801 2.6356 87.7344C3.10283 83.6919 3.10283 79.6494 3.16377 75.5866C3.18409 73.8396 3.67163 72.1129 3.9154 70.3862C4.76859 63.8653 4.70765 57.2835 4.68733 50.7221C4.66702 42.9417 4.66702 35.1614 4.66702 27.3811C4.66702 24.8012 4.9311 22.2416 5.56084 19.743C6.53592 15.9646 8.70953 13.4456 12.6505 12.4705C16.1445 11.6173 19.7198 11.3126 23.2341 10.6423C25.0421 10.2969 26.8501 10.2157 28.6783 10.236C33.6147 10.2766 38.551 9.97189 43.467 9.89063C49.2159 9.80937 54.9445 9.87031 60.6934 9.48435C66.483 9.09838 72.3334 9.40309 78.1433 9.4234C79.9715 9.44372 81.7592 9.38277 83.5875 9.139C86.0455 8.81398 88.5847 9.03743 91.0834 9.03743C92.6476 9.03743 94.1915 9.11869 95.7556 9.07806C101.911 8.95618 108.066 9.03743 114.201 9.85C116.557 10.1547 118.914 10.0328 121.27 9.76874C124.561 9.40309 127.893 9.68749 131.204 9.72812C135.124 9.76874 139.025 9.58592 142.925 9.09838C147.902 8.46864 152.92 8.73272 157.917 9.19995C159.847 9.38278 161.492 10.3782 163.056 11.4751C164.011 12.1455 164.458 13.1409 164.6 14.2379C165.047 17.5491 164.966 20.84 164.072 24.0902C164.052 24.4559 163.93 24.7809 163.605 24.9637Z" fill="#30EA9D"/>
<path d="M162.447 68.6797C160.111 67.4609 157.734 66.2827 155.195 65.6529C152.29 64.9216 150.238 60.7166 150.726 58.0758C151.193 55.5162 151.945 53.0785 153.103 50.783C156.84 43.2058 159.806 35.2833 163.524 27.7061C164.418 26.0607 165.575 24.5371 165.657 22.526C165.677 22.0994 166.002 21.6525 166.266 21.2665C166.937 20.2508 167.708 19.2961 168.338 18.2804C170.187 15.2739 172.95 14.0753 176.342 13.9534C177.561 13.9128 178.78 13.8112 179.978 13.6284C181.786 13.3643 182.416 11.8001 181.36 10.3172C179.978 8.34673 180.445 6.47783 182.7 5.64495C183.757 5.25898 184.244 4.7105 184.183 3.61354C184.163 3.08537 184.264 2.53689 184.366 2.00872C184.468 1.46024 184.732 1.07427 185.28 0.789872C188.002 -0.632118 192.715 -0.0836363 194.97 2.02903C195.823 2.82129 196.392 3.81668 196.717 4.95427C197.062 6.19343 197.123 7.39197 195.864 8.16391C195.193 8.57019 195.397 8.97647 195.64 9.50464C197.144 12.633 196.311 13.4253 193.264 13.7097C192.796 13.7503 192.329 13.8519 191.862 13.9534C191.679 13.9941 191.374 14.055 191.334 14.1769C191.009 15.1317 190.867 16.188 190.399 17.0412C189.709 18.26 190.501 18.8898 191.131 19.6617C192.634 21.5916 193.772 23.7245 194.645 26.02C195.437 28.1327 195.498 30.1844 194.787 32.3581C192.228 40.2196 188.835 47.7155 184.813 54.9271C182.741 58.6446 180.588 62.3214 179.288 66.4046C178.962 67.4203 178.414 68.375 177.825 69.2892C175.915 72.2144 173.153 73.0879 169.923 71.7878C167.424 70.7518 164.946 69.6955 162.447 68.6797Z" fill="#30EA9D"/>
<path d="M158.689 138.235C159.319 134.132 159.42 130.049 158.648 125.945C158.262 123.873 158.384 121.781 158.486 119.668C159.176 104.676 159.42 89.6846 158.669 74.6927C158.587 73.1489 158.384 71.605 158.242 70.0408C158.201 69.6345 158.14 69.1876 158.709 69.1064C159.258 69.0048 159.806 68.9642 160.07 69.6345C160.476 70.7112 160.68 71.8488 160.7 73.0067C160.72 74.6318 160.68 76.2569 160.659 77.8618C160.639 80.4213 160.741 82.9809 161.533 85.4592C162.244 93.4833 161.208 101.528 161.736 109.552C162.041 113.96 161.289 118.307 161.492 122.695C161.594 124.869 161.858 127.002 162.183 129.135C162.731 132.568 162.264 136.001 161.797 139.414C161.634 140.551 161.391 141.668 161.106 142.786C160.903 143.537 160.741 144.37 160.009 145C158.973 144.005 158.872 142.705 158.75 141.465C158.669 140.409 158.709 139.312 158.689 138.235Z" fill="#30EA9D"/>
<path d="M112.068 20.7993C113.429 20.8806 114.079 21.1243 114.505 22.1401C115.623 24.7606 115.521 25.5731 118.589 23.1761C120.843 21.4087 123.139 19.8039 125.699 18.5445C126.613 18.0975 127.466 17.5084 128.136 16.7568C129.741 14.9488 131.773 14.0144 134.088 13.5269C135.815 13.1612 137.521 12.7956 139.106 12.0033C139.39 11.8611 139.756 11.7595 140.081 11.7595C144.002 11.6783 147.922 11.6173 151.762 12.694C153.265 13.1206 154.707 13.7097 155.804 14.9082C157.064 16.2896 157.104 17.4475 156.007 18.9914C155.093 20.2712 154.463 21.6728 153.834 23.1151C153.184 24.5981 152.574 26.1013 151.64 27.442C151.01 28.3359 150.258 29.1078 149.324 29.6969C148.593 30.1438 147.983 30.1845 147.089 29.8797C144.083 28.8844 141.056 27.889 137.907 27.442C134.962 27.0155 132.098 27.6046 129.396 28.7422C127.283 29.636 125.231 30.672 123.159 31.6674C122.672 31.8908 122.225 32.2159 121.819 32.5815C120.823 33.4754 120.783 33.7191 121.473 34.9583C122.001 35.913 122.286 36.9491 122.591 37.9851C122.976 39.2039 123.342 40.4228 124.114 41.4994C124.805 42.4339 124.52 44.059 123.627 44.7091C123.241 44.9935 122.814 45.1154 122.326 44.831C118.446 42.5761 114.059 42.4948 109.772 41.987C107.822 41.7432 105.872 41.601 103.942 41.3166C102.439 41.0932 101.951 40.3618 102.723 39.1227C105.161 35.1208 105.73 30.286 108.553 26.467C109.325 25.4106 109.549 23.9683 110.118 22.7495C110.605 21.6931 111.235 20.7993 112.068 20.7993Z" fill="#30EA9D"/>
<path d="M58.3575 80.6042C54.3759 80.462 50.374 80.401 46.4331 81.2136C46.169 81.2745 45.8846 81.2948 45.6205 81.2745C40.0544 81.0917 34.5493 82.0058 29.0442 82.5543C23.5187 83.1231 17.9729 83.2856 12.4475 83.4888C11.2693 83.5294 10.1723 83.6513 9.27849 84.5654C8.93315 84.9311 8.36436 85.4592 7.89713 85.0326C7.36896 84.5654 7.32834 83.6716 7.81588 83.1637C8.66907 82.2496 9.52226 81.2542 10.9849 81.2339C12.7319 81.2136 14.5399 81.2339 16.2462 80.9089C20.6747 80.076 25.1642 80.8276 29.5926 80.1572C31.7256 79.8322 33.8992 79.7306 36.0322 79.4056C37.4948 79.1822 38.9981 79.2431 40.481 79.2431C42.4515 79.2431 44.4017 79.3447 46.3721 79.365C47.1847 79.3853 48.0582 79.5072 48.7895 79.2634C51.5116 78.4102 54.2743 78.7962 57.0167 78.7962C61.2014 78.7759 65.4065 78.3899 69.5912 78.7962C73.979 79.2228 78.4075 78.9384 82.7344 79.3853C89.3975 80.076 96.1418 79.5681 102.744 80.8682C103.008 80.9292 103.272 80.9495 103.556 80.9292C110.788 80.8885 117.979 82.1074 125.232 81.4777C128.076 81.2339 130.899 81.7417 133.703 82.1277C139.512 82.92 145.322 82.1683 151.132 81.9246C152.493 81.8636 153.834 81.8027 155.195 81.7621C155.662 81.7417 156.15 81.6605 156.556 82.0261C156.922 82.3512 157.206 82.7168 157.145 83.245C157.084 83.7732 156.617 83.8138 156.251 83.895C155.053 84.2201 153.773 84.4029 152.635 84.0372C150.685 83.4075 148.715 83.4684 146.826 83.8747C140.549 85.1951 134.312 84.6264 128.076 83.6513C127.669 83.5903 127.243 83.3669 126.877 83.4481C122.997 84.4029 119.117 83.184 115.176 83.4888C111.479 83.7732 107.619 83.7122 103.881 83.0622C100.469 82.4731 97.0153 82.3105 93.5822 82.1277C91.3476 82.0058 89.1334 81.8027 86.9395 81.3964C86.3504 81.2948 85.7409 81.2542 85.1315 81.2339C84.3799 81.2136 83.6486 81.2339 82.897 81.2339C77.1481 81.1933 71.4195 81.3964 65.6706 80.6042C63.2532 80.3401 60.7952 80.6042 58.3575 80.6042Z" fill="#30EA9D"/>
<path d="M65.9751 56.8975C65.9548 53.8707 66.8283 51.0064 67.5393 48.1218C68.4331 44.5262 75.5837 37.4772 79.1386 36.4818C82.592 35.5067 85.9845 34.6942 89.6004 36.1365C93.5617 37.721 96.8729 40.0165 99.3512 43.4496C102.947 48.4672 104.206 53.9317 102.073 59.9243C101.951 60.2494 101.85 60.5744 101.809 60.8994C101.322 65.3685 98.3965 67.9484 94.7196 69.858C91.8959 71.3206 88.7472 71.93 85.7001 72.8441C78.2651 75.0584 67.6408 68.05 66.2595 59.904C66.097 58.9289 66.0563 57.9132 65.9751 56.8975Z" fill="#30EA9D"/>
<path d="M126.206 69.9392C126.024 70.7314 125.942 71.3206 125.719 71.869C125.475 72.4785 124.927 72.8644 124.277 72.7629C123.484 72.641 123.708 71.9503 123.769 71.4628C124.013 69.5126 124.297 67.5828 124.602 65.6529C124.784 64.495 125.8 63.6012 126.755 63.6824C127.832 63.7637 129.091 65.0435 129.091 66.0998C129.091 66.5061 129.01 66.9124 128.888 67.2984C128.522 68.3141 128.563 69.2485 129.111 70.2236C129.375 70.6908 129.802 71.3002 128.949 71.7471C128.218 72.1331 127.832 71.8284 127.507 71.1987C127.263 70.7111 126.917 70.3048 126.206 69.9392Z" fill="#30EA9D"/>
<path d="M120.397 69.6548C120.539 71.3002 120.275 71.8487 119.32 71.93C118.629 71.9909 118.122 71.1174 118.081 69.736C118.04 68.3141 118.386 66.9124 118.751 65.5513C119.137 64.109 121.25 63.2965 122.55 63.9059C122.713 63.9872 122.916 64.17 122.936 64.3122C122.956 65.1857 123.606 65.9982 123.22 66.8718C122.794 67.8062 122.834 68.6797 123.261 69.5939C123.444 70.0001 123.403 70.4064 122.916 70.5892C122.53 70.7314 122.123 70.894 121.819 70.4674C121.453 70.0001 121.189 69.411 120.397 69.6548Z" fill="#30EA9D"/>
<path d="M135.49 69.2892C134.942 69.5736 134.373 69.7971 133.906 70.1424C133.174 70.6909 133.255 71.2394 134.129 71.5238C134.677 71.6863 135.226 71.7675 135.145 72.4988C135.063 73.2098 134.413 73.2098 133.906 73.3114C132.016 73.6771 130.98 72.9051 130.757 70.955C130.574 69.3908 130.96 67.8672 131.122 66.3233C131.244 65.2873 133.865 64.4544 134.698 65.1451C135.063 65.4498 135.023 65.8967 134.698 66.2015C134.454 66.4249 134.068 66.4655 133.824 66.6687C133.296 67.0953 133.154 67.5625 133.946 67.8469C134.454 68.0297 134.982 68.1922 135.267 68.7001C135.368 68.8626 135.409 69.0454 135.49 69.2892Z" fill="#30EA9D"/>
<path d="M116.699 67.3593C116.151 67.8062 115.562 67.7453 115.074 67.9688C114.241 68.3547 114.16 69.0657 114.912 69.6751C115.379 70.0408 116.029 70.183 116.232 70.8534C114.973 72.0519 114.079 72.2957 113.165 71.7066C112.027 70.9752 111.682 70.0408 112.088 68.5782C112.271 67.9078 112.332 67.2578 112.352 66.5874C112.433 64.3935 114.079 63.1137 116.232 63.5606C117.004 63.7231 117.573 64.3732 117.39 64.9013C117.126 65.6733 116.476 65.592 115.887 65.5107C115.643 65.4701 115.399 65.2467 115.156 65.1857C114.648 65.0841 114.424 65.4092 114.302 65.8358C114.18 66.2421 114.465 66.4452 114.77 66.5874C115.399 66.8718 116.171 66.6687 116.699 67.3593Z" fill="#30EA9D"/>
<path d="M108.147 67.3593C108.716 66.303 108.858 65.0842 109.854 64.4138C110.158 64.2106 110.504 63.8247 110.91 64.1903C111.235 64.495 111.357 65.0029 111.113 65.3076C110.199 66.4046 110.016 67.7047 109.712 69.0251C109.366 70.4065 107.375 70.6096 106.522 69.4517C105.507 68.0703 104.978 66.4655 104.674 64.7998C104.572 64.2513 104.735 63.9262 105.324 63.7637C105.933 63.6012 106.157 63.8653 106.4 64.3528C106.888 65.3482 107.193 66.4655 108.147 67.3593Z" fill="#30EA9D"/>
<path d="M7.91724 21.8962C8.07975 19.9055 8.52666 17.9959 10.0096 16.513C9.66425 18.6866 8.62823 20.6774 8.12038 22.8307C8.05944 22.526 7.97818 22.201 7.91724 21.8962Z" fill="#E0E5EE"/>
<path d="M179.125 15.5176C179.023 15.5176 179.226 15.5176 179.43 15.5379C182.477 15.7005 183.878 14.5629 184.447 11.5361C184.65 10.4594 184.142 9.68747 183.513 8.99679C182.944 8.36705 183.005 7.98108 183.777 7.63574C184.203 7.45291 184.63 7.20914 185.057 7.006C186.438 6.39657 187.23 5.46212 187.068 3.85731C186.986 3.04474 187.25 2.415 188.083 2.08998C189.709 1.43992 192.918 2.67909 193.751 4.20265C194.259 5.1371 194.137 5.82778 193.487 6.5794C192.207 8.10296 192.248 8.63113 193.609 10.1344C193.69 10.2359 193.832 10.2969 193.934 10.3781C194.178 10.6422 194.36 10.9266 194.218 11.2923C194.056 11.6986 193.71 11.6783 193.365 11.5767C192.756 11.4142 192.146 11.4142 191.557 11.4751C190.44 11.597 189.648 12.1455 189.323 13.2424C188.977 14.4003 188.632 15.5583 188.124 16.6755C187.718 17.5694 187.921 18.5241 188.287 19.4383C189.241 21.7134 190.521 23.7855 192.227 25.5325C192.959 26.2841 193.304 27.0154 193.345 28.0108C193.426 29.5953 193.223 31.0986 192.735 32.6018C190.379 39.6915 187.129 46.3748 183.736 52.9972C182.7 55.0286 181.42 56.9382 180.973 59.2743C180.77 60.3509 179.937 61.3057 179.348 62.3011C178.028 64.5153 176.504 66.5874 174.92 68.5985C174.229 69.472 173.478 69.7158 172.462 69.3907C171.548 69.1063 170.654 68.8423 169.821 68.3344C167.241 66.7702 164.438 65.8561 161.553 65.0435C159.725 64.5357 157.957 63.8856 156.251 63.0324C154.545 62.1792 153.773 60.8588 153.813 58.9493C153.854 56.41 154.159 53.8504 155.378 51.6768C156.495 49.6657 157.064 47.5124 157.998 45.4607C158.953 43.3683 159.745 41.215 160.619 39.082C161.573 36.7662 162.569 34.4707 164.153 32.5002C164.438 32.1346 164.864 31.7283 164.722 31.2408C164.255 29.7985 165.128 28.7624 165.778 27.7061C166.855 25.9185 167.83 24.0699 168.846 22.2416C169.983 20.1899 171.405 18.2194 173.213 16.6146C174.006 15.9239 174.96 15.5583 175.996 15.4973C176.931 15.4567 177.886 15.5176 179.125 15.5176Z" fill="black"/>
<path d="M105.527 39.2039C105.669 37.2334 106.36 35.6896 107.233 34.2473C108.614 31.9111 109.854 29.5344 110.646 26.9139C110.971 25.8372 111.438 24.7606 112.494 23.9683C113.327 24.5168 113.754 25.37 114.16 26.1825C114.587 27.0357 115.156 27.1576 115.968 26.9139C117.37 26.4873 118.507 25.6544 119.604 24.7402C125.455 19.8445 132.037 16.3708 139.472 14.6035C143.758 13.5675 147.922 14.1972 151.985 15.7817C152.412 15.9442 152.818 16.2286 153.224 16.4724C153.773 16.7974 153.854 17.1834 153.59 17.8131C152.412 20.779 150.888 23.562 149.06 26.1622C148.471 26.9748 147.821 27.2998 146.805 27.0154C145.322 26.5685 143.778 26.2841 142.316 25.7966C136.587 23.8871 131.244 24.9231 126.166 27.9296C124.825 28.7218 123.484 29.4938 121.961 29.9203C120.234 30.3876 119.543 32.0127 118.365 33.0894C117.959 33.455 118.304 33.9832 118.426 34.4301C118.934 36.3396 119.706 38.1273 120.681 39.8337C120.884 40.179 121.148 40.504 121.27 40.89C121.412 41.3369 121.27 41.7026 120.701 41.6619C120.356 41.6416 120.031 41.5807 119.706 41.4791C115.115 40.2196 110.504 39.1836 105.527 39.2039Z" fill="black"/>
<path d="M70.0989 50.8236C70.1598 49.361 70.7083 48.0812 71.5209 46.8624C73.5117 43.9168 75.9697 41.4182 78.834 39.3258C80.3779 38.1882 82.2874 37.8023 84.0547 37.1319C84.4001 36.9897 84.8673 37.0709 85.2533 37.1522C92.7289 38.757 97.8683 43.0433 100.408 50.3361C101.119 52.4081 100.936 54.5005 100.529 56.5522C100.062 58.9493 99.27 61.2448 98.2137 63.459C96.2838 67.5015 92.7898 69.1267 88.6051 69.5736C87.5284 69.6751 86.4518 69.8377 85.4158 70.1017C83.5875 70.569 81.7999 70.4674 80.0325 69.858C76.9854 68.8016 74.2024 67.3187 72.0491 64.8404C70.6068 63.1746 69.5707 61.3057 69.3067 59.0712C69.1238 58.3399 68.941 57.6085 69.4489 56.9382C70.0989 56.9179 70.2005 57.446 70.3427 57.8726C71.8866 62.7683 75.7056 65.1857 80.195 66.7296C82.6734 67.5828 85.2329 67.8875 87.955 67.664C92.8101 67.2578 97.137 63.2559 97.0355 56.6944C97.0151 55.1099 96.7104 53.8504 95.8776 52.5503C94.6181 50.6205 93.9071 48.4062 93.0133 46.2936C91.9772 43.8152 90.6568 41.5604 87.9754 40.504C86.6752 39.9962 85.4361 39.9352 84.0547 40.4025C78.5699 42.2307 74.2633 45.481 71.3584 50.5189C71.1552 50.8642 70.9318 51.2096 70.5661 51.433C70.2005 51.3518 69.977 51.2502 70.0989 50.8236Z" fill="black"/>
<path d="M69.7332 56.9788C69.0832 57.5679 69.5504 58.3805 69.3269 59.0508C68.555 57.2632 69.0425 55.4959 69.4285 53.7285C69.6926 53.627 69.8957 53.6879 70.0176 53.9317C70.3833 54.988 70.5661 56.0443 69.7332 56.9788Z" fill="black"/>
<path d="M69.7535 53.7285C69.6316 53.7285 69.5301 53.7285 69.4082 53.7285C69.3879 53.4848 69.3879 53.2207 69.3676 52.9769C69.6723 52.6113 69.4488 52.1237 69.6723 51.7378C69.7738 51.4127 69.7942 51.0674 70.0785 50.8439C70.2207 50.9861 70.3426 51.1283 70.4848 51.2705C70.9114 52.2659 70.7692 53.1394 69.7535 53.7285Z" fill="black"/>
<path d="M69.6927 51.7174C69.7334 52.1643 69.7943 52.6316 69.388 52.9566C69.3677 52.5097 69.2661 52.0425 69.6927 51.7174Z" fill="black"/>
<path d="M126.796 67.5218C126.552 67.5624 126.328 67.4406 126.288 67.2577C126.207 66.8108 126.024 66.303 126.552 66.0186C126.755 65.917 126.979 66.0998 127.019 66.2826C127.1 66.7092 127.304 67.1968 126.796 67.5218Z" fill="black"/>
<path d="M121.636 66.0592C121.656 66.5671 121.555 67.014 120.905 67.014C120.498 67.014 120.255 66.8108 120.255 66.4249C120.275 65.917 120.478 65.4701 121.047 65.4295C121.453 65.3888 121.616 65.6732 121.636 66.0592Z" fill="black"/>
<path d="M69.7535 53.7285C69.9972 52.8956 70.2613 52.0831 70.5051 51.2502C73.0443 45.7857 77.3103 42.3526 82.8764 40.2196C84.664 39.5289 86.2485 39.1633 88.0565 39.8946C90.1895 40.7478 91.6318 42.2916 92.6475 44.2621C93.1757 45.2778 93.6632 46.3342 94.0492 47.4108C94.8008 49.5235 95.6946 51.5549 97.0353 53.3629C97.6245 54.1551 97.9901 54.988 97.5026 56.0037C97.401 56.2271 97.3197 56.5725 97.401 56.7959C98.3558 59.5384 96.6087 61.5698 95.5321 63.7434C94.557 65.7139 92.7287 66.8108 90.6973 67.5218C84.3187 69.7564 75.9696 66.567 72.4146 62.5855C70.9926 61.001 70.0582 59.1321 69.6925 56.9991C69.7331 55.9021 69.7331 54.8052 69.7535 53.7285Z" fill="black"/>
<path d="M78.2651 44.1199C78.448 45.3388 78.2651 46.5576 78.4886 47.7155C78.9558 50.1329 80.2153 51.9206 82.3483 53.1597C83.7499 53.9723 83.9937 54.7036 82.9171 55.7803C81.6982 56.9788 80.4591 58.3195 78.4683 58.2383C77.9401 58.2179 77.3713 58.2789 76.8635 58.4414C75.4211 58.9493 74.2023 58.0961 72.8616 57.9335C72.435 57.8726 72.4147 57.3241 72.3131 56.9585C71.0536 51.9815 73.471 46.6389 78.2651 44.1199Z" fill="#30EA9D"/>
<path d="M94.9432 57.3648C94.9229 60.1072 94.3135 62.5449 91.7945 64.1904C90.7788 64.8404 89.6209 64.7998 88.5849 65.2873C88.2396 65.4498 87.9552 65.0639 88.0364 64.6779C88.138 64.1497 88.3208 63.6419 88.463 63.1137C88.9099 61.6308 89.2959 60.1275 89.3162 58.5633C89.3365 57.1007 89.1131 55.7803 88.2599 54.5411C87.5489 53.5254 87.8739 52.6113 88.9912 52.1441C90.6773 51.4128 92.3024 51.0268 93.7853 52.6519C94.1713 53.0582 94.476 53.3832 94.5776 53.9723C94.7604 55.0693 95.0448 56.1866 94.9432 57.3648Z" fill="#30EA9D"/>
<path d="M74.2837 61.0213C74.9134 60.1478 75.6244 60.2088 76.2745 60.2291C80.2967 60.4322 83.0797 58.5227 85.0502 55.1912C85.1518 55.0286 85.2736 54.8661 85.4565 54.6021C86.655 55.1302 87.041 56.1866 87.2238 57.3038C87.6504 60.0056 86.8988 62.5043 85.7409 64.9216C85.3346 65.7545 84.583 65.7951 83.8517 65.7545C82.3484 65.6733 80.9264 65.3076 79.6466 64.4747C77.8793 63.3778 76.2948 62.037 74.2837 61.0213Z" fill="#30EA9D"/>
<path d="M80.3371 46.192C80.2762 43.0636 81.3325 41.7838 84.0546 41.4994C85.2735 41.3572 85.8829 41.9667 85.5985 43.1652C85.4157 43.9371 85.05 44.6685 84.725 45.3998C83.9531 47.1468 83.6077 48.8532 84.8469 50.5596C85.0703 50.8846 85.3344 51.2909 84.9281 51.6362C84.6437 51.88 84.2578 51.7378 83.9937 51.5346C82.1045 50.133 80.0324 48.8329 80.3371 46.192Z" fill="#30EA9D"/>
<path d="M85.9643 48.264C86.1268 46.6389 87.0409 45.0747 87.9754 43.5105C88.402 42.7995 88.8692 43.1652 89.2958 43.5715C90.2303 44.4856 90.7584 45.6638 91.3882 46.7811C92.8914 49.5032 92.8914 49.5032 89.8646 50.0517C89.4786 50.1329 89.0724 50.2345 88.7067 50.3564C86.9597 51.0064 85.944 50.3361 85.9643 48.264Z" fill="#30EA9D"/>
</svg>
