<svg width="105" height="75" viewBox="0 0 105 75" fill="none" xmlns="http://www.w3.org/2000/svg">
<path d="M16.6714 0.00407856C21.8686 0.095578 25.7482 0.443276 29.5545 1.41317C30.9819 1.77917 32.3178 2.36476 33.6537 2.95036C35.5935 3.81046 36.6732 5.31105 37.149 7.34234C37.8261 10.1605 37.9908 13.0153 37.8261 15.8701C37.6431 19.1641 37.2405 22.4215 36.4902 25.6239C36.0876 27.3624 35.3922 28.9728 34.6968 30.6015C34.4589 31.1871 34.2942 31.7178 34.9164 32.3766C35.7582 33.255 35.4654 34.8288 34.3308 35.5425C32.9217 36.4392 32.4642 37.7019 32.3361 39.2208C32.0616 42.4415 31.6773 45.644 31.5309 48.8648C31.4028 51.8294 31.476 54.8306 30.8538 57.7768C30.4146 59.863 30.4329 62.0224 30.2865 64.1452C30.2316 64.804 30.2133 65.3347 31.11 65.6641C32.0799 66.0301 32.1348 67.2196 31.8969 68.0431C31.5126 69.3607 31.5492 70.6966 31.4211 72.0142C31.3479 72.7462 31.2015 73.4233 30.7257 74.0455C30.2316 74.686 29.7741 75.0337 28.8957 74.7958C28.0539 74.5579 27.5598 74.0821 27.6147 73.2769C27.6696 72.3619 27.2854 72.3802 26.5351 72.3619C21.5392 72.2887 16.6165 73.588 11.6023 73.2769C10.2664 73.1854 8.91226 73.222 7.57637 73.1488C6.84437 73.1122 6.38687 73.2037 6.02087 73.9906C5.58168 74.9422 4.90458 75.0154 3.67849 74.7592C2.74519 74.5579 2.37919 74.0821 2.37919 73.1122C2.37919 71.2822 2.39749 69.4522 2.69029 67.6405C2.81839 66.9085 3.01969 66.4144 3.76999 66.1399C4.66668 65.8105 4.84968 65.1517 4.59348 64.2184C4.39218 63.523 4.33728 62.7544 4.39218 62.0407C4.75818 56.6606 4.15428 51.3353 3.38569 46.0466C3.05629 43.7957 2.98309 41.5448 3.00139 39.294C3.01969 37.8666 2.63539 36.8601 1.2263 36.2928C-0.109591 35.7438 -0.127891 35.817 0.128308 34.0602C0.274707 33.0537 0.164908 31.9557 1.4459 31.4982C1.7936 31.3701 1.9034 30.9492 1.7753 30.5466C0.860304 27.6186 1.1897 24.6357 1.2446 21.6529C1.3361 16.5838 1.8119 11.5696 2.72689 6.59204C2.96479 5.27445 3.38569 4.01176 4.04449 2.82226C4.59348 1.85237 5.38038 1.15697 6.47837 1.10207C10.3396 0.864174 14.1094 -0.069121 16.6714 0.00407856Z" fill="#EBFF00"/>
<path d="M74.7005 62.9242C72.7607 62.8876 70.9307 62.7961 69.1556 62.2837C67.0511 61.6798 66.4106 60.7831 66.3191 58.6054C66.2459 56.8669 66.7217 55.22 67.3073 53.6279C67.8929 52.0358 68.1674 50.4803 67.5818 48.8333C67.3439 48.1745 67.2341 47.3876 67.8014 46.7471C68.4602 45.9968 68.387 45.1733 68.021 44.3498C67.3988 42.9956 67.4903 41.678 67.8197 40.2689C68.2223 38.5488 68.5151 36.792 67.3805 35.145C66.9596 34.5411 67.106 33.8823 67.655 33.315C68.2955 32.6379 68.8262 31.9608 68.4236 30.8811C68.1857 30.2406 68.753 29.7282 69.2471 29.3805C69.9791 28.8498 70.7477 28.3191 71.5529 27.9165C73.877 26.7453 74.5907 23.9088 74.0417 21.8226C72.962 17.8516 73.6757 16.9366 77.7931 16.6987C78.5251 16.6621 79.2571 16.717 79.9708 16.7719C81.0322 16.8451 82.1485 16.9915 82.5145 18.1627C82.9171 19.3888 83.0818 20.7796 82.057 21.7861C81.3433 22.4997 81.3433 23.2317 81.2701 24.0735C81.1786 25.1715 81.5263 25.8486 82.5145 26.4159C84.6007 27.5871 86.1013 30.7896 84.6556 33.4065C84.1249 34.3581 84.1066 35.4012 84.4909 36.426C84.985 37.7802 85.0948 39.1709 84.619 40.5434C84.3262 41.4035 84.4543 42.227 84.7288 43.0505C85.0033 43.8557 85.2412 44.6792 85.2229 45.5393C85.2046 46.0883 85.1863 46.619 84.7837 47.0765C83.1367 48.8699 83.7772 51.0842 83.7406 53.1704C83.7406 53.3717 83.9785 53.573 84.1249 53.756C85.6438 55.6409 85.9366 58.8799 84.802 60.9844C84.4543 61.6249 83.8504 61.6981 83.2831 61.8445C80.4283 62.5948 77.5186 62.7778 74.7005 62.9242Z" fill="#EBFF00"/>
<path d="M48.2934 31.9788C49.1535 33.0219 49.7208 34.2297 50.2149 35.4741C50.3979 35.9133 50.5626 36.3891 50.4345 36.8832C50.2698 37.4871 49.9587 37.9262 49.2633 37.6334C47.232 36.7917 45.0726 36.9747 42.9682 36.8832C41.9434 36.8283 40.9003 36.81 39.9121 36.4074C38.9056 36.0048 38.5945 35.4558 38.8141 34.4127C39.4912 31.2285 40.8637 28.3188 42.2545 25.4091C42.7303 24.4209 43.572 24.4209 44.2125 25.2993C44.6517 25.8849 44.6883 26.6901 45.2922 27.2025C45.8229 27.294 45.9693 26.7999 46.2621 26.5437C50.3613 23.085 55.101 21.2733 60.4446 21.072C60.9204 21.0537 61.4144 21.1086 61.8902 21.1818C63.7751 21.4746 63.8666 21.4929 63.8117 23.3961C63.7934 24 64.5803 24.4392 63.9398 25.2078C63.3176 25.9764 62.6771 26.4888 61.7072 26.5437C59.7675 26.6535 57.8277 26.7633 55.8879 26.8731C52.905 27.0561 50.6175 28.2456 49.2633 30.9357C49.0254 31.4298 48.4947 31.503 48.2934 31.9788Z" fill="#EBFF00"/>
<path d="M99.4053 3.65086C99.5151 3.54106 99.6249 3.54106 99.7347 3.65086C100.467 4.09006 101.345 3.61426 102.095 3.98026C103.98 4.05346 104.127 4.16326 104.657 5.88345C105.133 7.43894 104.968 9.03103 104.987 10.6048C104.987 11.1355 104.657 11.3917 104.163 11.3368C102.187 11.0989 100.302 11.776 98.3439 11.8492C95.5074 11.959 94.2813 10.7146 94.4643 7.87814C94.5009 7.32914 94.5741 6.78014 94.6473 6.24945C94.9584 4.16326 94.9584 4.16326 97.0629 3.98026C97.8132 3.61426 98.6733 4.10836 99.4053 3.65086Z" fill="#EBFF00"/>
<path d="M88.224 9.83618C88.1142 9.15909 88.7364 8.95779 88.5351 8.33559C86.7417 8.99439 84.8568 8.68329 82.9902 8.77479C80.8309 8.90289 79.5682 10.0924 79.1839 12.2518C79.0924 12.7825 79.0009 13.3132 78.8728 13.8439C78.8545 13.9354 78.6898 13.972 78.58 14.0452C77.6101 12.2152 78.1591 9.98258 79.9891 8.51859C80.8492 7.8232 81.8374 7.3474 82.9719 7.2742C83.8137 7.2193 84.6738 7.1095 85.5156 7.0729C86.3025 7.0363 87.0894 7.0729 87.858 7.0729C88.2423 6.5239 87.5835 6.3409 87.5469 5.92001C87.492 5.33441 87.8031 4.96841 88.2423 5.22461C89.2488 5.77361 90.3102 6.286 91.0605 7.201C91.5729 7.8049 91.6278 8.37219 90.8409 8.84799C90.0357 9.30549 89.3403 10.0558 88.224 9.83618Z" fill="black"/>
<path d="M99.4053 3.65085C98.7099 4.30964 97.8681 3.98025 97.0629 3.98025C97.8132 3.63255 98.6184 3.70575 99.4053 3.65085Z" fill="#EBFF00"/>
<path d="M17.6414 31.6812C14.3474 31.5531 9.35152 31.6263 4.37395 31.1322C2.92826 30.9858 2.89166 31.0041 2.56226 29.6133C1.99496 27.216 1.81196 24.7638 2.12306 22.3482C2.43416 19.8595 2.41586 17.3707 2.48906 14.8819C2.59886 11.6977 3.34915 8.62332 4.08115 5.54893C4.28245 4.72544 4.61185 3.93854 5.27064 3.33465C6.00264 2.63925 6.75293 2.18175 7.83263 2.20005C9.79072 2.23665 11.6939 1.83406 13.6337 1.57786C15.1892 1.37656 16.8179 1.24846 18.3551 1.44976C21.9235 1.88896 25.492 2.16345 29.0239 2.91375C30.5794 3.24315 32.0617 3.77385 33.4708 4.52414C34.8616 5.27444 35.7766 6.37243 35.8498 7.96452C36.0145 11.2402 36.7099 14.4976 36.3988 17.7916C36.0328 21.6711 35.3008 25.4958 34.0747 29.2107C33.91 29.7231 33.6538 30.2172 33.4708 30.7296C33.2146 31.4799 32.7388 31.6995 31.9519 31.6995C27.7429 31.6629 23.5339 31.6812 17.6414 31.6812Z" fill="black"/>
<path d="M15.3538 32.5413C20.4778 32.5413 25.5834 32.4315 30.6891 32.889C31.4211 32.9622 32.1531 32.9805 32.8668 33.0903C33.2511 33.1452 33.7818 33.0537 33.8733 33.6576C33.9282 34.1151 33.7269 34.6458 33.3609 34.7556C31.8786 35.1948 31.9335 36.4575 31.5858 37.592C30.4329 41.3252 30.5793 45.1682 30.2682 48.9929C30.0303 51.9575 29.6094 54.9403 29.5545 57.9049C29.4996 61.7662 28.6029 65.4994 28.3101 69.3241C28.182 71.0809 27.8892 71.4103 26.169 71.1907C23.7168 70.8796 21.3379 71.1907 18.904 71.5567C15.1525 72.1056 11.3644 71.9958 7.59464 71.703C6.64304 71.6299 6.36855 71.1541 6.33195 70.294C6.11235 65.1334 5.34375 59.9911 5.36205 54.8122C5.36205 53.5313 5.27055 52.2686 4.99605 51.0059C4.81305 50.1092 4.86795 49.1942 4.84965 48.2792C4.77645 45.0035 4.68496 41.7095 4.46536 38.4338C4.37386 36.9699 3.67846 35.7255 2.21447 35.1399C1.57397 34.8837 1.15308 34.5726 1.40927 33.804C1.64717 33.072 1.90337 32.5413 2.90987 32.5779C5.65485 32.6511 8.39983 32.5596 11.1265 32.5413C12.5539 32.5413 13.9447 32.5413 15.3538 32.5413Z" fill="black"/>
<path d="M4.50193 66.6706C5.05093 67.5124 4.86793 68.0797 4.88623 68.5921C4.94113 69.8731 4.94113 71.1358 5.38033 72.3802C5.50843 72.7645 5.49013 73.3135 4.92283 73.3867C4.44704 73.4416 3.76994 73.3684 3.69674 72.8377C3.47714 70.8064 3.11114 68.7568 4.50193 66.6706Z" fill="black"/>
<path d="M29.2982 73.2585C29.0054 71.0077 29.2982 68.8849 30.3779 66.9085C30.5792 69.1228 30.5975 71.3187 29.2982 73.2585Z" fill="black"/>
<path d="M73.2731 61.8811C72.1751 61.8994 71.1137 61.7347 70.034 61.4236C68.6432 61.021 68.0393 60.0694 67.8563 58.8067C67.6184 57.0682 67.6001 55.4944 68.6981 53.7742C69.6131 52.3286 69.6863 50.2607 69.0824 48.4673C68.7896 47.5889 68.6798 46.8935 69.3569 46.1249C69.9608 45.4661 69.5765 44.6975 69.2471 44.057C68.6981 42.959 68.5883 42.0989 69.2654 40.8728C70.1621 39.2441 69.6131 37.3775 68.8628 35.7489C68.3138 34.5228 68.1308 33.5895 69.4667 32.8392C69.7961 32.6562 69.7412 32.3268 69.7778 32.034C69.9425 30.3504 70.8758 29.1426 72.3581 28.5204C74.8835 27.459 75.5423 25.5558 75.2312 23.067C75.0848 21.9873 74.9567 20.8893 74.8835 19.7913C74.792 18.3822 75.0665 18.0163 76.439 17.8699C77.6468 17.7418 78.8362 17.4124 80.0623 17.7235C81.4897 18.0895 82.0936 19.6998 81.0871 20.7978C79.7878 22.2069 80.1904 23.9454 79.9525 25.5558C79.8793 26.0316 80.3185 26.4525 80.6845 26.7636C81.1054 27.1113 81.5446 27.459 81.9838 27.7701C83.3929 28.7583 83.8687 30.0942 83.5393 31.7595C83.3929 32.4732 83.3197 33.2052 83.1733 33.9189C82.972 34.9071 82.9537 35.8403 83.6308 36.7004C83.9968 37.1579 83.9602 37.7435 83.7955 38.2742C83.1733 40.2506 83.155 42.1904 83.9419 44.1668C84.3079 45.0635 84.4726 46.0883 83.4295 46.802C83.3746 46.8386 83.3014 46.8752 83.3014 46.9118C83.338 49.4372 81.3433 51.9626 83.6674 54.5245C85.0033 56.0068 84.6922 58.0381 83.9236 59.8681C83.6857 60.4171 83.3197 60.7099 82.6792 60.7099C80.0989 60.7099 77.5919 61.2589 75.0848 61.6981C74.4992 61.8628 73.877 61.8445 73.2731 61.8811Z" fill="black"/>
<path d="M48.8059 36.1511C46.2622 36.1694 43.8649 35.84 41.5042 35.2727C40.2049 34.9616 40.0951 34.742 40.4062 33.5159C41.0101 31.1553 41.9068 28.9227 43.1329 26.9646C43.7368 26.8548 43.81 27.2025 43.9381 27.4404C44.7799 28.9227 44.7799 28.9227 46.2622 28.2273C47.4883 27.66 48.5863 26.8731 49.5745 25.9764C52.2463 23.5791 55.4487 22.6458 58.9623 22.536C59.9322 22.4994 60.9021 22.5177 61.8903 22.4811C62.8602 22.4445 62.7504 23.1399 62.7321 23.7255C62.7138 24.3477 62.9883 25.1529 61.872 25.1346C59.127 25.0797 56.4552 25.8483 53.7285 25.9764C52.6123 26.0313 51.7705 26.562 50.9653 27.2208C49.7758 28.1907 48.8791 29.4168 47.7994 30.4965C47.1589 31.1553 47.2138 31.7592 47.5615 32.4545C47.7994 32.9486 48.0922 33.4244 48.3118 33.9185C48.6046 34.559 49.0072 35.1812 48.8059 36.1511Z" fill="black"/>
<path d="M96.276 6.12134C97.9596 7.60363 99.936 6.98143 101.839 6.87163C102.26 6.85333 102.681 6.70693 103.102 6.65203C103.267 6.63373 103.486 6.67033 103.596 6.76183C104.053 7.16443 103.761 9.65322 103.175 9.90942C101.107 10.8427 98.9661 11.0074 96.7701 10.3669C96.1845 10.1839 95.8368 9.83622 95.8002 9.19572C95.7087 8.17093 95.544 7.12783 96.276 6.12134Z" fill="black"/>
<path d="M103.394 5.44424C102.04 6.74353 100.393 5.97494 98.911 6.15794C97.8679 6.30434 97.264 5.60894 96.6235 4.95015C98.3071 3.88875 101.821 4.12665 103.394 5.44424Z" fill="black"/>
<path d="M10.1202 18.0112C9.73586 21.1405 10.4313 24.3063 10.0287 27.5271C8.96726 27.3075 8.98556 26.5206 8.98556 25.8435C8.96726 24.1416 8.93066 22.4398 9.04046 20.7562C9.20516 18.1027 9.27836 15.4309 9.75416 12.7957C10.3032 12.7774 10.2666 13.1983 10.2483 13.546C10.1934 15.0283 10.413 16.5289 10.1202 18.0112Z" fill="#EBFF00"/>
<path d="M29.5363 22.4215C29.5363 23.8671 29.4997 25.2945 28.8958 26.8317C28.054 26.0082 28.1455 25.1115 28.237 24.2331C28.5298 21.3967 28.8592 18.5602 29.1703 15.7054C29.4265 15.6139 29.5912 15.7054 29.6461 15.9799C29.6095 18.121 29.7925 20.2804 29.5363 22.4215Z" fill="#EBFF00"/>
<path d="M10.12 18.0112C10.1017 16.7668 10.1017 15.5224 10.0651 14.2963C10.0468 13.7839 10.2115 13.2166 9.75403 12.7957C9.86383 10.8193 10.1017 8.87954 11.0167 7.08615C11.7121 7.28745 11.6023 7.70835 11.5108 8.00115C10.6873 11.0572 10.1749 14.1499 10.3213 17.3341C10.3396 17.5537 10.1932 17.7916 10.12 18.0112Z" fill="#EBFF00"/>
<path d="M29.4083 15.7603C29.3351 15.742 29.2436 15.742 29.1704 15.7237C29.1338 15.1564 29.0972 14.5891 29.0606 14.0218C28.8593 13.6375 29.0423 13.1617 28.7861 12.7957C28.4201 11.3134 28.2371 9.8128 28.4384 8.29391C28.5116 7.72661 28.841 7.52532 29.1704 8.22071C29.518 9.22721 29.0972 10.3069 29.4448 11.3317C29.5729 12.631 29.6644 13.9303 29.5363 15.2479C29.6644 15.4492 29.6278 15.6139 29.4083 15.7603Z" fill="#EBFF00"/>
<path d="M29.4082 15.7603C29.4448 15.5773 29.4814 15.4126 29.5363 15.2296C29.9755 17.6269 29.9755 20.0242 29.5546 22.4214C29.4997 20.1889 29.4448 17.9746 29.4082 15.7603Z" fill="#003B63"/>
<path d="M29.4265 11.3134C28.8043 10.3252 29.2069 9.24552 29.152 8.20242C29.5546 9.20892 29.4448 10.252 29.4265 11.3134Z" fill="#003B63"/>
<path d="M28.7858 12.7774C29.2067 13.1068 29.1152 13.5643 29.0603 14.0035C28.8224 13.6375 28.7126 13.2349 28.7858 12.7774Z" fill="#003B63"/>
<path d="M14.75 42.6794C16.031 40.5383 16.9826 40.1724 19.2335 40.9958C19.2884 41.0141 19.3433 41.0324 19.3982 41.0507C20.2583 41.3435 21.1001 41.6912 21.9236 42.1121C22.7654 42.5513 23.4425 41.3618 24.5587 41.7827C24.7234 43.1003 24.4123 44.5277 24.3392 45.9551C24.3209 46.376 23.9183 46.559 23.5889 46.6688C22.4177 47.0348 21.2465 47.3459 20.0021 47.2361C18.9407 47.1446 18.8492 47.0348 19.1786 46.0283C19.3067 45.644 19.7276 45.2597 19.0871 44.9669C18.6113 44.7473 18.2636 45.0401 17.9708 45.3512C17.2937 46.0832 17.2571 47.3825 15.9944 47.4191C15.9212 47.9315 16.2506 48.0779 16.397 48.3158C17.2205 49.6151 17.2205 49.5968 15.8114 50.3654C15.7199 50.4203 15.665 50.5484 15.5735 50.6765C15.6833 50.8046 15.7931 50.9693 15.9212 51.0608C17.7329 52.2686 17.8244 53.2751 16.2872 54.8306C15.9578 55.16 15.665 55.16 15.3173 54.9404C13.9814 54.0803 12.2063 53.6594 12.1331 51.5549C12.1148 51.0059 11.4743 50.7314 11.0717 50.3471C10.0286 49.3772 10.0835 49.0295 11.273 48.3158C11.7488 48.0413 12.2429 47.7851 12.7004 47.4923C13.3592 47.0714 14.0912 46.7237 13.3775 45.6806C13.0298 45.1682 13.5056 44.6558 13.8533 44.2166C13.8899 44.0702 13.9814 43.9604 14.0912 43.8506V43.8323C14.2193 43.7042 14.3474 43.6859 14.5121 43.7774C14.6585 43.9604 14.7134 44.18 14.7134 44.4179C14.7134 44.7107 14.8232 44.9486 15.0977 45.1133C15.8297 45.4976 16.3238 45.1499 16.8911 44.6924C18.9041 43.0637 19.5629 43.1186 21.2099 45.0584C21.521 45.4427 21.8138 45.6257 22.2713 45.5342C22.7837 45.4244 22.9118 45.2231 23.1863 43.9055C22.4543 44.0519 21.7772 44.18 21.155 43.6493C19.2335 42.0023 17.2205 41.6729 15.0794 43.2467C14.8232 43.1735 14.6219 43.0271 14.75 42.6794Z" fill="#EBFF00"/>
<path d="M20.8072 50.9144C21.1183 50.1458 21.3562 49.4504 21.6673 48.8099C22.198 47.7302 23.8816 47.1629 24.9247 47.6753C25.1626 47.7851 25.2724 48.0047 25.3456 48.2243C25.6933 49.2674 25.1077 51.0974 24.1927 51.8111C23.8084 52.1039 23.4241 52.415 23.0764 52.7444C22.5823 53.2385 22.4176 53.8424 22.4542 54.5744C22.4908 55.5443 22.1614 55.7639 21.2647 55.5443C20.4961 55.3613 19.7458 55.1234 18.9955 54.8489C17.8975 54.4646 17.6596 54.0071 17.9524 52.9091C18.0439 52.5614 18.1903 52.2137 18.2818 51.866C18.7942 49.9262 18.7942 49.9262 20.8072 50.9144Z" fill="#EBFF00"/>
<path d="M21.411 37.6286C17.5681 37.8665 13.7617 37.3175 9.95531 37.1528C8.50962 37.0979 7.06392 36.9698 5.52673 36.8783C6.36853 36.128 6.36853 36.128 10.3945 36.1463C12.0415 36.1646 13.6885 36.1463 15.3172 36.2927C17.0008 36.4391 18.721 36.4757 20.3679 36.9881C20.5875 37.3907 21.4659 36.7136 21.411 37.6286Z" fill="#EBFF00"/>
<path d="M27.1574 37.3541C26.3705 37.3541 25.6019 37.3541 24.815 37.3541C23.7902 37.3541 22.6922 38.0129 21.8138 36.9881C22.0151 36.9515 22.2164 36.9149 22.3994 36.8966C22.6739 36.7868 22.985 36.8051 23.2412 36.6405C24.1745 36.4758 25.1078 36.4209 26.0411 36.5306C27.3221 36.3477 28.6031 36.2928 29.8658 36.549C29.9756 36.7685 30.0488 36.9881 29.8109 37.1894C29.6279 37.2443 29.4266 37.3175 29.2436 37.3724C28.5665 37.5371 27.8528 37.5554 27.1574 37.3541Z" fill="#EBFF00"/>
<path d="M21.8138 36.9699C22.7471 37.647 23.8268 37.098 24.815 37.3359C23.717 37.7934 22.5641 37.6653 21.4112 37.6104C21.0452 37.4091 20.6975 37.1895 20.3315 36.9882C20.8256 36.9882 21.3197 36.9882 21.8138 36.9699Z" fill="#EBFF00"/>
<path d="M29.884 36.5306C28.603 36.5306 27.322 36.5123 26.0593 36.5123C27.322 36.311 28.603 35.9999 29.884 36.5306Z" fill="#EBFF00"/>
<path d="M14.6219 43.9055C14.4572 43.9055 14.2742 43.8872 14.1095 43.8872C14.1644 43.3931 14.384 43.0088 14.75 42.6977C14.8781 42.8624 14.9879 43.0271 15.116 43.1735C15.3539 43.6859 15.0245 43.814 14.6219 43.9055Z" fill="#EBFF00"/>
<path d="M27.157 37.3542C27.8524 37.3542 28.5661 37.3542 29.2615 37.3542C28.5661 37.83 27.8524 37.6836 27.157 37.3542Z" fill="#1C1687"/>
<path d="M29.8292 37.1712C29.8475 36.9516 29.8658 36.7503 29.8841 36.5307C30.2501 36.7686 30.1952 36.9882 29.8292 37.1712Z" fill="#1C1687"/>
<path d="M23.2412 36.6221C23.0216 36.9149 22.7288 36.9332 22.3994 36.8783C22.6373 36.6404 22.9301 36.5855 23.2412 36.6221Z" fill="#1C1687"/>
<path d="M14.1095 43.8872C14.1095 44.0519 14.0363 44.18 13.8716 44.2532C13.8533 44.0702 13.9448 43.9604 14.1095 43.8872Z" fill="#2A2D7F"/>
<path d="M80.1355 34.1568C79.5316 35.0352 78.9277 35.0169 78.3238 35.0718C76.2376 35.2731 74.2612 34.5228 72.2299 34.2483C71.4796 34.1568 71.0038 33.5895 71.0404 32.4732C73.9501 33.7176 76.9513 33.8091 80.1355 34.1568Z" fill="#EBFF00"/>
<path d="M70.6562 37.8717C71.2418 37.6155 71.6444 37.89 71.9921 38.073C73.4927 38.8416 75.0482 39.2076 76.7318 39.1161C77.3906 39.0795 78.086 39.1344 78.3605 39.9396C75.9632 40.9644 72.4313 40.0311 70.6562 37.8717Z" fill="#EBFF00"/>
<path d="M71.0403 44.0387C73.0899 45.2831 75.2676 45.1367 77.4452 44.9903C77.738 44.972 78.0857 45.0086 78.1223 45.4112C78.1406 45.6674 77.9759 45.887 77.7563 45.9785C76.3473 46.6373 74.8833 46.3811 73.4742 46.0151C72.4494 45.7589 71.3514 45.4478 71.0403 44.0387Z" fill="#EBFF00"/>
<path d="M77.0062 51.3952C76.3474 52.0906 75.4324 52.054 74.7004 51.8893C73.4194 51.5782 72.2116 51.011 70.9855 50.5535C70.7476 50.462 70.5829 50.279 70.6561 49.9862C70.7293 49.7117 70.9672 49.6385 71.2234 49.6568C71.5162 49.6934 71.8456 49.6934 72.1018 49.8215C73.5841 50.5169 75.1213 50.9743 76.7683 51.0475C76.8415 51.0292 76.8964 51.2122 77.0062 51.3952Z" fill="#EBFF00"/>
<path d="M76.3109 56.9584C76.1096 57.8734 75.3776 58.0564 74.6822 57.7819C73.4927 57.3244 72.2666 57.0865 71.0222 56.812C70.6013 56.7205 70.1072 56.629 70.2353 56.0617C70.3634 55.5494 70.949 55.5311 71.2967 55.6409C72.6692 56.0984 74.06 56.4643 75.4874 56.6107C75.7802 56.6473 76.0913 56.6107 76.3109 56.9584Z" fill="#EBFF00"/>
<path d="M14.622 43.9055C14.8965 43.7225 15.0429 43.4663 15.1344 43.1735C15.8481 42.6977 16.1775 41.6181 17.3121 41.7278C18.7029 41.8559 20.0754 42.0572 21.21 42.9905C22.3994 43.9787 22.3994 43.9787 23.6438 42.6977C24.1013 43.7591 23.8634 44.8571 23.4242 45.6074C23.0216 46.3028 21.887 46.01 21.027 46.1015C20.6427 45.7172 21.1917 45.2048 20.8074 44.8022C20.4597 44.4362 20.0571 44.18 19.6179 43.997C18.7578 43.631 18.1173 44.1617 17.4951 44.6558C17.4036 44.729 17.3121 44.8205 17.2389 44.912C16.0311 46.1747 16.0311 46.1747 14.4756 45.3329C14.2926 45.1133 14.2926 44.8754 14.4207 44.6192C14.4756 44.3996 14.5488 44.1434 14.622 43.9055Z" fill="black"/>
<path d="M15.5369 49.3223C15.4454 49.4504 15.4088 49.5968 15.3173 49.6334C14.9147 49.8164 14.2925 49.7432 14.3657 50.4935C14.4389 51.2072 14.75 51.7745 15.3173 52.1954C15.7565 52.5248 16.6532 52.6895 15.9578 53.4764C15.4088 54.1169 15.0062 53.3483 14.6036 53.1287C13.8716 52.7078 13.1762 52.1954 13.286 51.1523C13.3409 50.4935 12.7187 50.2556 12.2795 49.9628C11.7122 49.5602 11.7854 49.1942 12.2612 48.8099C12.6455 48.4988 13.0481 48.2243 13.4324 47.9315C13.8716 47.6021 14.2559 47.7851 14.5487 48.1328C14.9147 48.5171 15.482 48.7367 15.5369 49.3223Z" fill="black"/>
<path d="M14.4019 44.6375C14.4202 44.8754 14.4385 45.1133 14.4568 45.3512C14.0908 45.1499 14.0725 44.912 14.4019 44.6375Z" fill="#EBFF00"/>
<path d="M24.3023 48.8282C24.2108 50.1824 23.7167 51.2987 22.4541 51.9575C21.5391 52.4333 20.862 53.0555 20.9535 54.19C19.0137 53.8789 18.7575 53.641 18.9954 52.4516C19.0869 51.9941 19.1967 51.7196 19.8372 51.866C21.1914 52.1588 21.8502 51.6281 22.143 50.1824C22.4541 48.4988 22.5456 48.4439 24.3023 48.8282Z" fill="black"/>
</svg>
