<svg width="94" height="162" viewBox="0 0 94 162" fill="none" xmlns="http://www.w3.org/2000/svg">
<g clip-path="url(#clip0)">
<path d="M3.83598 143.503C4.38108 140.98 3.31107 138.456 2.1401 135.933C1.99878 135.63 1.83727 135.307 1.57481 135.105C0.0808251 133.994 -0.100876 132.44 0.0202581 130.764C0.0808251 129.694 0.141392 128.624 0.343282 127.554C0.888385 124.707 1.27198 121.881 1.13065 118.954C0.98933 116.268 1.89784 113.644 2.28143 110.999C2.66502 108.334 2.96785 105.629 3.83598 103.105C4.38108 101.53 4.74448 99.8346 5.51167 98.3406C6.05677 97.2908 6.82395 96.3621 7.08641 95.1507C7.18735 94.6864 7.69208 94.2624 8.05548 93.899C8.5804 93.3741 9.16588 92.9299 9.73117 92.4454C13.1835 89.619 13.668 88.0846 12.3356 83.8651C12.0933 83.0979 11.7703 82.3509 11.4876 81.6039C11.0435 80.4128 10.2763 79.5245 9.00436 79.1409C8.62077 79.0197 8.23718 78.838 7.95454 78.5958C6.86433 77.6267 7.02584 76.4961 8.33813 75.7895C9.04474 75.4059 9.77155 75.0425 10.4782 74.6791C12.3759 73.71 14.2939 73.6293 16.3128 74.3763C18.4124 75.1636 20.3506 76.0721 22.0465 77.6065C24.6508 79.9686 26.7909 80.1705 29.7587 78.3737C35.7548 74.6993 36.7037 75.7087 41.0039 77.5459C43.7093 78.6967 46.354 78.6563 48.9786 77.2835C50.1697 76.6576 51.3811 76.0721 52.6328 75.6078C54.147 75.0627 55.641 75.0021 56.9331 76.2942C58.3059 77.6671 59.9412 77.3239 61.415 76.5567C63.5551 75.4665 65.7758 75.2646 68.0774 75.5068C69.7733 75.6885 71.3884 76.1529 72.5795 77.4854C73.2054 78.1718 73.4477 78.8178 72.9026 79.8071C72.2565 80.9579 71.5701 81.9673 70.5001 82.7143C69.8944 83.1383 69.3089 83.6026 68.7436 84.067C65.897 86.3685 64.5443 89.2152 65.2913 92.9299C65.6951 94.9287 65.574 96.9274 64.8875 98.8857C64.5039 99.9557 64.2415 101.066 63.9992 102.197C63.7368 103.388 63.656 104.599 64.3424 105.71C64.7462 106.356 64.8673 107.082 64.7462 107.85C64.5443 109.162 64.827 110.373 65.3317 111.585C66.2402 113.684 67.1285 115.784 68.037 117.863C69.0061 120.104 69.6319 122.426 69.6925 124.889C69.6925 125.03 69.6319 125.192 69.7127 125.293C70.9038 127.07 69.4502 128.725 69.4906 130.461C69.531 132.278 69.4099 134.095 68.9657 135.872C68.5821 137.406 67.5727 138.618 66.5228 139.768C65.4326 140.96 64.2213 142.03 63.3935 143.443C62.2024 145.482 61.1727 147.602 60.9507 150.004C60.7488 152.185 59.598 153.719 57.8416 154.951C55.4996 156.586 52.9356 157.737 50.2505 158.605C47.8884 159.372 45.4859 159.978 43.1036 160.704C41.3068 161.27 39.4898 161.31 37.7535 160.644C33.9984 159.19 30.0615 158.786 26.1448 158.262C21.9657 157.716 17.726 157.373 13.7286 155.879C12.4769 155.415 11.1848 155.011 9.97344 154.446C5.18864 152.185 3.47258 149.197 3.83598 143.503Z" fill="#C6D6E6"/>
<path d="M85.2784 14.6169C86.5503 14.1323 87.8222 13.6074 88.9528 14.9197C89.2758 15.3033 89.4777 15.6869 89.3364 16.1916C88.9528 16.6963 88.6096 16.2522 88.2664 16.1714C86.6714 15.7878 85.1976 16.1512 83.7642 16.7771C83.3604 16.9588 83.098 17.2011 83.2191 17.7058C83.32 18.1298 83.6633 18.1499 84.0065 18.1298C85.5005 18.0894 86.9743 18.2105 88.4077 18.6345C89.619 18.9979 90.8102 19.4219 91.3149 20.7947C90.5477 21.4408 89.9219 21.1985 89.2354 20.7745C87.7414 19.8458 86.0859 19.6641 84.3699 19.7651C83.8248 19.7853 83.2393 19.7449 83.2595 20.5524C83.2797 21.259 82.9365 22.1272 83.9257 22.43C84.814 22.7127 85.7629 22.8338 86.6714 23.0155C87.8626 23.2578 89.0739 23.4193 89.9219 24.4489C90.1641 24.7517 90.4871 25.1757 90.2449 25.5391C89.942 25.9631 89.3969 25.9227 88.973 25.6401C87.6607 24.7719 86.2273 24.2672 84.6525 24.1057C83.7036 24.0048 82.9163 24.0048 82.6134 25.1353C82.4317 25.7612 81.7251 26.165 81.7049 26.9927C84.6929 27.6388 88.2664 26.9725 90.2449 30.3037C89.4777 31.0709 88.8115 31.0305 88.0241 30.5056C86.4292 29.4558 84.6525 28.8299 82.7548 28.6482C81.503 28.5271 80.4532 29.9605 80.8974 31.1315C80.9983 31.4141 81.2608 31.4949 81.503 31.5958C81.9472 31.7775 82.4317 31.7775 82.8961 31.7371C83.9863 31.616 84.8948 31.9794 85.5812 32.8273C86.5099 33.9983 87.7213 34.6242 89.1345 34.9674C89.4575 35.0481 89.8007 35.1289 90.0834 35.2904C90.6285 35.6336 90.5477 36.2999 89.9219 36.5219C89.619 36.6431 89.2152 36.7642 88.9528 36.6633C87.479 36.0778 85.7831 35.9365 84.6323 34.6444C83.7844 33.6955 82.6942 33.2513 81.2204 33.3724C81.5434 34.5434 81.8462 35.6538 82.1895 36.7844C82.351 37.3093 82.8355 37.3901 83.32 37.491C84.6727 37.7736 85.8033 38.5005 86.7926 39.4493C87.2569 39.8935 87.8424 40.3175 87.7011 41.2058C85.5206 41.3673 84.814 38.9042 82.8153 38.5005C82.5327 39.631 82.9566 40.7414 82.9163 41.8316C82.8961 42.4777 83.5017 42.4575 83.9459 42.5584C84.8746 42.7603 85.7831 42.9218 86.7118 43.1035C87.3175 43.2247 87.8828 43.4468 88.3471 43.8707C88.7509 44.2341 89.2152 44.6581 88.7913 45.2436C88.4682 45.7079 87.9635 45.5666 87.5194 45.3041C86.5099 44.7389 85.3995 44.4562 84.2891 44.2139C82.1491 43.7496 82.1491 43.7496 81.4627 45.8492C81.4021 46.031 81.3415 46.2328 81.2608 46.4145C80.3926 47.5855 82.0481 47.6864 82.1289 48.4536C81.5232 49.9274 81.7453 50.412 83.1182 50.2908C86.2071 50.0486 89.296 50.0889 92.3849 50.0889C94.2625 50.0889 94.3634 50.2706 93.6366 52.0473C92.8089 54.0662 91.4764 55.7419 89.9622 57.2964C87.9231 59.3557 85.6822 61.1727 83.7036 63.2925C81.5232 65.6143 78.7371 65.695 76.5163 63.3127C73.7504 60.345 71.671 56.8724 70.1366 53.1173C69.4704 51.482 70.3587 50.311 72.2766 50.1091C74.2148 49.9072 76.1731 50.0284 78.1113 50.2101C78.8381 50.2706 79.5649 50.412 80.3321 50.2504C80.2109 49.3218 79.686 48.9785 78.8179 48.9785C77.4652 48.9584 76.1529 48.6757 74.8608 48.3325C74.3965 48.2114 73.9321 48.0498 73.7101 47.5855C73.5486 47.2625 73.5486 46.8991 73.9927 46.7981C74.5176 46.677 75.0627 46.5761 75.5675 46.8183C75.8703 46.9596 76.1529 47.1615 76.4558 47.3029C77.3239 47.7066 78.2728 48.171 79.1611 47.9287C80.3119 47.6259 79.686 46.3338 80.0292 45.5464C80.2513 45.0013 80.2917 44.3755 80.433 43.689C78.7977 43.3458 77.2028 43.689 75.628 43.6083C75.0829 43.5881 74.235 43.9515 74.1138 43.1237C73.9725 42.195 74.982 42.195 75.5473 42.0537C76.9807 41.7307 78.4747 41.5894 79.9485 41.7509C80.9579 41.872 81.3415 41.5692 81.1598 40.5597C81.1194 40.3578 81.0993 40.1559 81.0993 39.9541C81.0791 38.985 80.7157 38.561 79.6053 38.662C77.9296 38.8033 76.2539 38.7831 74.5782 38.7831C73.6495 38.7831 72.7208 38.662 72.0142 37.8342C72.5189 37.3699 72.9833 37.067 73.6495 37.3901C75.6684 38.3591 77.7479 37.5314 79.787 37.5718C80.433 37.5919 80.4532 37.0872 80.3321 36.5623C79.7062 33.8166 78.8381 33.1706 76.0116 33.0696C74.134 33.009 72.317 33.6349 70.3587 33.5743C70.5404 32.1207 71.671 32.0602 72.5997 31.9794C74.0735 31.8583 75.5473 31.939 77.0413 31.9794C78.8179 32.0198 78.8179 32.04 78.8381 30.3239C78.8381 30.2633 78.8381 30.1826 78.8381 30.122C78.8583 27.5782 78.4545 27.1744 75.8299 27.1946C74.7195 27.2148 73.6293 27.3359 72.317 27.4369C73.1448 26.064 74.1542 25.9631 75.2444 26.1852C76.375 26.4274 77.5056 26.5688 78.6362 26.5082C79.7668 26.4274 81.3617 24.1461 80.8974 23.1972C80.6753 22.7732 80.1706 22.6117 79.686 22.5915C78.7573 22.531 77.8084 22.5108 76.8596 22.43C76.3346 22.3896 75.7895 22.3089 75.2646 22.2079C74.6993 22.107 74.134 21.8647 74.3763 21.1783C74.558 20.6332 75.1031 20.6534 75.5675 20.8956C77.1422 21.7638 78.8583 21.36 80.5138 21.4004C80.9377 21.4206 81.3213 21.3398 81.4627 20.8553C81.6444 20.29 81.3819 20.0275 80.9175 19.7247C79.7466 18.9575 78.4949 18.6547 77.1018 18.6547C75.7492 18.6345 75.7492 18.5739 74.881 17.4837C77.1624 16.8377 79.0198 18.6749 81.1598 18.2913C81.2204 17.5039 80.5541 17.3222 80.0696 17.0395C79.4841 16.7165 78.8381 16.5348 78.2324 16.232C77.6065 15.9292 76.9201 15.5052 77.1624 14.738C77.3845 14.0112 78.192 13.991 78.8785 13.991C79.7062 13.9708 80.4532 14.3342 81.2204 14.5563C81.7049 14.7178 81.8462 14.5159 81.7251 14.0718C80.3926 11.9721 80.6349 9.67056 81.0185 7.4094C81.3617 5.43087 82.0078 3.51292 82.4721 1.55459C82.674 0.686458 83.2191 0.545135 83.9863 0.302867C86.1869 -0.403748 88.0645 0.161544 89.9219 1.23156C90.5477 1.59496 91.1938 1.93818 91.9609 2.01893C93.5357 2.18044 93.9597 3.29084 92.9704 4.56275C92.607 5.04728 92.1426 5.45106 91.7389 5.89522C89.3969 8.4996 87.0954 11.1242 85.2784 14.1121C85.1371 14.2938 84.9755 14.4554 85.2784 14.6169Z" fill="black"/>
<path d="M35.7144 44.6379C37.39 44.7792 38.5408 44.7994 39.6714 44.9811C40.5395 45.1224 40.8424 44.7994 41.0241 43.9919C41.9124 40.3376 44.1534 37.491 46.7375 34.8866C49.2612 32.3428 52.229 30.3643 55.0554 28.2041C56.0245 27.4571 57.1954 27.0735 58.427 27.0129C58.8913 26.9927 59.3557 26.9523 59.5172 27.5984C60.0219 29.5163 61.2534 31.0709 62.2629 32.7264C62.5455 33.1907 62.7878 33.6753 63.0099 34.1396C63.3935 34.927 63.232 35.4721 62.3638 35.8961C60.0219 37.0872 57.7607 38.3793 55.6409 39.9339C53.9046 41.226 52.3097 42.6392 51.2397 44.5773C50.1091 46.6568 50.1495 46.9596 51.9059 48.4536C54.0258 50.2504 56.2062 51.9463 58.9923 52.5318C60.4459 52.8346 60.5468 54.046 60.7891 55.0958C61.0717 56.2668 60.1229 56.8321 59.2951 57.1955C55.3986 58.9115 52.3501 61.9802 48.5747 63.8578C47.2625 64.5241 46.1723 65.5739 45.1426 66.6439C44.5773 67.2294 43.9918 67.7947 43.3458 68.259C41.6499 69.4502 41.0846 69.2887 39.6916 67.7139C37.4708 65.2105 36.0778 62.2225 34.8462 59.174C33.5945 56.0649 32.4841 52.8952 31.0709 49.8467C30.6469 48.9382 30.3037 47.9893 30.2835 46.9596C30.2431 45.4657 30.5662 45.0417 32.0198 44.759C33.433 44.5168 34.8462 44.5168 35.7144 44.6379Z" fill="#C6D6E6"/>
<path d="M82.0683 48.4536C80.7156 47.5855 80.7156 47.5855 81.2002 46.4146C81.18 47.2423 81.2608 47.8682 82.4115 47.5855C83.9055 47.2221 85.4197 46.8789 86.9742 46.8385C87.6405 46.8183 88.3673 46.7578 88.4682 47.8883C87.7818 48.2921 87.0146 48.171 86.2474 48.1104C84.8342 48.0297 83.421 47.9691 82.0683 48.4536Z" fill="black"/>
<path d="M81.7049 14.0919C82.0481 14.2131 82.3308 14.5563 82.1491 14.7783C81.8462 15.1418 81.4627 14.9197 81.2002 14.5765C81.4223 14.4755 81.6444 14.3544 81.7049 14.0919Z" fill="black"/>
<path d="M72.6804 125.131C72.7208 125.394 72.5391 125.475 72.3574 125.535C72.0949 125.636 72.0142 125.434 71.994 125.252C71.9536 125.03 72.0949 124.889 72.2968 124.829C72.5391 124.768 72.6198 124.95 72.6804 125.131Z" fill="#6B60AE"/>
<path d="M30.3441 64.1607C30.0009 64.0396 29.8192 63.7569 30.1018 63.5146C30.3845 63.2522 30.6469 63.4541 30.7075 63.8175C30.5864 63.9386 30.4652 64.0598 30.3441 64.1607Z" fill="#7B62B0"/>
<path d="M8.13614 20.2092C8.3986 20.1486 8.51973 20.3101 8.56011 20.512C8.5803 20.613 8.51973 20.835 8.43898 20.8552C8.11595 20.9158 7.95444 20.7341 7.91406 20.4515C7.91406 20.3707 8.05539 20.2899 8.13614 20.2092Z" fill="#5A4FA9"/>
<path d="M71.7921 121.78C71.7114 121.719 71.5701 121.659 71.5701 121.578C71.5701 121.477 71.6508 121.356 71.6912 121.255C71.772 121.316 71.9133 121.376 71.9133 121.437C71.9335 121.558 71.8527 121.659 71.7921 121.78Z" fill="#6963AE"/>
<path d="M85.2784 14.6168C85.2179 14.8389 85.0563 14.96 84.9352 14.7379C84.8141 14.4755 85.016 14.2736 85.2784 14.1525C85.2784 14.2938 85.2784 14.4553 85.2784 14.6168Z" fill="#C1B9DB"/>
<path d="M30.344 64.1607C30.4651 64.0396 30.5863 63.9386 30.7074 63.8175C30.7276 64.08 30.667 64.2617 30.344 64.1607Z" fill="#312F98"/>
<path d="M13.8092 76.2538C15.9896 76.4557 18.0287 77.0614 19.7649 78.4342C20.9359 79.3427 22.0463 80.3118 23.399 80.9579C24.8122 81.6241 26.2052 81.7049 27.6992 81.2405C29.0721 80.8165 30.3238 80.1705 31.5351 79.4639C34.0587 77.9699 36.5824 77.8689 39.2473 79.0601C40.3577 79.5446 41.4883 80.009 42.6593 80.2512C44.8801 80.7156 47.0605 80.4329 49.1197 79.4033C50.2099 78.8582 51.3002 78.3737 52.4105 77.8689C53.7228 77.2633 55.0553 77.2633 56.2465 78.1516C58.3461 79.7465 60.4861 79.7061 62.5858 78.2727C65.2709 76.4355 67.8349 77.3642 70.4393 78.3737C71.1863 78.6563 71.2469 79.2216 70.8835 79.8475C70.5403 80.4329 70.1567 80.978 69.5712 81.3616C69.0059 81.725 68.5012 82.2096 67.8955 82.472C65.0489 83.7238 64.0192 86.2272 63.2319 88.9325C63.0098 89.6593 63.1107 90.3861 63.2117 91.1331C63.5549 93.6164 63.5751 96.0794 62.6867 98.4819C62.6464 98.603 62.6262 98.7444 62.5858 98.8655C61.3139 102.277 61.1726 105.649 62.8281 109C63.1511 109.646 63.3934 110.414 63.3934 111.12C63.4337 113.361 64.2211 115.36 65.5334 117.096C67.4715 119.701 68.0368 122.709 68.2185 125.818C68.3599 128.301 68.3397 130.804 67.8349 133.247C67.3302 135.751 65.9977 137.85 64.3019 139.728C61.6167 142.676 59.9612 146.188 58.9518 149.984C58.5076 151.619 57.6395 152.73 56.1455 153.416C51.2598 155.677 46.2731 157.636 41.0038 158.887C40.0751 159.109 39.106 159.13 38.2379 158.726C35.6133 157.535 32.7868 157.373 30.0008 157.07C29.1932 156.99 28.4058 156.848 27.6386 156.606C23.722 155.294 19.6236 155.011 15.606 154.244C12.719 153.679 10.3165 152.286 8.2572 150.307C6.86416 148.975 5.95566 147.339 6.09698 145.28C6.15755 144.472 6.13736 143.665 6.15755 142.857C6.25849 139.243 5.34999 135.953 2.98787 133.146C2.30145 132.319 2.03899 131.39 2.16012 130.34C2.64466 125.878 3.27052 121.437 3.45222 116.914C3.59354 113.583 4.44148 110.292 5.10772 107.002C5.43074 105.387 5.08753 103.59 6.37963 102.217C6.50076 102.076 6.48057 101.672 6.37963 101.45C5.77396 100.198 6.48057 99.2087 7.04586 98.2598C8.15626 96.3823 9.731 94.9085 11.4269 93.5558C13.6073 91.8195 14.6369 89.5382 15.0407 86.853C15.1417 86.2474 14.6167 85.9445 14.5562 85.3994C14.3947 84.2083 14.0918 83.0373 13.7284 81.8866C13.1631 80.1099 12.3556 78.515 10.4174 77.8488C10.1752 77.768 9.87232 77.6671 9.9127 77.3238C9.95308 77.021 10.1752 76.7989 10.4174 76.7787C11.5884 76.7585 12.6382 76.1327 13.8092 76.2538Z" fill="black"/>
<path d="M74.8002 58.4674C73.3668 56.9734 72.9428 54.9545 71.9738 53.2182C71.5094 52.4107 71.9536 51.805 72.9428 51.8252C74.7397 51.8454 76.5365 51.9463 78.3333 52.0271C79.7869 51.7041 81.2809 51.9261 82.7547 51.8858C83.1585 51.8858 83.3604 52.0877 83.2998 52.5116C82.9162 53.0971 82.4317 53.7633 83.5017 54.046C84.3698 54.2681 84.1679 54.7526 83.9459 55.2371C83.219 56.8321 83.2998 58.2251 84.7938 59.3557C85.3389 59.7595 85.0562 60.1834 84.7534 60.5468C83.7238 61.8188 82.3711 62.7474 80.9983 63.555C80.0292 64.1405 79.0399 63.3935 78.3131 62.6869C77.2027 61.6169 76.3144 60.3651 75.6684 58.9519C75.7491 56.9128 77.3239 57.4781 78.7169 57.3368C77.9901 56.4687 76.8595 55.7419 78.0709 54.5103C76.2135 55.2573 76.2538 55.2573 75.8501 57.1349C75.7289 57.68 75.8501 58.5885 74.8002 58.4674Z" fill="#C6D6E6"/>
<path d="M82.8355 9.26674C82.2097 9.36768 82.4519 8.84277 82.4721 8.66107C82.6538 6.92481 82.8961 5.20875 83.4008 3.53306C83.8652 1.9987 84.2689 1.77662 85.9043 1.93813C87.8626 2.11983 89.5787 3.12928 91.436 3.41193C91.6379 3.99741 91.3553 4.34062 91.0121 4.52232C89.3768 5.39045 88.5288 6.92481 87.5799 8.37842C86.5503 9.95316 85.5812 11.5481 84.2286 12.8806C83.9661 13.143 83.7037 13.567 83.2393 13.3853C82.6538 13.1632 82.8153 12.5979 82.8759 12.1538C82.997 11.3664 83.1586 10.579 83.3201 9.79165C83.5421 7.59105 84.5516 5.6731 85.1976 3.97722C84.1276 5.32988 84.2891 7.692 82.8355 9.26674Z" fill="#C6D6E6"/>
<path d="M83.2796 52.5317C82.8556 51.9462 82.2298 52.0875 81.6645 52.0875C80.5541 52.0674 79.4437 52.0674 78.3131 52.0472C80.756 51.5828 83.2392 51.7645 85.7023 51.6838C87.701 51.6232 89.6795 51.6636 91.7388 51.6636C91.7792 53.0364 91.0726 53.9449 90.3458 54.7727C89.3767 55.8831 88.3269 56.9127 87.277 57.9424C86.8531 58.3663 86.5704 59.2143 85.6821 58.548C84.8544 57.902 84.5919 57.155 84.9957 56.2667C85.2783 55.6408 85.6821 55.1159 86.1666 54.6516C86.4695 54.3891 86.7925 54.1468 87.055 53.844C87.4789 53.3191 87.3982 52.8143 86.7723 52.5519C85.6215 52.0875 84.4506 51.9664 83.2796 52.5317Z" fill="#C6D6E6"/>
<path d="M74.8003 58.4674C75.7492 57.5993 75.406 56.5696 75.2041 55.5602C75.0829 54.8536 74.982 54.0258 76.1328 54.6113C76.6173 54.8536 76.8394 54.6921 77.1422 54.3892C77.6268 53.9047 78.1719 53.5211 78.9996 53.8037C78.8785 54.6315 77.9498 54.9747 77.869 55.964C78.2728 56.5898 79.8274 56.5293 79.5245 57.9021C78.9996 58.1848 78.4747 58.0636 77.97 57.8819C76.8192 57.4781 76.0924 57.8617 75.6482 58.9317C75.305 58.9317 74.9416 58.8914 74.8003 58.4674Z" fill="black"/>
<path d="M82.8354 9.26678C83.2998 8.01506 83.7641 6.78354 84.067 5.47125C84.2689 4.62331 84.6121 3.83594 85.5408 3.21008C85.8234 4.6435 84.8745 5.55201 84.5111 6.60183C84.1477 7.67185 83.9458 8.80244 83.32 9.77151C83.1585 9.61 82.997 9.42829 82.8354 9.26678Z" fill="black"/>
<path d="M57.1146 28.729C58.9317 30.0817 59.2951 32.2217 60.4256 33.8772C60.8294 34.4627 60.2036 34.7251 59.8805 34.9674C58.2654 36.0778 56.6705 37.1882 54.9948 38.1775C52.7942 39.4696 51.1387 41.2866 49.7053 43.3458C48.9179 44.4764 48.5141 45.7282 48.2113 47.0404C48.0094 47.8884 48.2113 48.5142 48.9785 48.8978C52.2693 50.5937 54.9342 53.299 58.5481 54.5709C58.3664 55.641 57.6396 56.1457 56.8724 56.4485C53.2384 57.8819 50.3311 60.4056 47.323 62.7677C45.7886 63.979 44.1735 65.049 42.518 66.0787C41.7508 66.5632 41.2865 66.4017 40.8423 65.7758C40.5193 65.3519 40.2366 64.8875 39.9944 64.403C38.4802 61.3343 37.067 58.205 35.4922 55.1564C34.402 53.0366 33.9377 50.735 33.2311 48.494C32.8071 47.202 33.1705 46.7578 34.4828 46.7376C36.5622 46.6972 38.6417 46.455 40.6808 47.1616C41.7104 47.525 42.195 47.1818 42.4372 46.1521C43.6688 40.6607 46.9798 36.5018 50.9368 32.7466C52.7134 30.9902 55.1765 30.2634 57.1146 28.729Z" fill="black"/>
<path d="M26.8917 103.731C26.8917 102.621 27.3157 101.894 27.6589 101.207C28.8299 98.8049 28.8097 96.2813 28.6886 93.7173C28.6482 92.829 28.3251 92.0214 27.9416 91.234C27.7397 90.8101 27.5782 90.3659 27.4368 89.9218C27.2551 89.3565 27.3157 88.8114 27.9214 88.5691C28.4867 88.347 28.7491 88.8315 28.9914 89.2555C31.3939 93.4145 31.0507 97.5936 29.0721 101.773C28.6684 102.6 28.0425 103.307 26.8917 103.731Z" fill="#C6D6E6"/>
<path d="M59.5979 84.5515C59.9209 84.6121 60.1228 84.7938 60.0421 85.0966C59.9613 85.3389 59.7392 85.5408 59.5777 85.7427C57.3166 88.7508 56.1658 92.2435 55.1563 95.7766C54.8131 96.9678 55.015 98.1388 55.2775 99.3501C55.439 100.077 55.8831 101.268 55.0554 101.51C54.0258 101.793 53.9248 100.44 53.5614 99.7337C53.1374 98.8656 53.1576 97.8359 53.4403 96.9678C54.7324 93.0915 55.9437 89.1748 58.326 85.783C58.6894 85.2783 59.0124 84.7736 59.5979 84.5515Z" fill="#C6D6E6"/>
<path d="M13.2238 99.8144C13.3449 98.9665 13.8092 98.7242 14.1323 98.4214C16.5549 96.1804 17.7259 93.2934 18.5335 90.2044C18.7959 89.1748 18.4123 88.2259 18.2912 87.2367C18.2104 86.631 17.8268 85.6417 18.6344 85.5004C19.5025 85.3591 19.2805 86.4291 19.4823 86.9944C20.1486 88.8316 19.7246 90.5477 19.0988 92.2839C18.4325 94.1211 17.6855 95.9179 16.4944 97.4725C15.707 98.5425 14.8389 99.5318 13.2238 99.8144Z" fill="#C6D6E6"/>
<path d="M88.2461 4.28C87.4184 6.37966 86.6108 8.47931 85.1976 10.2963C85.0361 7.71213 86.4695 5.87493 87.5799 3.87622C87.8019 4.01754 88.024 4.15887 88.2461 4.28Z" fill="black"/>
</g>
<defs>
<clipPath id="clip0">
<rect width="94" height="161.128" fill="white"/>
</clipPath>
</defs>
</svg>
