<svg width="25" height="37" viewBox="0 0 25 37" fill="none" xmlns="http://www.w3.org/2000/svg">
<path d="M23.2908 9.17558H1.70937C1.42021 9.17372 1.13711 9.25843 0.896504 9.41882C0.655896 9.57921 0.468791 9.80793 0.35927 10.0756C0.24975 10.3432 0.222825 10.6375 0.281961 10.9205C0.341098 11.2036 0.48359 11.4624 0.691098 11.6638C1.00726 11.9513 1.66834 12.1402 1.70116 12.5877L3.28203 33.0522C3.44622 35.171 4.89567 36.8873 6.51753 36.8873H18.4826C20.1045 36.8873 21.5539 35.171 21.7181 33.0522L23.299 12.5877C23.3318 12.1402 23.9929 11.9513 24.309 11.6638C24.5166 11.4624 24.659 11.2036 24.7182 10.9205C24.7773 10.6375 24.7504 10.3432 24.6409 10.0756C24.5313 9.80794 24.3442 9.57922 24.1036 9.41883C23.863 9.25844 23.5799 9.17372 23.2908 9.17558ZM7.57522 30.9804C7.55236 30.9816 7.5295 30.9822 7.50664 30.9822C7.19186 30.9819 6.88913 30.8611 6.66064 30.6446C6.43215 30.4281 6.29525 30.1323 6.27805 29.818L5.49572 15.5631C5.48685 15.4016 5.50987 15.2399 5.56348 15.0873C5.61709 14.9347 5.70023 14.7941 5.80815 14.6737C5.91608 14.5532 6.04667 14.4552 6.19249 14.3852C6.3383 14.3152 6.49647 14.2746 6.65797 14.2657C6.98414 14.2478 7.30407 14.3602 7.54737 14.5781C7.66785 14.6861 7.76588 14.8166 7.83588 14.9625C7.90588 15.1083 7.94648 15.2664 7.95535 15.4279L8.73766 29.6828C8.75556 30.009 8.64316 30.329 8.42516 30.5723C8.20716 30.8157 7.90143 30.9625 7.57522 30.9804ZM13.7319 29.7504C13.7319 30.0771 13.6021 30.3904 13.3711 30.6214C13.1401 30.8524 12.8268 30.9822 12.5001 30.9822C12.1734 30.9822 11.86 30.8524 11.629 30.6214C11.398 30.3904 11.2683 30.0771 11.2683 29.7504V15.4955C11.2683 15.3338 11.3001 15.1736 11.362 15.0241C11.4239 14.8747 11.5147 14.7389 11.629 14.6245C11.7434 14.5101 11.8792 14.4194 12.0287 14.3575C12.1781 14.2956 12.3383 14.2637 12.5001 14.2637C12.6618 14.2637 12.822 14.2956 12.9715 14.3575C13.1209 14.4194 13.2567 14.5101 13.3711 14.6245C13.4855 14.7389 13.5762 14.8747 13.6381 15.0241C13.7 15.1736 13.7319 15.3338 13.7319 15.4955V29.7504ZM18.7221 29.818C18.7049 30.1323 18.568 30.4281 18.3395 30.6446C18.111 30.8611 17.8083 30.9819 17.4935 30.9822C17.4706 30.9822 17.4478 30.9816 17.4249 30.9804C17.0987 30.9625 16.793 30.8157 16.575 30.5723C16.357 30.329 16.2446 30.009 16.2625 29.6828L17.0448 15.4279C17.0536 15.2664 17.0942 15.1083 17.1642 14.9625C17.2342 14.8166 17.3323 14.6861 17.4528 14.5781C17.5732 14.4702 17.7138 14.3871 17.8664 14.3335C18.019 14.2798 18.1807 14.2568 18.3422 14.2657C18.5037 14.2746 18.6618 14.3152 18.8076 14.3852C18.9535 14.4552 19.084 14.5532 19.192 14.6737C19.2999 14.7941 19.383 14.9347 19.4366 15.0873C19.4903 15.2399 19.5133 15.4016 19.5044 15.5631L18.7221 29.818Z" fill="black"/>
<path d="M25 6.92205V5.76645C25 5.53407 24.9542 5.30396 24.8653 5.08927C24.7764 4.87457 24.646 4.6795 24.4817 4.51518C24.3174 4.35086 24.1223 4.22051 23.9076 4.13158C23.6929 4.04265 23.4628 3.99688 23.2304 3.99688H14.8465C15.0474 3.59662 15.1425 3.15162 15.1229 2.70421C15.1032 2.2568 14.9695 1.82184 14.7343 1.44071C14.4992 1.05957 14.1704 0.74493 13.7793 0.5267C13.3883 0.308471 12.9479 0.193909 12.5 0.193909C12.0522 0.193909 11.6118 0.308471 11.2207 0.5267C10.8296 0.74493 10.5009 1.05957 10.2657 1.44071C10.0306 1.82184 9.89681 2.2568 9.87718 2.70421C9.85755 3.15162 9.9527 3.59662 10.1536 3.99688H1.76958C1.30026 3.99689 0.850159 4.18333 0.518298 4.5152C0.186437 4.84706 0 5.29717 0 5.76649V6.92206C0 7.01202 0.0357331 7.09829 0.0993388 7.16189C0.162945 7.2255 0.249213 7.26123 0.339165 7.26123H24.6608C24.7054 7.26123 24.7495 7.25246 24.7906 7.23541C24.8318 7.21837 24.8692 7.19339 24.9007 7.16189C24.9322 7.13039 24.9571 7.093 24.9742 7.05185C24.9912 7.0107 25 6.96659 25 6.92205Z" fill="black"/>
</svg>
