<svg width="79" height="82" viewBox="0 0 79 82" fill="none" xmlns="http://www.w3.org/2000/svg">
<path d="M22.9631 51.7329C20.6833 49.753 18.6834 47.5332 17.1235 44.9534C14.8637 41.2136 14.0037 37.1539 14.8437 32.8741C16.0836 26.4746 20.0633 22.5548 26.3029 20.9349C27.6828 20.575 28.5028 20.075 29.1827 18.6951C30.7026 15.6353 33.1224 13.5154 36.7022 13.0954C37.4222 13.0155 38.1421 12.8555 38.8421 12.7355C38.9421 12.0355 38.4621 11.5755 38.3621 10.9956C38.1221 9.65567 38.0021 8.39576 39.1821 7.33583C39.722 6.85586 40.062 6.1759 40.502 5.59594C41.1219 4.77599 41.9219 4.15603 42.9018 3.89605C47.3215 2.69613 51.6012 0.916248 56.1809 0.336286C58.5608 0.0363057 60.9606 -0.123684 63.3605 0.1163C66.1003 0.396282 68.1002 1.6962 69.2401 4.27603C70.02 6.05591 70.12 7.7158 68.9601 9.37569C68.2401 10.4156 67.6202 11.5156 66.9202 12.6555C70.98 15.1553 72.5799 19.1551 73.8198 23.3348C74.4997 25.6146 74.4997 27.9345 73.8798 30.2343C73.6998 30.8743 73.5998 31.5342 73.4198 32.1742C72.7998 34.2141 72.8598 35.834 74.8597 37.3539C76.7596 38.7938 77.9395 40.9936 78.6795 43.3335C79.1794 44.9334 79.1394 46.4733 78.2395 47.9332C75.7396 51.9929 72.6399 55.5727 68.9001 58.5125C67.0002 60.0124 64.6404 60.6523 62.2005 60.8723C61.4206 60.9323 60.5806 60.7523 59.8007 61.4723C60.8406 62.4522 61.8806 63.4521 62.9405 64.4321C63.5605 64.992 63.8804 65.572 63.8804 66.4919C63.8604 68.4118 64.7404 70.0917 65.6803 71.7116C66.7202 73.4915 67.9802 75.1314 68.6001 77.1512C68.8201 77.9112 69.4401 78.2512 70.18 78.5311C71.5599 79.0511 72.9998 79.2911 74.4197 79.6111C75.1397 79.7711 75.8596 79.9511 76.4596 80.391C77.3795 81.051 77.4795 81.7109 77.1996 82.8109C76.6996 84.7507 75.7396 85.9907 73.6198 86.4306C72.2199 86.7306 70.96 87.6305 69.6001 88.1705C67.2602 89.1105 65.6203 88.2705 64.9804 85.8107C64.8404 85.2707 64.7204 84.7107 64.1404 84.5707C63.2405 84.3708 62.9805 83.5108 62.4005 82.9909C61.8206 83.1708 61.8606 83.6708 61.7806 84.0908C61.6606 84.6507 61.4606 85.1907 60.8006 85.1507C60.1007 85.1107 60.0807 84.5308 60.0207 83.9708C59.9207 82.8509 59.8007 81.7309 59.6807 80.631C59.3207 80.471 59.1407 80.631 59.0007 80.891C58.7608 81.311 58.3608 81.411 58.0008 81.171C57.6808 80.971 57.8008 80.571 57.8808 80.251C58.0408 79.5311 58.2208 78.8311 58.4008 78.1112C58.6408 77.1712 59.2807 76.6713 60.1807 76.3913C61.1606 76.1113 61.5406 76.2913 61.3606 77.2312C61.1806 78.2712 61.6406 78.8311 62.3005 79.4511C63.1805 80.271 63.8804 81.291 64.9404 81.8909C65.4403 82.1709 66.0403 82.6509 66.5602 82.0309C67.0202 81.4709 67.6002 80.931 67.2002 79.9711C66.3403 77.8712 65.5203 75.7913 64.3204 73.8515C62.9805 71.6916 61.8806 69.4117 61.7606 66.7919C61.7406 66.3719 61.6806 65.972 61.3006 65.752C59.9207 64.972 59.1007 63.6321 58.0808 62.5122C57.6208 62.0122 57.1209 61.5723 56.5209 61.2923C55.9809 61.0323 55.441 60.7323 54.941 61.4323C54.4011 62.1922 53.3411 62.0522 52.6412 62.6522C53.0211 63.4321 53.8411 63.6721 54.4411 64.1521C55.501 64.972 56.5409 65.792 57.2209 66.9719C57.6608 67.7119 57.6208 68.3518 56.7209 68.7518C55.761 69.1918 54.801 69.6717 53.8411 70.1117C53.5611 70.2317 53.3611 70.4117 53.4011 70.6917C53.4411 70.9516 53.7011 71.0916 53.9611 71.1916C54.361 71.3516 54.761 71.2916 55.141 71.1716C56.0009 70.9116 56.8609 71.1716 57.7208 71.2116C58.3208 71.2516 58.7608 71.3916 58.7408 72.1116C58.7208 72.7115 58.8608 73.3915 57.9408 73.3915C57.6808 73.3915 57.4209 73.3915 57.2409 73.6315C55.781 75.7513 53.4411 76.8313 51.5212 78.3912C50.9613 78.8511 50.2613 79.1111 49.5214 79.2711C49.2014 79.3311 48.8214 79.4711 48.6214 79.1111C48.4014 78.7111 48.5814 78.3512 48.9214 78.0712C50.3213 76.9512 51.6212 75.6913 53.1211 74.6914C53.4811 74.4514 54.0011 74.3314 54.1011 73.7315C53.5411 73.1315 52.6212 73.2515 51.9612 72.8115C51.4612 72.4915 50.9213 72.2116 50.5413 71.7316C49.8014 70.8316 49.9413 70.1917 51.0413 69.7517C52.3412 69.2318 53.6611 68.7718 54.521 67.4319C53.3211 66.192 52.1212 64.972 50.7613 63.9121C50.3013 63.5521 49.8614 63.3721 49.3614 63.8721C48.2015 64.992 46.6816 65.572 45.3216 66.4319C44.0417 67.2519 43.1818 68.2718 42.8618 69.8717C42.1819 73.0915 42.0019 76.3313 41.8219 79.5911C41.8019 80.131 41.8019 80.651 41.7819 81.191C41.7419 81.8709 41.2619 82.0709 40.702 82.1109C40.042 82.1509 40.022 81.6109 39.942 81.171C39.902 80.971 39.882 80.771 39.902 80.571C40.342 78.2912 39.922 75.9313 40.342 73.6515C40.482 72.9315 40.562 72.2116 40.622 71.4716C40.8619 68.8118 39.922 66.6519 37.8021 65.012C36.1623 63.7521 34.5624 62.4522 33.2224 60.7123C31.4426 62.1522 30.1426 63.9121 28.9027 65.712C28.3828 66.4519 28.7427 66.7919 29.4427 66.9919C30.2026 67.2119 30.9826 67.4319 31.7425 67.6319C32.3225 67.7918 32.9025 67.9718 33.3624 68.3718C34.4624 69.2518 34.4224 70.0317 33.2424 70.8316C32.3425 71.4316 31.5026 72.0716 30.7626 72.8515C29.5227 74.1714 29.5227 74.2114 30.9826 75.1714C31.5426 75.5313 32.1425 75.8313 32.5425 76.3913C32.8025 76.7513 33.1824 77.1512 32.8625 77.6312C32.5425 78.1312 32.0625 78.2912 31.4826 78.0512C30.0027 77.4112 28.6427 76.5913 27.3828 75.5913C26.7629 75.0914 26.9429 74.5914 27.3228 74.0314C27.8828 73.2315 28.7027 72.6115 29.0227 71.6316C29.0627 71.5516 29.1227 71.4716 29.1627 71.3916C29.9627 70.7117 30.3226 70.1117 28.9027 69.7717C28.3428 69.6317 27.8028 69.3917 27.4228 68.9118C27.1028 68.6718 26.7629 68.4518 26.4629 68.1918C26.0029 67.7919 25.8429 67.3719 26.3029 66.8319C27.5028 65.392 28.2428 63.6521 29.2227 62.0722C29.5027 61.6123 29.8427 61.2123 30.1426 60.7723C30.5226 60.2523 31.5426 60.1124 31.3826 59.3724C31.2626 58.7924 30.5826 58.3325 30.2626 57.7725C29.3427 56.2126 27.9428 55.4527 26.2429 55.1127C26.0029 55.0727 25.7629 54.8127 25.503 54.9527C24.123 55.8526 22.7831 55.1327 21.5032 54.7527C19.5233 54.1727 17.7035 53.1528 15.8636 52.2129C15.1636 51.8529 14.5237 51.3329 13.6837 51.2529C12.9838 52.2329 12.2238 53.1528 11.6039 54.1727C10.6839 55.6726 10.8039 56.7526 11.8239 58.1325C12.2638 58.7124 12.6838 59.3324 12.9638 60.0124C14.3637 63.3121 16.4835 66.132 18.9234 68.6918C19.5633 69.3717 19.9033 70.0517 19.8833 70.9716C19.8433 72.9715 19.9833 74.9514 19.6633 76.9512C19.4833 78.1512 19.8633 79.4511 20.0033 80.691C20.1233 81.7509 20.2233 82.8109 20.3633 83.8708C20.4833 84.7907 19.8433 85.0707 19.1834 85.1707C18.3834 85.2907 18.1834 84.6907 18.2034 84.0108C18.2234 81.9509 17.9035 79.8911 18.3234 77.8312C18.5834 76.5913 18.5834 75.3114 18.6034 74.0514C18.6234 71.7516 18.3434 69.7117 16.3436 68.0118C14.5837 66.5119 13.4637 64.3721 12.2238 62.3922C11.9638 61.9722 11.8638 61.3923 11.1039 61.1323C11.2039 62.5922 10.8439 63.9121 10.7639 65.272C10.7039 66.4519 10.084 66.9919 9.12403 67.2319C8.0241 67.5119 6.90418 67.5719 5.76425 67.4919C4.74432 67.4319 4.36434 66.9519 4.26435 66.032C4.04436 64.0321 4.14436 62.0322 4.44434 60.0524C4.68432 58.4125 4.90431 56.7526 5.18429 55.1127C5.28428 54.4727 5.16429 53.9928 4.70432 53.4928C3.20442 51.8929 2.98443 49.953 4.04436 48.1331C5.68426 45.2733 5.90424 42.2535 5.82425 39.0937C5.72425 35.234 5.82425 31.3542 5.82425 27.4945C5.82425 25.8146 5.92424 24.1547 6.28422 22.5348C6.78418 20.355 6.66419 18.1751 6.4642 15.9753C6.34421 14.6353 6.30421 13.3154 6.6042 11.9955C6.78418 11.1756 7.14416 10.5156 7.86411 10.0356C9.24402 9.13571 10.4839 9.73567 10.6239 11.4156C10.6439 11.5555 10.6239 11.6755 10.6039 11.8155C10.324 17.6352 10.7039 23.3948 11.8239 29.1144C11.8838 29.3744 11.9238 29.6544 11.8838 29.9143C11.3039 33.3741 12.6038 36.7539 12.2638 40.1937C12.1438 41.3736 12.4038 42.2135 13.8637 42.6735C15.8236 43.2935 16.5435 45.4933 15.8836 47.6532C15.3836 49.2731 15.3636 49.2931 16.8635 50.073C18.5834 50.953 20.3433 51.7329 22.2632 52.1329C22.5831 52.2929 23.1031 52.6328 22.9631 51.7329Z" fill="#000081"/>
<path d="M28.9627 71.6716C27.4428 71.7916 25.9029 71.5516 24.423 71.9716C24.303 72.0116 24.143 72.0116 24.023 71.9716C23.323 71.7716 22.2431 72.0716 22.2231 70.8917C22.2031 69.6317 23.323 70.0317 24.003 69.8717C24.5829 69.7517 25.1829 69.7317 25.7629 69.6717C26.3228 69.3918 26.9228 69.4718 27.5028 69.4518C29.2626 69.3718 29.5826 69.9317 28.9427 71.7316L28.9627 71.6716Z" fill="#0C0B87"/>
<path d="M19.6832 4.63599C19.6832 5.9759 16.9634 7.75579 15.7435 7.25582C15.3635 7.09583 15.0235 6.87584 14.9835 6.41587C14.9435 5.91591 15.1035 5.33595 15.5235 5.21595C16.6234 4.93597 17.5834 4.35601 18.6633 4.03603C19.1033 3.91604 19.6032 4.01603 19.6832 4.63599Z" fill="#0E0D87"/>
<path d="M0.744531 4.496C1.36449 4.536 1.92445 4.67599 2.34443 5.17596C2.6844 5.57593 2.96438 6.0159 3.32436 6.41588C3.92432 7.05583 4.00432 7.77579 3.40436 8.35575C2.7844 8.93571 1.98445 8.67573 1.46448 8.17576C0.684535 7.43581 0.124571 6.51587 0.0045793 5.41594C-0.0354181 4.85598 0.184567 4.536 0.744531 4.496Z" fill="#0A0885"/>
<path d="M5.04431 2.47613C4.98432 1.73618 5.12431 1.37621 5.50428 1.13622C5.96425 0.856241 6.54421 1.03623 6.7842 1.33621C7.50415 2.19615 7.98412 3.23608 8.18411 4.35601C8.3041 4.99597 7.88413 5.43594 7.32416 5.49594C6.7642 5.55593 6.08424 5.45594 5.82426 4.81598C5.48428 3.95604 5.2243 3.0761 5.04431 2.47613Z" fill="#0E0D87"/>
<path d="M16.0636 2.59612C16.0436 3.43607 14.8437 4.73598 14.0238 4.89597C13.6638 4.95597 13.3638 4.91597 13.2038 4.556C12.9838 3.99603 12.7639 3.43607 13.2838 2.9161C13.6638 2.55613 14.0638 2.21615 14.4437 1.87617C14.7237 1.61619 15.0237 1.27621 15.4437 1.4962C15.9236 1.73618 15.9036 2.27615 16.0636 2.59612Z" fill="#15138B"/>
<path d="M28.9429 71.7316C28.9429 71.5316 28.9629 71.3316 28.9629 71.1316C28.9229 69.6917 28.9229 69.6717 27.5629 69.6517C26.963 69.6517 26.363 69.6517 25.7631 69.6717C26.103 69.0518 26.963 69.5117 27.343 68.9518C28.5629 69.3118 29.8028 69.6517 31.2227 70.0517C30.4628 70.9117 29.9428 71.6116 28.9429 71.7316Z" fill="#DEE1F0"/>
<path d="M22.9631 51.7329C23.2831 51.8129 23.6831 51.9729 23.6431 52.3129C23.5631 52.7729 23.1231 52.5329 22.8431 52.4929C22.6032 52.4529 22.3832 52.2729 22.1432 52.1529C22.4232 52.0129 22.8031 52.0729 22.9631 51.7329Z" fill="#B3B4D5"/>
<path d="M28.0227 22.2548C28.2827 23.9147 28.1027 25.5746 28.0827 27.2145C28.0427 29.9743 29.2426 31.7342 31.8225 32.6941C33.0624 33.1541 34.3223 33.6341 35.3222 34.594C35.2423 35.154 34.7223 35.234 34.3823 35.5139C34.0423 35.7939 33.8223 36.0739 34.0023 36.5339C34.2023 37.0138 34.6023 37.0338 35.0023 36.9139C35.5822 36.7539 36.1422 36.5539 36.7022 36.3339C37.2621 36.1139 37.8021 35.8539 38.362 35.6339C41.0419 34.654 43.4417 35.6139 44.3017 38.2938C44.6816 39.4937 45.3816 40.1736 46.2415 40.8936C53.3811 46.8732 64.7003 41.8935 66.3002 34.774C66.3402 34.594 66.4802 34.434 66.6402 34.134C67.2401 34.354 67.5201 34.894 67.8801 35.314C68.3801 35.8939 68.96 36.3539 69.78 36.1939C70.6799 36.0339 71.2199 36.5939 71.9198 36.9938C74.5397 38.4938 75.7796 40.9136 76.5995 43.6534C76.8595 44.5334 76.6595 45.3733 76.4395 46.1932C76.0796 47.4732 75.4796 48.6731 74.7397 49.793C73.4797 51.6929 71.9398 53.3328 70.2599 54.8727C66.7002 58.1525 62.6204 59.7724 57.7008 59.4524C54.701 59.2524 51.8412 60.0723 49.1813 61.5122C47.0615 62.6522 45.1216 64.0721 43.2217 65.512C42.0218 66.4119 42.0018 66.3919 40.8619 65.432C40.4619 65.092 40.0419 64.732 39.682 64.352C35.7622 60.0723 31.3025 56.3526 26.9828 52.4928C24.183 50.013 21.5032 47.4132 19.4633 44.2534C15.9235 38.8137 15.8635 33.2341 19.1033 27.6745C20.7432 24.8546 23.183 22.9548 26.4428 22.2548C26.7628 22.1948 27.1028 22.1548 27.4228 22.1348C27.5828 22.1548 27.7627 22.2148 28.0227 22.2548Z" fill="#83FF00"/>
<path d="M65.3004 30.0943C65.2804 31.0743 64.9804 32.7142 64.4405 34.294C62.7606 39.2537 56.741 42.3535 51.7013 40.9136C50.1414 40.4536 48.5815 39.7537 47.5616 38.5938C46.2017 37.0339 44.9017 35.334 45.1617 32.8741C45.3617 30.9343 46.0417 29.2344 46.6616 27.4545C46.9816 26.5346 47.8415 26.0546 48.7015 25.6346C49.2814 25.3546 49.6614 25.0947 49.8214 24.2547C50.0414 23.2348 50.7414 22.2348 52.0413 21.9749C54.1011 21.5549 56.141 21.0549 58.1809 20.5749C58.6808 20.455 59.1008 20.7349 59.5208 20.8749C63.1605 22.2548 65.3204 25.4546 65.3004 30.0943Z" fill="white"/>
<path d="M29.9825 24.4347C30.0825 23.3748 30.0425 22.2949 30.3025 21.2749C30.9825 18.5351 32.6623 16.5352 35.3022 15.4353C39.7219 13.5754 44.1816 15.1153 46.5614 19.275C47.0814 20.195 47.9013 21.0549 48.0813 22.0349C48.3013 23.2148 46.8414 23.5948 46.2415 24.4547C44.6216 26.7746 43.3616 29.2344 42.9617 32.0742C42.7617 33.4741 42.0817 34.0341 40.9218 33.2741C39.7619 32.5142 38.8819 32.6742 37.802 33.1141C37.422 33.2741 37.0221 33.3141 36.6421 33.1741C34.6222 32.4542 32.7223 31.5342 31.2224 29.9344C29.9825 28.5944 29.9625 26.9345 29.9625 25.2547C29.9625 24.9947 30.0025 24.7347 30.0225 24.4547C30.0225 24.4347 30.0025 24.4347 29.9825 24.4347Z" fill="white"/>
<path d="M45.3818 4.936C47.1416 4.21605 49.0615 3.95607 50.6014 2.59616C51.2414 2.03619 52.3613 2.11619 53.3012 2.11619C54.8411 2.11619 56.321 1.79621 57.8409 1.55623C59.9208 1.19625 62.1007 1.43623 64.1605 1.9162C65.6404 2.25618 66.4604 3.69609 67.3803 4.81601C68.0803 5.67596 67.6203 6.73589 67.4403 7.71582C66.8804 10.7956 65.3005 12.3755 62.3006 13.0355C60.8807 13.3555 59.4608 13.7354 58.0609 14.1154C54.6611 15.0353 51.2014 14.9953 47.7416 14.8354C47.1616 14.8154 46.5617 14.6954 45.9017 14.1954C47.6016 13.7354 49.4015 14.7154 50.9614 13.2755C50.1814 12.7955 49.4615 12.6355 48.6815 12.5555C47.6216 12.4355 46.5617 12.3155 45.5218 12.1155C44.1018 11.8356 43.0619 10.8356 43.0219 9.87568C42.9819 8.79575 43.7619 7.77582 45.0618 7.19586C45.5018 6.99587 45.9417 6.89588 46.4217 6.91587C47.0217 6.25592 46.9617 5.73595 46.0617 5.41597L45.9617 5.45597L45.8617 5.41597C45.4018 5.55596 45.3018 5.31598 45.3818 4.936Z" fill="#79DFCC"/>
<path d="M70.5802 34.454C69.5402 33.4741 68.7203 32.6342 67.8403 31.8342C67.4404 31.4742 67.4204 31.0343 67.4204 30.5743C67.4204 29.9743 67.4804 29.3544 67.3604 28.7744C67.1204 27.6945 67.1204 26.8145 68.5003 26.6146C68.7403 26.5746 69.0003 26.4146 68.9203 26.0546C68.8603 25.7746 68.6603 25.5146 68.4003 25.4946C66.5004 25.4346 65.8605 23.9947 65.2005 22.6148C64.4206 20.9749 63.1006 20.075 61.3808 19.715C60.1408 19.455 58.9609 18.9951 57.761 18.5951C56.8411 18.2751 56.3411 17.6951 55.9011 16.8352C56.7211 15.9953 57.841 16.0553 58.8209 15.7553C59.5809 15.5153 60.3808 15.4353 61.1608 15.2353C62.8007 14.8153 63.1806 14.9553 64.0206 16.4152C64.3606 16.9952 64.6006 17.6151 64.8805 18.2151C65.1205 18.6951 65.2405 19.315 65.6205 19.615C68.0203 21.5149 68.9003 24.6347 71.2601 26.5546C71.5201 26.7545 71.7401 27.0145 71.7401 27.3945C71.6401 29.7544 71.4001 32.0542 70.5802 34.454Z" fill="#82FE01"/>
<path d="M13.7036 46.8332C13.6636 47.3932 13.7236 48.1131 13.2236 48.4531C11.7237 49.493 11.0638 51.1129 10.1238 52.5528C9.94386 52.8328 9.72387 53.0728 9.54388 53.3528C9.00392 54.1527 8.44395 54.0927 7.724 53.5528C5.52415 51.9129 5.20417 50.953 6.14411 48.3131C6.2241 48.0731 6.32409 47.8132 6.42409 47.5732C7.44402 45.1933 9.44389 44.1534 11.9837 44.7334C13.1836 45.0133 13.6636 45.5733 13.7036 46.8332Z" fill="#82FD01"/>
<path d="M7.164 42.6735C7.74396 41.5736 7.60397 40.7336 7.56398 39.8537C7.40399 36.3339 6.96401 32.8141 7.76396 29.3144C7.88395 28.7944 7.84396 28.2544 8.22393 27.8145C8.46392 27.5345 8.56391 27.2745 8.20393 26.9945C7.46398 26.4346 7.86396 25.8146 8.18394 25.2346C8.34392 24.9347 8.60391 24.6947 8.98388 24.7347C9.40386 24.7947 9.36386 25.2146 9.42385 25.5346C9.68384 26.7745 9.78383 28.0345 9.78383 29.2944C9.80383 31.7542 9.64384 34.214 10.1238 36.6539C10.4438 38.2738 9.66384 39.9337 10.2038 41.5936C10.3438 42.0135 9.96382 42.3335 9.52385 42.4135C8.84389 42.5135 8.18393 42.5535 7.164 42.6735Z" fill="#E5C0B2"/>
<path d="M6.66414 55.1727C8.28404 56.7126 9.74394 57.9725 9.44396 60.2724C9.28397 61.5123 9.38397 62.7922 8.924 63.9921C8.60402 64.8121 7.50409 65.352 6.70414 65.092C6.34417 64.9721 6.22417 64.6721 6.20417 64.3121C6.08418 61.3723 5.92419 58.4125 6.66414 55.1727Z" fill="#E8C2B3"/>
<path d="M71.9599 80.511C72.6199 80.651 73.2599 80.791 73.9198 80.911C74.6798 81.071 75.3797 81.271 75.2397 82.2909C75.1197 83.1709 74.9597 83.9708 73.7998 84.0908C72.0799 84.2508 70.38 84.4308 69.0601 85.8307C68.6002 86.3307 67.6002 85.8507 67.1003 85.0507C66.6003 84.2508 67.1803 83.9708 67.7202 83.7308C68.9801 83.1709 70.0601 82.5509 70.4 81.051C70.58 80.2911 71.42 80.691 71.9599 80.511Z" fill="#80FA02"/>
<path d="M47.8014 16.5752C49.7013 16.5752 51.2612 16.5752 52.8411 16.5752C53.401 16.5752 53.701 16.8352 53.781 17.3752C53.861 17.9151 54.481 18.4151 53.861 18.9951C52.9011 19.875 51.6411 20.155 50.5212 20.7149C50.1012 20.9149 49.8213 20.435 49.6413 20.115C49.0613 19.075 48.5413 18.0151 47.8014 16.5752Z" fill="#7EF804"/>
<path d="M69.7398 21.3349C67.84 19.255 66.4001 16.8752 65.0201 14.3754C67.28 14.6353 69.6798 17.4551 70.2398 20.375C70.3398 20.8549 70.5398 21.3549 69.7398 21.3349Z" fill="#7CF306"/>
<path d="M45.3816 4.93599C45.5416 5.07598 45.7016 5.21597 45.8616 5.37596C44.8217 5.61594 43.8417 6.05592 43.0818 6.77587C41.3819 8.37576 40.302 10.1156 42.5618 12.5555C42.6818 12.6355 42.7418 12.7155 42.7018 12.7955C42.6618 12.8755 42.6218 12.9355 42.5818 12.9355C39.542 11.4756 39.142 8.41576 41.7819 6.39589C42.8218 5.57595 44.0417 5.07598 45.3816 4.93599Z" fill="#6FD1C7"/>
<path d="M8.76405 23.1147C7.9841 22.0348 8.06409 21.0149 8.80404 19.555C9.16402 21.0349 9.20402 22.0748 8.76405 23.1147Z" fill="#DEBBB1"/>
<path d="M69.7399 21.3349C70.1399 21.1349 70.1399 20.735 70.2399 20.395C70.5799 20.755 70.5599 21.2149 70.6399 21.6549C70.7799 21.8949 70.7599 22.1149 70.5799 22.3149C70.1799 22.0549 69.8599 21.7749 69.7399 21.3349Z" fill="#70D515"/>
<path d="M8.96389 18.0152C8.94389 18.2352 9.02389 18.5551 8.62391 18.4951C8.42393 18.4751 8.28394 18.3551 8.28394 18.1152C8.28394 17.8552 8.34393 17.5952 8.66391 17.5952C8.90389 17.5952 8.94389 17.8152 8.96389 18.0152Z" fill="#D3B5AF"/>
<path d="M46.0616 5.35596C47.2015 5.73593 47.2615 5.97592 46.4216 6.85586C46.7815 6.2559 46.6615 5.75593 46.0616 5.35596Z" fill="#6FD1C7"/>
<path d="M8.18398 14.3354C7.94399 14.2554 7.804 14.1154 7.844 13.9354C7.92399 13.6754 8.14398 13.5354 8.42396 13.5754C8.50396 13.5754 8.60395 13.7754 8.60395 13.8754C8.60395 14.1554 8.46396 14.3354 8.18398 14.3354Z" fill="#9A9FA9"/>
<path d="M42.5617 12.9155C42.5417 12.7955 42.5417 12.6755 42.5417 12.5555C42.6617 12.5955 42.8017 12.5755 42.9017 12.6555C43.1216 12.8355 43.6816 12.8955 43.4816 13.1754C43.2216 13.5154 42.8017 13.2754 42.5617 12.9155Z" fill="#3E7FAB"/>
<path d="M8.64378 16.1953C8.56378 16.3753 8.48379 16.5553 8.2438 16.4753C8.06382 16.4153 7.86383 16.3153 7.92382 16.0753C7.98382 15.8753 8.10381 15.7353 8.3438 15.7953C8.54378 15.8553 8.70377 15.9553 8.64378 16.1953Z" fill="#CFBDB1"/>
<path d="M70.5599 22.2948C70.5799 22.0748 70.5999 21.8548 70.6199 21.6349C70.8599 21.8548 71.0799 22.0748 70.8399 22.3948C70.7799 22.5148 70.6399 22.4548 70.5599 22.2948Z" fill="#4DA32F"/>
<path d="M36.1422 46.1333C36.8222 46.9532 37.7221 47.2532 38.7621 47.3732C40.8219 47.6332 42.8818 47.5132 44.9417 47.2732C46.1416 47.1332 47.3415 46.9332 47.6815 45.4333C47.8215 44.8334 48.3214 44.5534 48.8814 44.6134C49.5614 44.6734 49.6014 45.3133 49.7013 45.8133C49.8613 46.7332 49.9413 47.6532 50.0413 48.5731C50.0813 48.8931 50.0613 49.2531 49.9813 49.5531C49.8213 50.133 49.3014 50.353 48.7614 50.453C48.2414 50.553 48.1415 50.093 47.9815 49.713C47.8615 49.4331 47.8215 49.0731 47.4815 48.9531C46.7415 49.1531 46.6815 49.853 46.3416 50.313C44.6817 52.6729 42.5818 54.4127 39.802 55.2927C37.7421 55.9526 35.8623 55.5327 34.0824 54.3927C32.7225 53.5128 31.7025 52.2729 30.5826 51.133C30.1626 50.693 30.1026 50.153 30.2226 49.6531C30.8426 46.8732 30.0226 44.4934 28.4227 42.2535C28.0028 41.6736 27.8228 41.0936 26.9628 41.5936C26.6829 41.7536 26.2629 41.7536 26.0429 41.4736C25.6829 41.0336 26.1029 40.7536 26.3629 40.4937C27.2028 39.6337 27.0828 38.5538 27.0628 37.4739C27.0628 37.0739 26.9828 36.6539 27.1228 36.2939C27.3028 35.814 27.8028 35.674 28.2828 35.694C28.7827 35.714 28.9227 36.0939 28.9627 36.5139C29.2027 38.3138 29.6827 40.0337 30.4426 41.6736C31.3426 43.5935 32.5625 45.1933 34.5623 46.1133C35.0823 46.6732 35.6223 45.8133 36.1422 46.1333Z" fill="#010181"/>
<path d="M36.1421 46.1332C35.6021 46.4332 35.0822 46.8132 34.5622 46.1332C34.7622 45.9933 35.3421 46.2132 35.0422 45.6333C34.8222 45.1933 34.4022 44.8133 34.6422 44.0934C35.3621 44.6933 35.8021 45.3933 36.1421 46.1332Z" fill="#314D5B"/>
<path d="M39.6219 36.9939C39.5619 37.1939 39.4019 37.3339 39.2019 37.3139C38.9219 37.2939 38.6819 37.1739 38.7019 36.8339C38.7219 36.6139 38.9019 36.5139 39.1219 36.5339C39.3819 36.5539 39.6219 36.6539 39.6219 36.9939Z" fill="#427647"/>
<path d="M48.1414 30.3143C48.6214 28.3145 49.3414 27.2745 51.3212 27.8145C52.3612 28.0945 52.9611 29.1744 52.4212 30.0943C51.9212 30.9343 51.2212 31.7142 50.2413 32.0542C48.9014 32.5142 48.0815 31.8142 48.1414 30.3143Z" fill="#070784"/>
<path d="M62.0005 28.6544C61.9205 30.1743 61.7005 31.5942 60.9206 32.8742C60.6006 33.3941 60.2606 33.8741 59.6607 34.0941C59.4007 34.1941 59.1407 34.1741 58.9207 33.9941C58.6607 33.7741 58.7807 33.5341 58.9007 33.2941C59.2007 32.7742 59.5407 32.2942 59.8207 31.7742C60.6006 30.2943 60.9206 28.7944 59.8807 27.2745C59.8007 27.1745 59.7607 27.0345 59.7207 26.9146C59.4807 26.2546 58.9407 25.4147 59.9207 25.0547C60.7606 24.7347 61.1606 25.5946 61.5206 26.2146C61.9405 26.9546 61.9605 27.8345 62.0005 28.6544Z" fill="#0D0D87"/>
<path d="M37.8423 16.1153C38.8222 16.1553 39.6021 16.3153 40.2021 16.9152C40.5621 17.2752 40.7621 17.6952 40.4621 18.1552C40.1821 18.5951 39.7621 18.4151 39.4022 18.2352C38.3422 17.7152 37.3823 18.0152 36.3824 18.4951C35.3224 18.9951 34.6825 19.7151 34.5625 20.895C34.4825 21.6149 34.4025 22.3549 33.9025 22.9548C33.5825 23.3348 33.1426 23.5148 32.6626 23.3548C32.2026 23.1948 32.2226 22.7549 32.2226 22.3549C32.2026 21.315 32.4626 20.355 33.0626 19.5351C34.1025 18.0952 35.6824 17.2952 37.0623 16.2553C37.2823 16.0953 37.6823 16.1553 37.8423 16.1153Z" fill="#0A0985"/>
<path d="M43.5418 25.9146C43.5218 27.0145 42.1819 28.3344 41.0819 28.3544C40.122 28.3544 38.9421 26.9345 38.9821 25.8546C39.0221 25.0546 40.342 23.3347 40.9219 23.3347C42.0419 23.3147 43.5618 24.7946 43.5418 25.9146Z" fill="#050483"/>
<path d="M65.1803 5.63593C66.1802 6.19589 66.3402 6.95584 65.9602 7.6158C65.1003 9.0157 64.3403 10.4956 62.7004 11.2556C60.4406 12.3155 58.0807 12.9154 55.6209 13.1954C55.2609 13.2354 54.9009 13.1554 54.8609 12.7555C54.8409 12.4955 55.1209 12.3155 55.3809 12.2355C56.9808 11.7555 58.5607 11.2956 60.1606 10.8356C62.4604 10.1756 64.3203 9.0557 64.7603 6.43587C64.8003 6.19589 65.0003 5.9759 65.1803 5.63593Z" fill="#080D85"/>
<path d="M50.6613 4.31603C52.5011 3.23611 54.481 2.91613 56.4209 2.59615C58.0608 2.33616 59.7207 2.07618 61.3805 2.43616C61.9005 2.55615 62.4205 2.61615 62.9005 2.91613C63.3604 3.19611 63.9604 3.53609 63.7204 4.11605C63.4404 4.796 62.7605 4.37603 62.3405 4.19604C59.8007 3.13611 57.2808 3.45609 54.741 4.23604C53.921 4.49602 53.0611 4.67601 52.2212 4.816C51.7412 4.896 51.1612 5.13598 50.6613 4.31603Z" fill="#070983"/>
<path d="M50.9413 11.3156C49.8014 11.5756 48.5415 10.8956 47.4616 9.83569C46.4016 8.77576 46.5616 7.75583 47.8415 6.91588C48.0615 6.77589 48.3015 6.6559 48.5015 6.49591C48.9615 6.13594 49.4414 5.93595 49.8614 6.51591C50.4014 7.25586 49.6814 7.41585 49.2814 7.65584C48.8615 7.91582 48.4615 8.1958 48.5615 8.71577C48.6815 9.25573 49.2415 9.25573 49.6814 9.37572C50.6414 9.63571 51.5813 9.91569 52.5412 10.1757C52.9412 10.2757 53.3612 10.3957 53.3012 10.8956C53.2412 11.4556 52.7212 11.2956 52.3612 11.3156C52.0413 11.3356 51.7013 11.3156 50.9413 11.3156Z" fill="#080C84"/>
<path d="M61.0606 7.09583C60.2207 7.07583 59.7807 6.63586 59.3607 6.23589C58.3608 5.27595 57.2809 5.17596 56.061 5.73592C55.401 6.0359 54.741 6.43587 53.9811 6.19589C53.8211 6.15589 53.6211 5.9959 53.5611 5.83591C53.4811 5.65593 53.5811 5.45594 53.7811 5.35595C54.5411 4.95597 55.261 4.43601 56.181 4.456C57.0409 4.476 57.9208 4.456 58.7808 4.516C60.5007 4.63599 60.8406 5.03597 61.0606 7.09583Z" fill="#0A0E85"/>
<path d="M56.0411 9.91565C57.3011 9.1957 58.401 8.71573 59.2409 7.85579C59.4409 7.6558 59.7209 7.71579 59.9609 7.89578C60.2009 8.09577 60.2009 8.33575 60.1209 8.61574C59.6609 9.97565 57.941 10.6356 56.0411 9.91565Z" fill="#0F1688"/>
<path d="M38.5623 50.153C37.2223 50.233 35.9224 50.413 34.9425 51.5129C34.5025 52.0129 34.0026 51.8529 33.5026 51.5529C32.0227 50.613 31.7827 49.753 32.4427 47.4132C34.4425 48.2931 36.4224 49.2131 38.5423 49.773C38.6423 49.853 38.6823 49.933 38.6623 50.033C38.6423 50.093 38.6023 50.153 38.5623 50.153Z" fill="#F5550C"/>
<path d="M42.1819 49.7331C42.9618 49.3131 43.7618 49.2731 44.6017 49.6131C43.7818 51.5329 43.7818 51.533 42.0819 51.033C41.4419 50.853 40.822 50.653 40.202 50.473C40.482 49.2731 41.6419 50.333 42.1819 49.7331Z" fill="#E45210"/>
<path d="M41.2418 52.8928C39.3819 54.0728 37.902 54.0327 36.0221 53.3328C37.762 52.1929 39.2419 52.1729 41.2418 52.8928Z" fill="#C4457A"/>
<path d="M42.1818 49.733C41.6818 50.453 40.7019 49.833 40.1819 50.473C39.622 50.513 39.062 50.513 38.5621 50.133C38.5421 49.993 38.5421 49.873 38.5421 49.733C39.762 49.753 40.9619 49.753 42.1818 49.733Z" fill="#B34623"/>
</svg>
