<svg width="65" height="53" viewBox="0 0 65 53" fill="none" xmlns="http://www.w3.org/2000/svg">
<path d="M63.252 22.5303C63.0929 23.6441 63.7293 24.5589 64.0276 25.5533C64.5248 27.2637 64.1668 29.1133 64.9623 30.764C65.022 30.8634 65.0021 31.0424 64.9623 31.1618C63.9282 34.0654 63.4508 37.2276 60.6665 39.2363C59.2147 40.2904 57.7032 41.2252 56.0922 42.0207C54.183 42.9554 52.2936 43.8902 50.3645 44.7454C49.8474 44.984 49.6286 45.2227 49.7081 45.7597C49.7877 46.3563 49.8275 46.9529 49.907 47.5297C50.265 50.0157 47.779 52.5216 45.3328 52.104C44.4378 51.9449 43.6025 50.851 43.4434 49.5782C43.3638 48.9219 43.5229 48.2457 43.1451 47.649C42.7473 46.9927 42.3495 46.9529 41.8126 47.5496C38.0338 51.746 33.3004 52.8796 27.9306 51.8454C25.9816 51.4675 24.0723 50.9107 22.183 50.314C20.6118 49.8367 19.0407 49.8765 17.4695 50.1748C16.1768 50.4334 14.884 50.7317 13.5913 51.03C12.756 51.2289 11.9008 51.3681 11.0456 51.3084C5.69571 50.9703 0.166813 45.3022 0.00770753 40.012C-0.111621 35.7758 1.16122 31.9175 3.3688 28.3575C4.00522 27.3234 4.95985 26.5875 5.87471 25.8119C7.26688 24.5987 7.9033 23.2861 8.0624 21.2376C8.59938 14.4358 10.6479 8.36997 16.9524 4.39234C20.5919 2.08532 24.49 0.971583 28.5671 0.0965049C29.7007 -0.142153 30.8144 0.0965049 31.9083 0.434603C34.3147 1.17046 36.7013 1.92621 39.0879 2.74163C40.4999 3.21894 41.5739 4.23324 42.5683 5.3072C43.9804 6.81869 45.0941 8.54896 45.9692 10.4184C46.2675 11.0549 46.6255 11.4725 47.4011 11.5918C48.4552 11.7509 49.3899 12.2879 50.3247 12.805C51.0208 13.1829 51.7168 13.6204 52.4726 13.8193C56.9673 15.0325 59.9903 18.0555 62.5161 21.7547C62.6155 22.1524 63.4906 21.7945 63.252 22.5303Z" fill="#000081"/>
<path d="M63.2518 22.5303C63.053 22.2121 62.4961 22.2519 62.4961 21.7547C63.1922 22.2718 63.6297 21.1779 64.3656 21.4564C64.3457 22.1922 63.6695 22.232 63.2518 22.5303Z" fill="#4E48A7"/>
<path d="M29.4621 12.2282C31.252 13.1829 33.0022 13.2227 34.633 11.9299C35.2893 11.4128 35.8462 11.5918 36.4229 11.9697C36.8008 12.2282 37.1389 12.5663 37.5168 12.8249C38.3919 13.4414 39.3266 13.6602 40.3011 13.1033C41.4347 12.447 42.5485 12.5862 43.7418 12.8846C47.6796 13.879 51.3589 15.5098 54.9587 17.3395C55.1178 17.4191 55.3167 17.4986 55.3167 17.9958C54.6007 18.7317 53.6063 19.5272 53.0295 20.6608C52.1147 22.4309 52.2937 23.2065 54.0637 24.2208C54.8393 24.6583 55.257 25.1953 55.3763 26.0505C55.9531 29.8292 58.5783 31.5993 61.9195 32.6136C62.4963 32.7926 62.4764 33.0909 62.3571 33.4887C62.0985 34.4632 61.6212 35.3184 60.9848 36.1139C60.1296 37.1481 59.1153 37.9834 58.0016 38.7192C55.1377 40.5887 51.9953 41.9212 48.6342 43.3532C48.7536 42.1201 49.1911 41.2848 49.8673 40.7081C51.2794 39.5347 51.0208 38.1823 50.5037 36.7503C50.3645 36.3923 50.1656 36.0343 49.9469 35.6962C49.6684 35.2786 49.0121 34.8411 49.4497 34.3637C49.9469 33.8268 50.6827 34.1052 51.2794 34.4632C51.8362 34.8013 52.1147 35.2985 52.1147 35.9349C52.1147 36.6708 52.2539 37.4066 52.6516 38.0232C52.8903 38.3811 53.1091 38.938 53.6858 38.7391C54.2427 38.5601 54.8194 38.2618 54.8592 37.5458C54.8791 37.1481 54.8592 36.7503 54.8393 36.3526C54.7797 35.3581 54.7598 34.3637 55.3564 33.4887C55.4956 33.2898 55.615 32.9915 55.615 32.7528C55.6349 32.1363 56.0127 31.3407 55.2172 30.9828C54.5012 30.6844 53.8847 31.1617 53.5864 31.7783C53.1091 32.713 52.5721 32.534 51.8362 32.1363C49.3701 30.8435 47.1227 31.2214 45.0544 33.0511C44.06 33.9262 43.0457 34.8013 41.9717 35.557C40.0625 36.9293 38.0339 37.6851 35.6473 36.7304C34.1756 36.1338 32.6243 36.2133 31.2122 36.9293C29.0842 38.0232 27.1551 37.7646 25.2657 36.3526C23.8536 35.2985 22.2427 35.0399 20.5522 35.3979C18.8617 35.736 17.1911 36.1139 15.5205 36.5117C14.009 36.8895 12.6566 37.5458 11.8412 38.9977C11.5628 39.475 11.344 39.5744 10.7871 39.1966C10.1308 38.7391 9.31541 39.117 9.1563 39.8529C9.05686 40.2904 9.03697 40.7876 9.1563 41.2251C9.35518 41.961 9.45462 42.9554 10.27 43.1941C11.1451 43.4526 11.7219 42.6571 12.1594 42.0207C13.0146 40.7478 14.2278 39.9921 15.6001 39.4551C16.7735 38.9977 17.9469 38.5601 19.1203 38.1027C20.9897 37.3668 22.7996 37.4862 24.4105 38.6994C26.5385 40.2904 28.8257 40.3898 31.1924 39.5744C32.5447 39.117 33.5789 39.117 34.3546 40.5092C34.6927 41.1456 35.3291 41.6229 36.0451 41.8417C37.1787 42.1798 37.7952 42.9753 38.1333 44.0294C38.2327 44.3476 38.4117 44.626 38.4913 44.9442C38.6305 45.521 39.4658 45.8193 39.2272 46.4756C38.9686 47.1717 38.2725 47.5695 37.6361 47.9076C34.991 49.2599 32.2464 50.0555 29.2234 49.2997C27.0357 48.7429 24.8083 48.4445 22.6405 47.828C20.2539 47.1319 17.9667 47.1916 15.6597 48.1263C13.8897 48.8423 12.0799 48.902 10.1905 48.5241C4.84058 47.47 1.34027 42.3588 2.43411 37.0089C3.01087 34.2046 4.04505 31.5595 5.35767 29.0138C5.9742 27.8205 6.9885 26.9654 7.9829 26.0704C9.07675 25.0959 10.4093 24.4197 11.7219 23.3855C10.986 22.7491 10.0712 22.7888 9.87227 21.8143C9.69328 20.8995 9.71317 20.1039 10.0513 19.3283C10.6678 17.9163 11.0854 16.4843 11.2048 14.9529C11.3241 13.5608 13.3726 10.2195 14.5261 9.26492C15.3415 8.58872 16.2166 7.99208 16.7735 7.05733C16.9723 6.73912 17.3104 6.40103 17.6485 6.2817C20.1345 5.44639 22.1035 3.43769 24.8281 3.19904C25.0668 3.37803 25.0867 3.63657 25.0469 3.91501C24.7287 5.7646 25.4248 7.01756 27.2346 7.57442C28.0699 7.83297 28.4279 8.31029 28.2688 9.18536C28.1694 9.70246 28.0699 10.2593 28.6268 10.6372C28.7063 10.8162 28.8654 10.9156 28.945 11.0946L28.9251 11.0747C29.2234 11.3134 29.1638 11.6117 29.0444 11.91C28.8853 12.0294 28.6864 12.089 28.4876 12.1089C26.3198 11.3929 24.3111 10.1997 21.8648 10.3389C18.3247 10.5378 15.1227 13.0437 14.2874 16.5241C14.0886 17.3594 13.9692 18.2146 13.7703 19.0499C12.7958 22.9281 15.4012 25.2152 17.927 27.0847C18.1457 27.2438 18.4242 27.3631 18.6827 27.2836C20.9897 26.6471 20.8704 27.9399 20.1345 29.9685C22.4217 28.5166 22.9786 25.6527 25.8424 25.792C28.1495 25.8914 30.4963 24.539 32.7237 26.2693C34.6728 27.8007 35.4882 29.869 35.528 32.5937C37.0792 31.5794 37.298 30.5452 36.9599 29.2923C36.2837 26.6869 34.4142 25.1953 32.1271 24.1214C29.7206 22.9877 29.6013 22.9678 30.4167 20.4222C31.3316 17.5583 30.7548 14.9728 29.2831 12.4868C29.4024 12.4072 29.4223 12.3277 29.4621 12.2282Z" fill="#FFB636"/>
<path d="M29.3228 2.66206C32.6441 2.98027 36.0848 3.83546 39.2072 5.66517C40.4601 6.40103 41.5739 7.31588 42.3296 8.6285C42.6677 9.24503 42.628 9.68257 42.091 10.1798C40.5596 11.6714 39.4061 11.8305 37.7752 10.4184C36.8604 9.62291 36.0649 9.60302 35.0904 10.0406C34.3545 10.3588 33.6385 10.677 32.8828 10.8957C31.2718 11.3532 30.2575 10.6571 30.2575 8.98649C30.2774 7.33577 29.6211 6.18226 28.1693 5.50606C27.2544 5.08841 26.8368 4.53154 27.1351 3.49736C27.4334 2.4234 28.2886 2.66206 29.3228 2.66206Z" fill="#F91010"/>
<path d="M39.0082 39.7137C39.3264 39.6142 39.6446 39.5148 39.9429 39.4153C40.7583 39.117 41.3351 39.3159 41.6931 40.1512C41.9715 40.8274 42.3295 41.4439 42.6676 42.1002C42.8864 42.5378 43.1648 42.856 43.7614 42.6372C44.3979 42.4184 44.5172 42.0605 44.3979 41.424C44.1592 40.2308 43.3836 39.3159 42.7471 38.2618C43.4432 37.705 44.0598 37.2078 44.7161 36.6907C45.611 37.705 45.0144 39.0574 45.6508 40.1512C46.7447 39.3159 45.9094 38.2618 46.148 37.4066C46.3668 36.5316 46.4264 35.5769 47.3811 34.7814C47.9976 35.8951 48.634 36.9492 49.1511 38.0232C49.5489 38.8187 49.0318 39.3955 48.5147 39.9324C46.6651 41.8218 46.3867 43.3731 47.5601 45.7398C47.8186 46.2767 48.0374 46.8137 48.2363 47.3706C48.5943 48.4247 48.1169 49.1605 47.3015 49.7373C46.4264 50.3538 45.9094 50.1748 45.5713 49.1207C45.4718 48.8025 45.432 48.4843 45.3525 48.1661C44.8752 46.3563 44.2388 44.7652 41.892 44.8249C41.0368 44.8448 40.3805 44.3078 40.1617 43.4526C39.7639 41.9809 38.6502 41.1854 37.437 40.4694C37.5563 39.3756 38.6104 40.2308 39.0082 39.7137Z" fill="#CF6CCB"/>
<path d="M62.7348 30.585C61.104 30.1872 59.9306 29.4912 58.8566 28.6161C58.0412 27.9598 57.6434 27.0847 57.5241 26.0505C57.3849 24.6782 56.828 23.6043 55.6745 22.7292C54.5608 21.8939 54.5608 21.3569 55.2966 20.4421C56.3308 19.1294 56.8678 18.9703 58.0611 19.9449C60.3283 21.7746 62.0387 23.9623 62.2575 27.025C62.337 28.1189 62.5558 29.1928 62.7348 30.585Z" fill="#F91010"/>
<path d="M39.0083 39.7137C38.6503 40.3302 37.7753 39.8529 37.4173 40.4694C36.5223 40.3103 35.7069 39.9523 34.6528 39.3358C36.3632 39.1966 37.6361 39.9523 39.0083 39.7137Z" fill="#AE60C3"/>
<path d="M29.2034 11.7907C29.1437 11.5521 29.0841 11.3134 29.0244 11.0747C29.3625 11.1941 29.4421 11.4526 29.4818 11.7708C29.4222 11.9896 29.3227 12.0095 29.2034 11.7907Z" fill="#010181"/>
<path d="M29.2036 11.7907C29.303 11.7509 29.3826 11.7509 29.482 11.7509C29.482 11.9101 29.4621 12.0692 29.4621 12.2283C29.0246 12.447 28.6467 12.5266 28.6865 11.8305C28.8655 11.8106 29.0246 11.7907 29.2036 11.7907Z" fill="#70E80C"/>
<path d="M29.0445 11.0946C28.8258 11.0151 28.7263 10.8759 28.7263 10.6372C28.8258 10.7764 28.9252 10.9355 29.0445 11.0946Z" fill="#010181"/>
<path d="M28.6865 11.8305C28.8456 12.1288 29.0643 12.3675 29.4621 12.2283C31.9481 14.9529 31.9083 18.0157 30.7548 21.2774C30.5758 21.7547 30.5162 22.2917 30.3769 22.9281C31.968 23.3855 33.3999 24.002 34.6728 24.9766C36.1843 26.1698 37.1986 27.6416 37.6361 29.5309C37.9742 30.943 37.4173 31.9772 36.5025 32.9119C36.2241 33.1904 35.886 33.429 35.4484 33.2301C35.0904 33.0511 35.1302 32.6733 35.1103 32.355C35.0904 31.3606 34.9313 30.3662 34.5932 29.4315C33.5789 26.6074 31.252 25.3345 28.3086 25.9908C27.354 26.2096 26.459 26.5875 25.4049 26.2693C24.5298 26.0107 23.9332 26.7068 23.436 27.3234C22.72 28.1984 22.0836 29.1133 21.3477 29.9884C21.0096 30.3861 20.5522 30.8237 19.9953 30.4259C19.3788 30.0083 19.4783 29.4315 19.8362 28.8746C20.0749 28.4968 20.4329 28.1587 20.3732 27.4626C19.6572 27.562 18.9612 28.2979 18.2054 27.8206C17.5889 27.4228 17.032 26.9654 16.4553 26.5278C13.6709 24.3799 12.4776 21.695 13.5118 18.1549C13.9692 16.5838 14.0289 14.933 15.1029 13.521C17.9668 9.74224 22.4018 8.62851 26.7772 10.7565C27.4335 11.0946 28.0699 11.4924 28.6865 11.8305Z" fill="#010181"/>
<path d="M42.1706 20.2034C43.2048 21.1382 44.1396 22.1723 44.776 23.4253C44.955 23.7833 45.134 24.1413 45.2533 24.5191C45.4323 25.0959 45.134 25.5732 44.7561 25.9511C44.3583 26.3687 43.9009 26.0108 43.4833 25.8715C42.7474 25.6329 42.5087 24.9965 42.29 24.3799C41.574 22.4309 40.1818 21.6155 38.1532 21.7149C37.1787 21.7547 36.1843 21.6155 35.2496 22.1723C34.9314 22.3712 34.4739 22.3513 34.1955 21.9337C33.9171 21.516 33.8176 21.1382 34.1756 20.6807C37.0793 16.8821 41.395 15.7684 45.7107 18.493C46.1483 18.7715 46.7449 18.9704 46.3869 19.6863C46.0886 20.3029 45.6113 20.6211 44.955 20.4421C44.1793 20.2432 43.4435 19.9648 42.6877 19.7261C42.1309 19.5471 41.5143 19.8057 40.9376 19.388C41.3552 19.7261 42.0115 19.5869 42.1706 20.2034Z" fill="#010280"/>
<path d="M26.6777 28.6956C26.6777 29.2127 24.8878 31.5595 24.4502 31.5993C24.1121 31.6391 23.7939 31.48 23.595 31.2015C23.3763 30.9032 23.3763 30.5452 23.6149 30.2867C24.2911 29.5707 24.9673 28.8348 25.7231 28.2183C26.2004 27.8205 26.5584 28.1388 26.6777 28.6956Z" fill="#09107A"/>
<path d="M32.0675 30.7441C32.0277 31.3806 31.8885 31.9971 31.1725 32.0766C30.4764 32.1562 30.3969 31.48 30.2974 30.9828C30.198 30.3464 30.8941 29.5707 31.431 29.6702C32.0476 29.7696 31.968 30.3066 32.0675 30.7441Z" fill="#0B1179"/>
<path d="M42.1705 20.2034C41.7131 20.0244 41.196 19.925 40.8579 19.4278C41.554 19.209 42.1506 19.2488 42.6876 19.7261C42.5285 19.8852 42.3495 20.0443 42.1705 20.2034Z" fill="#69D913"/>
<path d="M21.4669 12.0891C23.4159 12.1686 24.8479 12.3675 26.2003 12.984C28.388 13.9983 29.4222 15.6689 29.2233 18.0356C29.1238 19.2886 28.8653 20.5216 28.6664 21.7547C28.5272 22.5701 28.03 23.0673 27.1947 23.1071C24.9672 23.1667 23.3364 24.3401 21.984 25.9511C21.4271 26.6074 20.8305 26.7864 20.0747 26.5875C19.6372 26.4682 19.1599 26.3886 18.7621 26.1698C16.6142 25.076 14.7845 21.2774 15.3612 18.9505C15.7391 17.4588 15.9977 15.9871 16.9523 14.595C18.245 12.6857 20.1145 12.5664 21.4669 12.0891Z" fill="#FEFEFF"/>
<path d="M22.3222 17.8964C22.8392 17.2998 23.2171 16.8622 23.6149 16.4446C23.774 16.2656 23.9928 16.0468 24.2911 16.2457C24.6093 16.4446 24.7087 16.7827 24.6292 17.1009C24.5496 17.3992 24.311 17.6776 24.132 17.9362C23.6348 18.672 23.5353 19.3482 24.2712 20.0045C24.6292 20.3227 24.7684 20.8001 24.7485 21.2575C24.7485 22.1127 23.7541 22.59 23.0779 21.9337C22.2824 21.1779 21.8846 21.3172 21.5465 22.232C21.5067 22.3513 21.467 22.4906 21.3874 22.59C21.0692 23.0474 20.572 23.485 20.0748 23.1866C19.5378 22.8485 19.8163 22.2718 20.1146 21.7945C20.3532 21.4166 20.5322 20.9791 20.7112 20.5614C20.93 20.0642 21.0294 19.567 20.4726 19.1692C20.0947 18.8908 19.9157 18.4533 19.7367 18.0356C19.498 17.4787 19.5179 17.0014 20.035 16.6434C20.5322 16.3252 21.0095 16.3053 21.4073 16.8622C21.6658 17.1804 21.9443 17.4589 22.3222 17.8964Z" fill="#070684"/>
</svg>
